<?xml version="1.0" encoding="UTF-8" standalone="no"?>
<svg
   xmlns:dc="http://purl.org/dc/elements/1.1/"
   xmlns:cc="http://creativecommons.org/ns#"
   xmlns:rdf="http://www.w3.org/1999/02/22-rdf-syntax-ns#"
   xmlns:svg="http://www.w3.org/2000/svg"
   xmlns="http://www.w3.org/2000/svg"
   xmlns:sodipodi="http://sodipodi.sourceforge.net/DTD/sodipodi-0.dtd"
   xmlns:inkscape="http://www.inkscape.org/namespaces/inkscape"
   viewBox="0 0 99.259964 142.3961"
   id="svg3340"
   version="1.1"
   inkscape:version="0.91 r13725"
   sodipodi:docname="arrow4.svg"
   width="99.259964"
   height="142.3961">
  <metadata
     id="metadata3347">
    <rdf:RDF>
      <cc:Work
         rdf:about="">
        <dc:format>image/svg+xml</dc:format>
        <dc:type
           rdf:resource="http://purl.org/dc/dcmitype/StillImage" />
        <dc:title></dc:title>
      </cc:Work>
    </rdf:RDF>
  </metadata>
  <defs
     id="defs3345" />
  <sodipodi:namedview
     pagecolor="#ffffff"
     bordercolor="#666666"
     borderopacity="1"
     objecttolerance="10"
     gridtolerance="10"
     guidetolerance="10"
     inkscape:pageopacity="0"
     inkscape:pageshadow="2"
     inkscape:window-width="1366"
     inkscape:window-height="705"
     id="namedview3343"
     showgrid="false"
     inkscape:zoom="3.337544"
     inkscape:cx="30.487528"
     inkscape:cy="19.173802"
     inkscape:window-x="-8"
     inkscape:window-y="-8"
     inkscape:window-maximized="1"
     inkscape:current-layer="svg3340"
     fit-margin-top="0"
     fit-margin-left="0"
     fit-margin-right="0"
     fit-margin-bottom="0" />
  <path
     id="path4171-8-2"
     style="fill:none;fill-opacity:1;fill-rule:evenodd;stroke:#6a62bd;stroke-width:8;stroke-linecap:butt;stroke-linejoin:round;stroke-miterlimit:4;stroke-dasharray:none;stroke-opacity:1"
     d="m 4.8983286,116.1695 30.1119614,-1.04867 11.235808,24.11953 m -0.08356,0.85266 c 0,0 20.012135,-28.41775 13.611765,-92.141705 L 85.796133,47.855795 44.448368,6.5080243 3.9994636,47.556173 32.91294,48.155416 C 42.051396,101.48804 3.9994636,116.76875 3.9994636,116.76875"
     inkscape:connector-curvature="0"
     sodipodi:nodetypes="cccccccccc" />
  <path
     id="path4171-8"
     style="fill:none;fill-opacity:1;fill-rule:evenodd;stroke:#ff8b38;stroke-width:8;stroke-linecap:butt;stroke-linejoin:round;stroke-miterlimit:4;stroke-dasharray:none;stroke-opacity:1"
     d="m 8.9048331,114.99272 30.1119619,-1.04867 11.235808,24.11953 m -0.08356,0.85266 c 0,0 20.012135,-28.41775 13.611765,-92.141708 L 89.802638,46.679012 48.454873,5.3312422 8.0059681,46.37939 36.919445,46.978633 C 46.057901,100.31126 8.0059681,115.59197 8.0059681,115.59197"
     inkscape:connector-curvature="0"
     sodipodi:nodetypes="cccccccccc" />
  <path
     id="path4171"
     style="fill:#ffffff;fill-opacity:1;fill-rule:evenodd;stroke:#584f9d;stroke-width:6;stroke-linecap:butt;stroke-linejoin:round;stroke-miterlimit:4;stroke-dasharray:none;stroke-opacity:1"
     d="m 56.626785,136.58486 c 0,0 20.01213,-28.41775 13.61176,-92.141696 L 96.260385,44.347644 54.912614,2.9998742 14.463709,44.048022 43.377186,44.647265 C 52.515682,97.979897 14.595385,113.22579 14.595385,113.22579 l 30.879191,-1.61312 11.235809,24.11953"
     inkscape:connector-curvature="0"
     sodipodi:nodetypes="ccccccccc" />
</svg>
