<?xml version="1.0" encoding="UTF-8" standalone="no"?>
<!-- Created with Inkscape (http://www.inkscape.org/) -->

<svg
   xmlns:dc="http://purl.org/dc/elements/1.1/"
   xmlns:cc="http://creativecommons.org/ns#"
   xmlns:rdf="http://www.w3.org/1999/02/22-rdf-syntax-ns#"
   xmlns:svg="http://www.w3.org/2000/svg"
   xmlns="http://www.w3.org/2000/svg"
   xmlns:sodipodi="http://sodipodi.sourceforge.net/DTD/sodipodi-0.dtd"
   xmlns:inkscape="http://www.inkscape.org/namespaces/inkscape"
   width="160mm"
   height="297mm"
   viewBox="0 300 570 800"
   id="svg2"
   version="1.1"
   inkscape:version="0.91 r13725"
   sodipodi:docname="day_button001.svg">
  <defs
     id="defs4">
    <filter
       inkscape:label="Bloom"
       inkscape:menu="Bevels"
       inkscape:menu-tooltip="Soft, cushion-like bevel with matte highlights"
       style="color-interpolation-filters:sRGB;"
       id="filter4939">
      <feGaussianBlur
         result="result1"
         in="SourceAlpha"
         stdDeviation="2.2"
         id="feGaussianBlur4941" />
      <feSpecularLighting
         result="result0"
         specularExponent="18.1"
         specularConstant="2"
         surfaceScale="5"
         id="feSpecularLighting4943">
        <feDistantLight
           azimuth="225"
           elevation="24"
           id="feDistantLight4945" />
      </feSpecularLighting>
      <feComposite
         result="result6"
         operator="in"
         in2="SourceAlpha"
         id="feComposite4947" />
      <feMorphology
         radius="5.7"
         operator="dilate"
         id="feMorphology4949" />
      <feGaussianBlur
         result="result11"
         stdDeviation="5.7"
         id="feGaussianBlur4951" />
      <feDiffuseLighting
         surfaceScale="5"
         result="result3"
         diffuseConstant="2"
         in="result1"
         id="feDiffuseLighting4953">
        <feDistantLight
           elevation="25"
           azimuth="225"
           id="feDistantLight4955" />
      </feDiffuseLighting>
      <feBlend
         result="result7"
         mode="multiply"
         in="result3"
         in2="SourceGraphic"
         id="feBlend4957" />
      <feComposite
         in="result7"
         operator="in"
         in2="SourceAlpha"
         result="result91"
         id="feComposite4959" />
      <feBlend
         result="result9"
         mode="lighten"
         in="result6"
         in2="result91"
         id="feBlend4961" />
      <feComposite
         in="result11"
         in2="result9"
         id="feComposite4963" />
    </filter>
  </defs>
  <sodipodi:namedview
     id="base"
     pagecolor="#ffffff"
     bordercolor="#666666"
     borderopacity="1.0"
     inkscape:pageopacity="0.0"
     inkscape:pageshadow="2"
     inkscape:zoom="0.7"
     inkscape:cx="220.95174"
     inkscape:cy="377.06901"
     inkscape:document-units="px"
     inkscape:current-layer="layer1"
     showgrid="false"
     inkscape:window-width="1366"
     inkscape:window-height="705"
     inkscape:window-x="-8"
     inkscape:window-y="-8"
     inkscape:window-maximized="1" />
  <metadata
     id="metadata7">
    <rdf:RDF>
      <cc:Work
         rdf:about="">
        <dc:format>image/svg+xml</dc:format>
        <dc:type
           rdf:resource="http://purl.org/dc/dcmitype/StillImage" />
        <dc:title></dc:title>
      </cc:Work>
    </rdf:RDF>
  </metadata>
  <g
     inkscape:label="Layer 1"
     inkscape:groupmode="layer"
     id="layer1">
    <rect
       style="opacity:0.547;fill:#a7c2d7;fill-opacity:1;stroke:#ffffff;stroke-width:2;stroke-linecap:round;stroke-miterlimit:4;stroke-dasharray:none;stroke-opacity:1;filter:url(#filter4939)"
       id="rect4937"
       width="525.71429"
       height="641.42859"
       x="24.285715"
       y="333.79077"
       ry="58.57143" />
    <path
       inkscape:connector-curvature="0"
       id="path4381"
       d="m 39.477867,589.71234 c 0,-222.5 0,-237.65229 244.375003,-237.65229 244.375,0 250.43592,14.14214 250.43592,236.64214 0,222.5 -6.06092,223.51015 -250.43592,223.51015 -244.375003,0 -244.375003,0 -244.375003,-222.5 z m 158.297963,199.375 c 0.39574,-1.03125 1.80829,-1.875 3.139,-1.875 4.33171,0 29.19606,-24.6034 32.38666,-32.04675 1.24899,-2.91376 4.46925,-7.49613 7.15615,-10.18302 6.95549,-6.95549 12.77023,-15.82183 12.77023,-19.4721 0,-10.41609 13.4214,-16.04589 38.99962,-16.35898 18.21985,-0.22303 25.94611,-0.81457 31.56349,-2.41662 9.03641,-2.57714 23.8209,8.7249 20.61564,15.75966 -1.58952,3.48861 2.69111,14.93636 6.88732,18.41891 1.06366,0.88276 1.93393,2.64926 1.93393,3.92556 0,1.27632 2.96673,5.28557 6.59276,8.90945 3.62601,3.62389 10.17666,10.66702 14.55699,15.65139 5.08722,5.78875 8.91447,9.07254 10.59473,9.0903 1.44679,0.0153 4.03677,1.12778 5.75552,2.4722 4.34213,3.39646 12.12343,3.28954 15.85693,-0.21789 7.21495,-6.7781 2.18692,-17.90106 -16.57168,-36.65965 -17.4678,-17.46781 -20.16808,-23.67416 -22.83077,-52.47481 -1.34998,-14.60181 3.51314,-23.14765 13.17247,-23.14765 2.39833,0 17.79933,-13.2561 22.04368,-18.97368 5.17683,-6.9737 9.99019,-5.24107 26.92705,9.69274 3.17753,2.80173 11.96482,8.12211 19.52732,11.82305 7.5625,3.70095 17.37507,9.7055 21.80571,13.34345 6.16047,5.05828 9.03814,6.61444 12.23147,6.61444 2.29668,0 5.58414,0.9228 7.30548,2.05066 4.61329,3.02274 22.4212,1.45926 26.44604,-2.32187 7.42237,-6.97297 4.24962,-16.99274 -9.28312,-29.31682 -6.66567,-6.07033 -17.21255,-16.12688 -23.4375,-22.3479 -6.69423,-6.69001 -13.6161,-12.35798 -16.94308,-13.87387 -3.09375,-1.40963 -10.40625,-4.87326 -16.25,-7.69699 -5.84375,-2.82372 -12.73438,-5.97365 -15.3125,-6.99985 -5.10247,-2.03096 -5.98553,-4.7994 -2.85225,-8.94195 1.00937,-1.33452 1.85312,-3.94009 1.875,-5.79014 0.0219,-1.85005 0.53173,-3.6678 1.13305,-4.03942 0.60131,-0.37164 1.44642,-3.63921 1.87801,-7.26128 3.87247,-32.4989 3.54349,-31.66715 12.94966,-32.74027 17.52123,-1.99894 33.58233,-4.90625 36.05524,-6.52656 2.78122,-1.82233 21.81594,-5.3836 28.97966,-5.42192 7.4582,-0.0399 11.2642,-10.28147 7.08086,-19.054 -2.08265,-4.36737 -61.51427,-5.87668 -80.83221,-2.0528 -8.46066,1.67475 -9.17044,1.28333 -14.7313,-8.12398 -2.08596,-3.52883 -4.95551,-7.88744 -6.37677,-9.68582 -3.15444,-3.9914 -1.6608,-7.7944 5.8344,-14.85522 5.97298,-5.62683 11.81915,-14.69433 11.81915,-18.33171 0,-5.8208 7.24021,-16.00875 14.61672,-20.56768 5.47083,-3.38116 21.23174,-22.10862 26.49926,-31.48702 6.88289,-12.25441 -3.96723,-24.26234 -13.39985,-14.82973 -1.25612,1.25612 -4.77175,3.505 -7.8125,4.9975 -3.04075,1.4925 -9.46613,6.07737 -14.27863,10.18861 -4.8125,4.11124 -11.74283,9.53716 -15.40072,12.05761 -3.6579,2.52044 -12.93915,10.68752 -20.625,18.14906 -15.98816,15.52152 -14.46567,14.92175 -23.34928,9.19836 -3.73489,-2.40625 -8.09807,-4.375 -9.69597,-4.375 -1.5979,0 -4.46997,-1.15684 -6.38238,-2.57075 -4.28342,-3.16686 -22.06178,-7.86373 -26.44623,-6.98683 -1.76999,0.35399 -3.80796,0.25864 -4.52882,-0.2119 -2.70169,-1.7635 -12.08088,-21.42526 -13.52634,-28.35552 -0.43019,-2.0625 -1.36529,-6 -2.078,-8.75 -0.71271,-2.75 -1.58831,-7.08783 -1.94578,-9.63962 -0.35747,-2.55179 -1.43666,-5.29254 -2.39821,-6.09056 -0.96155,-0.79801 -1.74827,-2.1949 -1.74827,-3.1042 0,-4.41549 -14.00352,-13.27521 -19.9301,-12.60935 -19.41595,2.1814 -19.04718,1.49452 -19.67712,36.65158 -0.56612,31.59557 -0.37311,30.91962 -9.38058,32.85137 -3.47852,0.74601 -7.98494,2.75349 -10.01429,4.46108 -2.55341,2.14855 -5.1959,3.1047 -8.58041,3.1047 -2.68988,0 -7.62479,1.03888 -10.96648,2.30862 -6.06355,2.30396 -6.08687,2.30282 -11.57591,-0.56852 -3.02506,-1.58242 -6.40314,-2.90255 -7.50684,-2.93362 -1.10369,-0.0311 -5.60369,-3.29086 -10,-7.24398 -10.08105,-9.06481 -17.53944,-14.26166 -25.49327,-17.7632 -3.4375,-1.5133 -7.09375,-3.26131 -8.125,-3.88448 -1.03125,-0.62316 -3.5625,-2.04814 -5.625,-3.16662 -2.0625,-1.11848 -5.26036,-3.44589 -7.10634,-5.17201 -11.92095,-11.14689 -31.05804,5.83407 -23.08698,20.48582 1.06611,1.95965 2.49992,4.7858 3.18624,6.28035 0.68632,1.49455 4.70923,5.99455 8.9398,10 4.23057,4.00545 9.28379,9.53264 11.22939,12.28264 1.9456,2.75 6.1818,7.79826 9.41379,11.21835 6.99373,7.40081 7.70173,22.45492 1.3787,29.3152 -6.40133,6.94521 -15.77854,20.53065 -17.17484,24.88241 -0.80896,2.52123 -2.20431,5.42881 -3.10079,6.46133 -0.89648,1.03251 -2.24188,3.48675 -2.98978,5.45386 -1.17721,3.0963 -1.81834,3.46249 -4.7745,2.72695 -6.04726,-1.50465 -42.68475,-2.32256 -44.35653,-0.99024 -0.856989,0.68298 -4.216927,1.62649 -7.466528,2.09668 -3.2496,0.4702 -6.235921,1.38491 -6.636271,2.03268 -0.400349,0.64778 -1.679084,1.18013 -2.841635,1.18302 -1.912762,0.005 -6.295115,2.03663 -17.113729,7.93488 -2.0625,1.12447 -4.422431,2.04794 -5.244293,2.05218 -0.821861,0.004 -2.228111,1.51031 -3.125,3.34682 -0.966673,1.97942 -3.412232,3.94387 -6.005707,4.8242 -3.044494,1.03344 -4.256823,2.13695 -3.986408,3.62862 0.213725,1.17893 -0.227329,2.88567 -0.980121,3.79273 -6.731258,8.11067 24.030155,18.16533 55.575342,18.16533 5.09807,0 12.53103,0.85858 16.5177,1.90794 3.98667,1.04937 10.62349,2.2516 14.74849,2.67162 10.44822,1.06389 10.625,1.31188 10.625,14.90482 0,6.92981 0.76636,14.11023 1.88479,17.65943 1.03663,3.28965 2.45476,7.74147 3.15139,9.89291 1.60183,4.94705 -0.09,9.74367 -4.21692,11.95568 -1.67525,0.89794 -5.05194,4.04745 -7.50376,6.99894 -2.45181,2.95147 -6.87269,7.3399 -9.82417,9.75204 -40.498264,33.09774 -45.888321,75.64556 -6.50709,51.36541 4.80935,-2.96517 9.56474,-5.80427 10.56752,-6.3091 14.63752,-7.36916 24.70181,-14.53333 28.52492,-20.30518 3.69938,-5.58505 13.93635,-15.49451 16.00659,-15.49451 0.59106,0 3.43776,3.02571 6.326,6.72379 5.10545,6.53698 17.16204,15.77621 20.58693,15.77621 6.00255,0 8.7623,6.29119 5.39877,12.30714 -1.02026,1.82482 -3.54179,9.12392 -5.6034,16.22021 -2.06161,7.0963 -5.15386,15.5338 -6.87169,18.75 -10.57075,19.79119 -11.45027,27.83919 -5.04465,46.16015 0.76493,2.18781 5.55267,1.95486 6.42273,-0.3125 z m 0.8873,-20.04371 c -1.00118,-2.60903 3.90205,-11.65369 11.37557,-20.98378 9.71432,-12.12753 11.93917,-15.89997 11.93917,-20.24389 0,-2.22613 0.80997,-4.71973 1.79996,-5.54135 0.98997,-0.8216 1.97435,-2.7186 2.1875,-4.21555 0.4491,-3.15403 8.39782,-4.86621 8.6509,-1.86342 0.67292,7.98424 -6.28813,22.1707 -16.17095,32.95606 -3.94184,4.30183 -7.97369,9.42218 -8.95965,11.37856 -4.8726,9.66835 -9.10246,12.99572 -10.8225,8.51337 z m 185.1039,-7.68532 c -6.17626,-8.76185 -14.05045,-18.47407 -19.57636,-24.14597 -6.3185,-6.48544 -15.02972,-27.60292 -13.30728,-32.25914 1.91563,-5.17842 9.15889,-0.79416 7.72798,4.67764 -1.31988,5.04721 12.50535,26.00186 22.62763,34.29631 5.70645,4.676 7.53187,8.47565 8.63425,17.97245 0.87555,7.5425 -0.49347,7.42114 -6.10622,-0.54129 z M 105.10287,712.21234 c 0.4249,-0.6875 1.30184,-1.25 1.94877,-1.25 0.64692,0 1.17623,0.5625 1.17623,1.25 0,0.6875 -0.87695,1.25 -1.94877,1.25 -1.07183,0 -1.60113,-0.5625 -1.17623,-1.25 z m 2.70833,-3.33334 c -2.94199,-2.94199 4.53945,-12.73805 16.1537,-21.15137 12.11284,-8.77449 19.26297,-16.58514 19.26297,-21.04247 0,-6.00471 7.69465,-9.09205 11.68126,-4.6869 4.59793,5.08065 -2.39685,13.05766 -30.33004,34.58908 -3.56763,2.75 -7.89102,6.82812 -9.60753,9.0625 -3.00338,3.90949 -5.39945,4.99007 -7.16036,3.22916 z m 156.04167,-9.2243 c -36.22959,-2.99805 -66.2311,-16.4183 -81.57768,-36.49125 -27.24672,-35.63806 -32.08887,-52.97666 -26.09802,-93.45111 2.97953,-20.12991 16.47576,-52.7574 26.36991,-63.75 1.54701,-1.71875 4.5517,-5.71204 6.6771,-8.87396 18.92509,-28.15464 47.59556,-40.92769 98.37869,-43.82893 36.28817,-2.07315 42.3707,-1.71 58.4559,3.49 32.83951,10.6163 50.8093,21.78049 62.1691,38.62413 1.71875,2.54846 5.2814,7.07177 7.91698,10.0518 18.07654,20.43893 17.6947,57.04605 -1.02913,98.66196 -8.27034,18.3818 -11.1015,23.8712 -17.0842,33.125 -14.55488,22.5129 -57.1251,56.12907 -71.2135,56.23474 -1.11917,0.009 -4.03424,0.85066 -6.47795,1.87171 -4.32235,1.80599 -35.26549,5.83285 -41.91893,5.45521 -1.82505,-0.10362 -8.38077,-0.60727 -14.56827,-1.1193 z m 34.4188,-22.90737 c 8.61783,-0.91268 16.87773,-2.30643 18.35532,-3.0972 1.47759,-0.79079 3.70788,-1.43824 4.9562,-1.43878 5.32613,-0.003 26.1518,-11.85393 36.01968,-20.49833 15.85665,-13.89066 19.96666,-18.38812 28.44736,-31.12904 12.42662,-18.66909 18.52059,-31.28732 22.15365,-45.87164 0.77069,-3.09375 2.19606,-7.69504 3.16751,-10.22508 7.24165,-18.86013 3.03805,-37.60876 -12.40139,-55.31187 -4.38408,-5.02686 -8.32878,-10.26685 -8.76601,-11.64443 -1.81744,-5.72626 -31.48759,-21.93214 -46.50886,-25.40321 -3.35075,-0.77428 -8.06755,-1.89816 -10.48178,-2.4975 -2.41423,-0.59934 -5.68991,-0.74965 -7.27927,-0.33402 -1.58936,0.41563 -5.09615,0.0275 -7.79285,-0.86248 -4.41108,-1.45579 -5.16825,-1.37875 -7.54546,0.76771 -2.38543,2.15389 -4.78645,2.39015 -24.69264,2.42978 -22.8174,0.0454 -33.46558,1.29386 -42.05026,4.9301 -18.44934,7.81465 -31.99818,17.05569 -37.86893,25.82865 -1.85959,2.77889 -5.13884,7.11011 -7.2872,9.62494 -24.95337,29.20975 -35.84736,91.94046 -20.01266,115.23871 23.53229,34.62404 43.82425,46.51506 85.16879,49.90863 16.84836,1.38291 17.51938,1.37482 34.4188,-0.41494 z m -33.7938,-25.97716 c -19.28193,-5.23131 -20.75132,-5.93397 -27.74818,-13.26945 -17.60617,-18.45824 -14.88206,-36.01999 11.71904,-75.55027 1.25352,-1.86278 2.27914,-3.9834 2.27914,-4.71247 0,-14.94523 37.648,-31.15274 57.0417,-24.55652 22.97553,7.81448 33.34603,22.40088 28.69301,40.3575 -1.0916,4.21258 -1.98471,9.30812 -1.98471,11.32342 0,15.85392 -44.1788,10.47172 -49.41304,-6.01986 -2.83388,-8.92878 11.52444,-13.28093 16.42817,-4.97955 3.90567,6.61174 20.20608,10.29157 22.94215,5.17918 16.98229,-31.7317 -41.70191,-47.49812 -62.22491,-16.71769 -6.36689,9.54908 -12.73237,20.43179 -12.73237,21.76784 0,0.61235 -1.59943,4.63049 -3.55428,8.9292 -11.88889,26.14355 -6.39849,38.28831 20.13471,44.53807 11.64364,2.7426 33.20999,1.81571 40.19392,-1.72747 3.38213,-1.71586 7.31963,-3.12504 8.75,-3.13149 7.60276,-0.0342 25.58363,-14.88238 30.3456,-25.05853 1.46581,-3.13239 3.52908,-6.41228 4.58505,-7.28865 19.22528,-15.95558 15.44466,-73.03698 -5.76713,-87.07428 -12.94851,-8.56891 -45.71106,-12.70801 -62.18787,-7.85656 -11.77092,3.46584 -28.03647,12.00574 -35.79042,18.79104 -3.77028,3.29929 -7.4512,5.99871 -8.17981,5.99871 -0.7286,0 -3.1771,1.54688 -5.44109,3.4375 -2.264,1.89063 -6.17137,4.84375 -8.68305,6.5625 -2.51168,1.71875 -6.87305,5.51679 -9.69193,8.44008 -6.24735,6.47876 -6.84254,6.12162 -4.03582,-2.42161 8.02604,-24.42998 52.0746,-55.08502 84.94712,-59.11787 11.91773,-1.46209 34.97547,3.01343 51.01778,9.90259 27.06057,11.62077 39.25182,47.39764 28.31523,83.09482 -1.3519,4.41265 -2.45801,8.57713 -2.45801,9.25439 0,2.28756 -6.57018,15.19689 -9.54584,18.75601 -1.62479,1.94337 -2.95416,4.09028 -2.95416,4.7709 0,1.5361 -4.90173,8.1875 -13.08163,17.75112 -6.30654,7.37336 -25.22082,18.31957 -31.65494,18.31957 -1.35197,0 -4.4775,0.84375 -6.94563,1.875 -5.15797,2.15514 -35.83959,2.4617 -43.3178,0.43283 z m 227.04788,14.96401 c -1.25053,-0.69985 -4.05102,-1.00794 -6.2233,-0.68465 -4.86021,0.72332 -13.14562,-1.64944 -18.11452,-5.18762 -2.04654,-1.45726 -4.3123,-2.64957 -5.03501,-2.64957 -0.72272,0 -3.38625,-1.40625 -5.91898,-3.125 -2.53271,-1.71875 -5.96739,-3.125 -7.63259,-3.125 -8.30591,0 -26.62348,-11.28341 -26.62348,-16.39975 0,-7.12724 6.08292,-7.7573 17.5,-1.81263 15.62845,8.13747 26.1326,12.98795 29.93517,13.82314 4.74783,1.0428 16.78191,8.99854 22.36096,14.78283 4.17272,4.32624 4.03389,6.77465 -0.24825,4.37825 z M 65.109422,568.47294 c -1.708486,-2.76439 22.349491,-10.0106 33.235954,-10.0106 1.792684,0 4.983324,-0.60095 7.090294,-1.33545 3.02441,-1.05431 5.10303,-0.8763 9.87403,0.84561 3.32374,1.19958 9.41817,2.50365 13.54317,2.89795 6.4277,0.61439 7.5,1.07433 7.5,3.21689 0,2.80328 -7.11036,3.1744 -27.5,1.43539 -9.157242,-0.78102 -17.013415,-0.0233 -38.914863,3.75356 -2.351075,0.40542 -4.279846,0.0845 -4.828585,-0.80335 z m 16.284225,-11.19461 c -1.09905,-1.7783 0.302476,-3.81599 2.624646,-3.81599 1.095188,0 1.722565,0.8782 1.488729,2.08391 -0.486902,2.51059 -2.982711,3.56153 -4.113375,1.73208 z M 444.47787,532.93706 c 0,-2.36908 0.97231,-3.14383 5.3125,-4.23307 2.92187,-0.73328 7.84375,-1.99523 10.9375,-2.80432 5.57291,-1.45745 16.6818,-2.76144 37.82147,-4.43958 14.16911,-1.12479 21.2066,4.5189 13.74103,11.01955 -4.27199,3.71983 -67.8125,4.14844 -67.8125,0.45742 z m -5,-1.4235 c 0,-1.07182 0.5625,-1.60112 1.25,-1.17622 0.6875,0.4249 1.25,1.30185 1.25,1.94877 0,0.64693 -0.5625,1.17623 -1.25,1.17623 -0.6875,0 -1.25,-0.87695 -1.25,-1.94878 z m -273.75,-12.97745 c 0,-0.72807 0.5625,-1.32377 1.25,-1.32377 0.6875,0 1.25,0.24805 1.25,0.55122 0,0.30318 -0.5625,0.89888 -1.25,1.32378 -0.6875,0.4249 -1.25,0.17685 -1.25,-0.55123 z m 25.23122,-56.01127 c -3.34271,-3.26563 -7.34084,-7.77836 -8.88471,-10.0283 -1.54388,-2.24994 -5.05986,-5.2401 -7.8133,-6.6448 -4.56044,-2.32656 -12.10375,-9.26409 -21.46399,-19.74028 -1.98745,-2.2244 -3.24524,-4.78893 -2.85173,-5.81441 0.75957,-1.97939 3.28251,-2.5428 3.28251,-0.73303 0,1.77318 7.61241,8.86706 14.375,13.39582 26.30891,17.6185 37.13142,28.81751 32.41071,33.53821 -2.59353,2.59353 -2.12006,2.80129 -9.05449,-3.97321 z m 215.01878,4.4375 c -2.37745,-2.37745 -1.75022,-7.11107 1.3125,-9.90513 1.54687,-1.41119 11.81731,-11.47129 22.8232,-22.35578 19.26895,-19.05639 24.11456,-22.56174 28.7365,-20.78813 5.05018,1.93793 1.8891,6.51068 -14.6847,21.2425 -21.90617,19.47157 -27.1875,24.7473 -27.1875,27.15863 0,4.68327 -7.70782,7.9401 -11,4.64791 z M 174.07273,450.45955 c -0.36994,-0.96404 -0.37513,-2.05028 -0.0113,-2.41388 1.14814,-1.14814 4.16666,0.60893 4.16666,2.42541 0,2.26862 -3.28365,2.25951 -4.15514,-0.0115 z m 121.95304,-12.19931 c -0.85135,-0.85135 -1.5479,-4.29172 -1.5479,-7.64529 0,-12.48579 -2.62285,-36.74357 -4.65837,-43.0835 -4.14937,-12.92387 2.68108,-12.45383 7.60399,0.52328 8.25036,21.74853 7.21825,58.82149 -1.39772,50.20551 z"
       style="fill:#a8d3f6;fill-opacity:1"
       sodipodi:nodetypes="ssssscssssssssssssssssssssssssssssssccsssssssssssssssssssssssssssssssssscsssssssssssssssssscscssssssssssssssssssssssscssssssssssssssssssssssssssssssssssssssscscssscssssssssssssssssssssssssssssssssscsssssssssssssssssssscsssssssssccssssssscssssssssssssssssssssssssssssssssssssccsccsssss" />
    <path
       inkscape:connector-curvature="0"
       id="path4387"
       d="m 48.56924,568.49914 c 22.809788,-28.7202 69.86348,-17.60298 102.00314,-27.37107 14.03117,-4.26444 15.42272,-18.94016 20.71542,-29.40763 6.05691,-11.97885 14.72071,-20.32308 10.39593,-33.41118 -13.80611,-41.78151 -60.32754,-79.74949 -13.02911,-52.17157 19.80335,11.54658 34.56997,13.42099 58.30341,32.41025 15.10665,12.08692 54.1697,-21.69599 54.1697,-21.69599 0,0 -0.0926,-59.70635 9.83772,-60.03416 11.41672,-0.37687 22.30587,41.37208 37.46129,63.00054 9.63942,13.75652 25.21525,7.9449 30.17998,14.81149 4.68604,6.48113 31.60132,6.0885 35.80594,13.20019 0,0 71.06939,-78.46963 74.00254,-61.24905 1.97309,11.58401 -65.72501,66.41941 -55.21136,83.08133 0,0 -2.33328,-2.56817 14.70468,30.29806 0,0 98.85851,-6.9476 94.29113,7.61755 0,0 10.40363,-14.19764 -5.4107,10.3531 -9.24158,14.34698 -56.56503,-9.84024 -70.25906,10.39383 -14.67221,21.67942 -9.25131,41.44173 -22.4199,69.62989 0,0 97.93545,33.29056 78.33216,65.54644 -11.8141,19.43929 -66.60974,-57.1803 -97.68245,-38.12542 0,0 -46.75455,11.30782 -45.89608,42.15779 0,0 5.72661,20.04989 12.44677,39.89693 3.21309,9.48941 40.43436,34.07389 22.50932,50.01305 -11.66526,10.37288 -23.23078,-44.93598 -46.27436,-39.03235 -11.18439,2.86537 3.82554,-50.50492 -7.70465,-35.23742 -8.12408,10.75735 -70.14108,-19.78817 -82.79681,6.44824 -10.71842,22.22022 -57.03368,76.32639 -57.03368,76.32639 -13.06418,0 0.0895,-20.18861 -11.11245,-20.19528 -12.8238,-0.008 43.10426,-67.63869 32.33878,-67.59696 -18.29952,0.0709 -34.68255,-30.2599 -49.34681,-28.89815 -33.5819,3.11846 -46.02821,42.44463 -63.95724,47.14706 -20.19224,5.29603 -14.358158,-10.79028 -0.21175,-30.8687 0,0 46.54604,-7.90622 29.77374,-35.88849 -4.60371,-7.68065 31.71232,7.57707 15.97939,-3.2664 -9.86169,-6.79688 16.39408,-39.00172 -2.10373,-50.80623 -28.80503,-18.38211 -102.8009,-17.52214 -102.8009,-27.07608 z"
       style="fill:#fbf37c"
       sodipodi:nodetypes="cssssscssssssssssssssssssscssssssssc" />
    <path
       inkscape:connector-curvature="0"
       id="path4385"
       d="m 197.4299,787.83734 c 0.39573,-1.03125 2.12362,-1.875 3.83975,-1.875 1.91123,0 3.67627,-1.03891 4.55519,-2.6812 0.78921,-1.47466 2.89564,-3.93764 4.68093,-5.47329 1.99247,-1.71386 3.26551,-4.12255 3.29653,-6.23737 0.0627,-4.27144 3.87602,-7.16152 5.75038,-4.35814 1.51174,2.26103 10.12769,-6.63895 13.0825,-13.51376 0.97836,-2.27632 4.86527,-7.60365 8.63757,-11.83852 7.08838,-7.95756 10.08883,-12.90437 11.24702,-18.54283 2.14566,-10.44587 13.56372,-15.34152 35.24747,-15.11284 18.70435,0.19725 30.22385,-0.96958 41.23545,-4.17678 2.05618,-0.59886 4.36656,0.8484 10.3125,6.45992 7.98034,7.53148 8.64875,8.92977 6.16775,12.90248 -1.65322,2.64723 0.74278,8.64678 6.18243,15.48074 1.54687,1.94337 2.8125,4.3859 2.8125,5.42784 0,2.39535 4.28685,7.89596 8.10632,10.4015 1.60758,1.05455 5.75915,5.46552 9.22573,9.80214 6.92476,8.66277 11.46533,12.71011 14.25903,12.71011 1.00198,0 3.25198,1.125 5,2.5 7.24032,5.69522 17.15892,1.70682 17.15892,-6.89984 0,-6.34116 -4.78659,-13.22309 -18.86338,-27.12086 -26.75771,-26.41745 -33.15176,-66.23509 -12.36364,-76.99216 9.19214,-4.7566 22.93862,-16.3367 25.67544,-21.62912 2.35016,-4.54472 6.19583,-4.70088 11.92923,-0.48442 2.33603,1.71797 5.90195,4.1086 7.92425,5.3125 2.02228,1.2039 6.24103,4.46531 9.375,7.2476 3.13395,2.78229 11.8856,8.07207 19.4481,11.7551 7.68927,3.74475 16.85517,9.36637 20.79473,12.75379 5.42872,4.66788 8.01728,6.05741 11.28437,6.05741 2.3318,0 5.55431,0.92084 7.16113,2.0463 4.32709,3.03081 20.7032,1.52977 24.74599,-2.26821 7.9483,-7.46705 4.60598,-15.25423 -13.27687,-30.93335 -7.17235,-6.28849 -13.99414,-12.9605 -15.15952,-14.82669 -4.2075,-6.73766 -21.76301,-20.26805 -26.29753,-20.26805 -1.1171,0 -6.12742,-2.25168 -11.13405,-5.00371 -5.00664,-2.75204 -11.33059,-5.67112 -14.05323,-6.48684 -5.84451,-1.75106 -6.90554,-3.74823 -4.78472,-9.00628 3.4299,-8.50362 5.2618,-17.04982 8.02307,-37.42927 1.88746,-13.93031 1.98728,-14.05063 12.6152,-15.20689 15.66986,-1.70479 31.19936,-4.55772 34.72036,-6.3785 3.80218,-1.96619 22.41957,-5.42894 29.39147,-5.46669 6.66775,-0.0361 10.14188,-10.08721 6.04468,-17.48799 -1.85523,-3.35112 -68.00841,-4.28828 -79.93045,-1.13235 -7.0372,1.86285 -10.32105,0.57007 -13.56693,-5.34098 -4.48639,-8.17013 -5.42018,-9.65023 -7.62618,-12.08781 -3.84404,-4.24762 -2.56212,-8.30705 5.47898,-17.35044 7.9437,-8.93383 11.1945,-14.19403 11.1945,-18.1141 0,-6.31193 6.49077,-14.77083 17.82982,-23.23614 3.9436,-2.94415 7.17018,-5.81099 7.17018,-6.37075 0,-0.55977 1.82812,-2.96453 4.0625,-5.34391 2.23437,-2.37939 5.1875,-6.21633 6.5625,-8.52653 1.375,-2.31021 3.75637,-6.21535 5.29193,-8.6781 7.15365,-11.47306 -3.13015,-21.59693 -12.16693,-11.97772 -1.61469,1.71875 -3.73528,3.125 -4.71243,3.125 -5.5197,0 -9.71146,5.61889 -4.66257,6.25 6.72837,0.84105 8.03607,8.00156 2.32995,12.75798 -1.89172,1.57686 -7.97108,7.19548 -13.50972,12.48582 -5.53862,5.29034 -12.3404,11.25348 -15.11505,13.25143 -5.88487,4.23754 -11.83018,10.96492 -11.83018,13.38639 0,4.6929 -9.90409,7.71429 -13.5,4.11838 -2.7063,-2.7063 -1.7921,-9.58474 1.67558,-12.60717 1.74657,-1.52231 4.98094,-4.67512 7.1875,-7.00625 2.20655,-2.33113 5.42553,-5.70613 7.15329,-7.5 10.86666,-11.28251 14.24635,-15.46765 11.23363,-13.91088 -4.90017,2.53207 -15.94054,12.1401 -27.10859,23.5916 -11.50351,11.79548 -11.89833,11.89082 -21.71019,5.2428 -3.05592,-2.07053 -7.02724,-3.77484 -8.82515,-3.78735 -1.79791,-0.0125 -4.78239,-1.21324 -6.63219,-2.66829 -4.41702,-3.47443 -21.24822,-7.76882 -26.55026,-6.77415 -4.42089,0.82936 -7.69624,-2.8557 -12.48549,-14.04723 -1.09633,-2.56194 -2.58472,-5.78308 -3.30752,-7.15808 -1.32354,-2.5178 -2.99016,-9.04179 -4.23404,-16.57409 -0.37004,-2.24074 -1.17315,-4.38332 -1.78469,-4.76127 -0.61153,-0.37795 -1.11188,-2.22255 -1.11188,-4.09911 0,-10.09089 -13.77944,-23.43415 -22.98594,-22.25834 -16.34113,2.08703 -17.59086,3.64332 -17.72085,22.06781 -0.33151,46.98529 -0.0259,45.39437 -9.0209,46.96142 -2.55603,0.4453 -6.81584,2.27239 -9.46628,4.06021 -2.81372,1.89797 -7.49498,3.586 -11.25,4.05668 -3.53706,0.44336 -9.08713,1.56331 -12.33347,2.48878 -5.42799,1.54741 -6.28206,1.47457 -10.625,-0.90613 -2.59741,-1.42383 -6.1735,-2.92917 -7.94688,-3.34518 -1.77337,-0.41602 -6.83587,-4.00414 -11.25,-7.97359 -10.51901,-9.45935 -18.117,-14.67561 -25.7707,-17.69241 -6.18693,-2.43866 -12.93771,-6.3971 -19.32768,-11.33312 -23.04345,-17.8002 -29.10209,14.91521 -6.81879,36.82004 23.01822,22.62728 30.13255,39.21472 21.72822,50.66051 -0.87271,1.18853 -5.12703,6.72581 -9.45406,12.30509 -4.32702,5.57927 -8.70121,12.50764 -9.72041,15.39636 -1.0192,2.88873 -2.62396,6.1239 -3.56613,7.18928 -0.94217,1.06538 -1.9258,3.06206 -2.18585,4.43706 -0.37889,2.00341 -1.33562,2.44135 -4.81655,2.20474 -23.11493,-1.57122 -40.79584,-1.73275 -45.39963,-0.41478 -19.119914,5.47364 -28.822974,9.1165 -30.194805,11.33618 -0.401089,0.64897 -2.927062,1.83843 -5.613272,2.64323 -3.39137,1.01609 -4.998932,2.25888 -5.260022,4.06648 -0.24952,1.72749 -2.057958,3.24416 -5.376004,4.50866 -5.915147,2.25425 -7.131947,7.72053 -2.573041,11.55898 10.990039,9.25325 22.154209,11.94833 50.324554,12.14862 5.63833,0.0401 13.51333,0.93711 17.5,1.99339 3.98667,1.05627 10.90474,2.25831 15.37349,2.67119 11.18844,1.03371 11.25,1.11861 11.25,15.51768 0,7.4868 0.73785,14.64477 1.88479,18.28444 1.03663,3.28965 2.44586,7.71685 3.1316,9.8382 1.30923,4.05009 -0.42321,11.76799 -2.64157,11.76799 -3.22814,0 -45.11051,43.97271 -47.89276,50.28309 -7.798317,17.6872 -7.020674,22.21691 3.8141,22.21691 8.74834,0 7.45778,0.62859 44.01499,-21.438 3.67739,-2.21973 8.59374,-6.60112 10.92522,-9.73644 12.63958,-16.99733 17.6864,-19.16975 24.26363,-10.44436 5.6049,7.43551 14.27388,14.27448 21.67886,17.10246 7.27804,2.7795 8.36086,5.97375 4.82416,14.23088 -1.39236,3.25075 -3.9246,10.73115 -5.62719,16.6231 -1.70257,5.89196 -4.39802,13.20446 -5.98987,16.25 -9.31695,17.82526 -11.39246,28.28472 -7.91578,39.89118 2.25448,7.52629 5.52927,10.08304 7.23185,5.64618 z m -3.33472,-12.67435 c -0.43964,-0.43964 -0.49453,-1.29256 -0.122,-1.89539 0.79899,-1.29277 3.00465,-0.17806 3.00465,1.51851 0,1.34387 -1.6942,1.56537 -2.88269,0.37688 z m 3.71602,-3.78399 c -3.26075,-3.26075 1.74635,-13.76463 13.60555,-28.54166 5.0508,-6.29349 8.31029,-11.6216 8.79397,-14.375 1.84902,-10.52597 5.30052,-15.16646 10.97257,-14.75239 9.8201,0.71689 4.12176,20.12 -10.57322,36.00239 -3.49857,3.78125 -7.81097,9.40625 -9.5831,12.5 -5.37488,9.38324 -9.87668,12.50576 -13.21577,9.16666 z m 184.36058,-8.29031 c -2.85665,-3.70275 -5.19391,-7.21165 -5.19391,-7.79755 0,-0.58589 -1.71903,-2.78394 -3.82007,-4.88453 -15.78035,-15.77706 -27.75526,-39.32945 -23.77648,-46.76386 3.01096,-5.62604 11.34655,-1.46512 11.34655,5.6639 0,6.57148 9.3496,20.78965 21.08898,32.07055 7.93983,7.62975 8.70218,9.39414 9.25217,21.41336 0.40117,8.76719 -2.29373,8.85749 -8.89724,0.29813 z M 103.22787,713.53611 c 0,-1.33442 0.5625,-2.77387 1.25,-3.19877 0.6875,-0.4249 1.25,-2.33626 1.25,-4.24749 0,-4.88151 5.09647,-10.83049 16.46731,-19.22186 6.46978,-4.77451 9.78269,-8.05519 9.78269,-9.6875 0,-1.39456 0.84165,-2.46815 1.93495,-2.46815 2.69863,0 7.9779,-6.3138 8.02555,-9.59821 0.0574,-3.96035 3.36095,-6.65179 8.1645,-6.65179 17.49073,0 9.84182,13.66293 -20.64373,36.875 -3.61171,2.75 -8.84253,7.39063 -11.62404,10.3125 -2.78151,2.92187 -5.79977,5.3125 -6.70726,5.3125 -0.90749,0 -1.64997,0.78357 -1.64997,1.74126 0,1.63783 -2.53788,3.25874 -5.10224,3.25874 -0.63127,0 -1.14776,-1.0918 -1.14776,-2.42623 z m 157.5,-12.66643 c -48.69619,-4.01473 -73.67064,-20.80061 -100.29031,-67.40734 -16.8762,-29.5475 -6.07618,-95.24589 21.34044,-129.81758 1.82868,-2.30592 5.11652,-6.74151 7.3063,-9.85686 2.18979,-3.11535 5.67947,-7.41619 7.75483,-9.55742 2.07536,-2.14123 3.93996,-4.45564 4.14356,-5.14314 0.2036,-0.6875 0.8289,-1.09709 1.38958,-0.9102 0.56067,0.18689 3.3338,-1.64124 6.1625,-4.0625 2.8287,-2.42127 5.69572,-4.4023 6.37116,-4.4023 0.67544,0 3.8658,-1.69262 7.08969,-3.76139 21.98261,-14.1062 94.91146,-20.57432 124.76882,-11.06584 33.42039,10.64316 52.62478,22.98551 64.51219,41.46093 2.29714,3.57021 5.70385,7.89755 7.57047,9.6163 17.38555,16.00831 14.63852,73.2534 -5.06866,105.625 -0.83707,1.375 -2.19904,4.63445 -3.02659,7.24321 -7.91156,24.94031 -62.53587,75.88179 -81.36771,75.88179 -1.15552,0 -4.10036,0.8354 -6.54407,1.85645 -4.86164,2.03132 -35.12288,5.75222 -44.41893,5.46172 -3.20005,-0.1 -11.16202,-0.62237 -17.69327,-1.16083 z m 37.5,-28.05827 c 5.15625,-0.41593 11.625,-1.4939 14.375,-2.39547 2.75,-0.90159 7.25,-2.25563 10,-3.009 2.75,-0.75336 10.0625,-4.2825 16.25,-7.84254 6.1875,-3.56002 12.88992,-7.39552 14.89428,-8.52331 2.00437,-1.12779 4.25437,-3.07583 5,-4.32898 0.74564,-1.25313 4.6331,-5.43613 8.6388,-9.29555 4.0057,-3.85942 8.2051,-8.57797 9.33202,-10.48567 1.1269,-1.9077 2.72551,-3.46855 3.55246,-3.46855 1.67015,0 6.70744,-7.51699 6.70744,-10.0093 0,-0.87406 1.58583,-4.18266 3.52408,-7.35245 4.11137,-6.72368 11.96417,-25.77959 13.9651,-33.88825 0.76344,-3.09375 2.24657,-7.85419 3.29585,-10.57875 5.44803,-14.14633 2.53362,-39.3215 -4.93142,-42.59846 -1.50074,-0.65878 -2.90301,-2.42259 -3.11616,-3.91956 -0.21315,-1.49698 -2.51674,-5.15323 -5.11909,-8.12501 -2.60235,-2.97177 -5.39454,-6.65703 -6.20488,-8.18947 -1.87976,-3.55481 -15.33668,-12.74536 -18.43627,-12.59123 -2.01763,0.10032 -14.22093,-4.72658 -27.35221,-10.8189 -6.80194,-3.1558 -13.21113,-4.67802 -16.36427,-3.88664 -1.70857,0.42883 -5.33341,0.11248 -8.05518,-0.70298 -4.181,-1.25266 -5.28859,-1.17637 -7.13963,0.49178 -3.25581,2.93411 -6.66521,3.44358 -26.56592,3.9698 -9.96875,0.26359 -21.7406,1.0627 -26.15968,1.7758 -4.41906,0.7131 -8.40977,1.06471 -8.86825,0.78136 -1.44802,-0.89493 -14.26366,4.45834 -16.22207,6.7762 -1.03125,1.22052 -4.61949,4.0259 -7.97387,6.2342 -9.73296,6.40752 -21.83081,17.8553 -23.90463,22.62012 -1.05012,2.4127 -3.54075,7.19924 -5.53478,10.63674 -1.99401,3.4375 -6.05541,11.03125 -9.02531,16.875 -2.9699,5.84375 -6.08908,11.34621 -6.93151,12.22769 -0.84243,0.88147 -1.82845,3.41272 -2.19115,5.625 -4.10364,25.02975 -5.57542,46.92227 -3.25105,48.35881 0.7877,0.48682 2.19061,3.76025 3.1176,7.2743 1.85325,7.02532 3.65108,9.88941 15.42398,24.57151 14.52332,18.11216 27.54775,25.85803 52.83252,31.4204 11.02307,2.42496 29.53553,4.18993 37.4382,3.56933 3.09375,-0.24295 9.84375,-0.78204 15,-1.19797 z m -36.25,-18.31107 c -2.40625,-0.66373 -7.75,-2.12681 -11.875,-3.25131 -29.46054,-8.03107 -36.82928,-45.76089 -14.94783,-76.53669 2.19964,-3.09375 4.9992,-7.59375 6.22125,-10 1.22205,-2.40625 4.38859,-6.48375 7.03674,-9.06111 2.64816,-2.57737 4.81484,-5.77655 4.81484,-7.1093 0,-7.94293 25.09797,-22.56534 38.74573,-22.57379 10.09555,-0.006 28.74017,5.11951 28.76974,7.90935 0.009,0.80291 1.93451,2.70262 4.28001,4.22157 2.3455,1.51896 6.10868,5.45646 8.3626,8.75 2.25393,3.29355 4.80582,6.70949 5.67088,7.59097 2.68327,2.73418 3.38954,10.44258 1.68277,18.36639 -0.89217,4.14201 -2.00982,9.89161 -2.48367,12.77689 -0.9827,5.98377 -2.75078,8.53359 -7.68745,11.08645 -5.80125,2.99994 -25.94833,1.59443 -27.11024,-1.8913 -0.24129,-0.72386 -1.15966,-1.31612 -2.04082,-1.31612 -3.14298,0 -16.24258,-9.98271 -18.39435,-14.01764 -7.78193,-14.59236 14.84716,-21.22726 23.3298,-6.84035 1.7198,2.91685 13.1554,5.02249 15.39548,2.83476 1.95604,-1.91032 0.72688,-16.97677 -1.38501,-16.97677 -0.71039,0 -3.8721,-1.63259 -7.02604,-3.62796 -18.30898,-11.58343 -46.69691,-4.77884 -50.96226,12.21565 -0.42692,1.70102 -2.6597,6.42495 -4.9617,10.49762 -2.30201,4.07266 -4.18547,7.90267 -4.18547,8.5111 0,0.60844 -1.62843,4.63253 -3.61874,8.94243 -9.21731,19.9596 -5.97284,31.99854 9.67667,35.90621 3.19939,0.79889 7.85108,1.98181 10.33709,2.62874 9.62353,2.50426 27.92808,1.46579 34.35,-1.94879 3.23253,-1.71875 6.77793,-3.13991 7.87865,-3.15815 5.23439,-0.0866 18.17649,-5.80714 20.03868,-8.85715 1.07946,-1.76799 3.79077,-5.63785 6.02515,-8.59966 2.23437,-2.96183 4.0625,-6.06235 4.0625,-6.89007 0,-0.82769 1.40747,-3.02361 3.12772,-4.87978 19.55334,-21.0984 17.12145,-70.46307 -4.1099,-83.42629 -2.55356,-1.55911 -5.20532,-3.52077 -5.89282,-4.35924 -2.76834,-3.37621 -32.39034,-7.85477 -36.69947,-5.54861 -1.38115,0.73918 -4.09503,1.35004 -6.03086,1.35748 -9.7113,0.0374 -33.50384,10.91608 -43.32384,19.80912 -4.83891,4.38214 -8.18692,6.43992 -10.52157,6.46685 -3.45921,0.0399 -10.29926,4.96703 -10.29926,7.41891 0,0.73059 -1.59902,2.30444 -3.55337,3.49747 -5.04542,3.07993 -17.64787,17.8234 -18.41555,21.54412 -0.35461,1.71875 -1.14355,5.09375 -1.7532,7.5 -0.60963,2.40625 -1.48896,7.02875 -1.95405,10.27222 -0.98498,6.86921 -3.1851,9.48103 -5.56792,6.60991 -4.75485,-5.72924 11.4476,-60.63213 17.8932,-60.63213 2.21405,0 9.60089,-7.02678 9.60089,-9.1329 0,-5.01436 29.90798,-27.1171 36.69311,-27.1171 0.57527,0 2.53905,-1.06074 4.36392,-2.35719 10.59983,-7.53045 52.322,-9.67742 62.75529,-3.22929 0.48713,0.30106 3.62551,0.7759 6.97419,1.05519 10.27131,0.85666 19.01061,5.69545 25.97125,14.37981 3.37302,4.20832 6.53265,7.65148 7.0214,7.65148 1.62575,0 6.95335,9.29576 8.59681,15 0.89134,3.09375 2.34629,6.46875 3.23321,7.5 8.3379,9.69475 -4.69416,74.28347 -15.5616,77.12536 -1.28858,0.33698 -2.9929,2.38725 -3.78735,4.55616 -3.80858,10.39765 -7.77487,15.7257 -14.02587,18.84143 -1.57265,0.78386 -3.6052,2.9807 -4.51678,4.88185 -1.70691,3.55987 -20.1033,13.3452 -25.08895,13.3452 -1.27783,0 -4.3427,0.84375 -6.81083,1.875 -5.20175,2.17344 -40.83153,2.47797 -48.3178,0.413 z m 229.6047,13.15004 c -0.49412,-0.49412 -4.40419,-0.9414 -8.68904,-0.99398 -4.6222,-0.0567 -9.31579,-0.91708 -11.54066,-2.11548 -2.0625,-1.11094 -8.0674,-4.33936 -13.34422,-7.17424 -5.27681,-2.83489 -10.67477,-5.15434 -11.99546,-5.15434 -2.90457,0 -23.0356,-9.67488 -24.32869,-11.69225 -1.95607,-3.05173 -1.0281,-10.68155 1.46119,-12.01378 5.50625,-2.94685 10.75569,-1.40824 27.58218,8.08432 5.14718,2.90375 16.61622,7.72815 20.625,8.67581 8.2337,1.94642 26.17601,16.28656 25.40258,20.30265 -0.45155,2.34471 -3.63043,3.62372 -5.17288,2.08129 z M 98.436201,574.71234 c 0.629187,-1.88756 2.639299,-2.08209 3.229169,-0.3125 0.28646,0.85938 -0.41667,1.5625 -1.5625,1.5625 -1.145837,0 -1.895837,-0.5625 -1.666669,-1.25 z m -34.273755,-4.48209 c -2.566078,-2.56607 -0.867323,-6.58296 3.127921,-7.39631 12.083168,-2.45986 13.119265,-2.9728 12.504181,-6.19041 -0.473079,-2.47474 0.02876,-3.22026 2.602569,-3.86624 3.934036,-0.98739 6.226347,0.28729 5.501484,3.05916 -0.492,1.88142 0.283368,1.9784 7.703602,0.96368 11.462717,-1.56755 17.428227,-1.46751 23.250667,0.3899 2.75,0.87727 8.26617,1.85525 12.25815,2.17327 7.25815,0.57821 7.25815,0.57821 6.875,4.52613 -0.42591,4.38851 2.07093,4.1396 -34.13315,3.40284 -6.187503,-0.12592 -15.187503,0.43028 -20.000003,1.23601 -13.603709,2.27757 -18.676355,2.71604 -19.690421,1.70197 z M 101.41885,549.8191 c -0.40247,-0.65121 -0.19896,-1.51331 0.45225,-1.91577 0.65121,-0.40248 1.51331,-0.19897 1.91578,0.45225 0.40247,0.65121 0.19896,1.51331 -0.45225,1.91577 -0.65121,0.40248 -1.51331,0.19896 -1.91578,-0.45225 z m 340.55902,-13.38035 c -5.43969,-2.21647 -6.60609,-8.1385 -1.52673,-7.75147 1.9103,0.14556 4.11193,-0.13005 4.89251,-0.61249 4.4095,-2.72521 28.11922,-6.27098 52.30958,-7.82282 15.7305,-1.00914 18.07464,-0.0254 18.07464,7.58537 0,7.41833 -1.83879,8.125 -21.14165,8.125 -9.46719,0 -24.75514,0.27909 -33.97322,0.6202 -9.21807,0.34111 -17.60388,0.2764 -18.63513,-0.14379 z m -280,-14.27039 c 0,-2.30271 3.98713,-7.45602 5.76876,-7.45602 2.48641,0 2.13371,4.2483 -0.55469,6.68126 -2.57547,2.33078 -5.21407,2.72284 -5.21407,0.77476 z m 25.50277,-60.26852 c -4.05777,-4.29688 -8.77865,-8.09834 -10.49082,-8.44771 -1.71218,-0.34936 -3.78868,-2.04485 -4.61444,-3.76776 -0.82578,-1.7229 -3.64365,-4.77736 -6.26195,-6.78768 -7.45002,-5.72008 -17.88556,-18.88435 -17.88556,-22.56235 0,-5.31756 3.63776,-5.41313 7.81561,-0.20532 2.02228,2.52082 4.68114,4.58332 5.90857,4.58332 1.22744,0 4.4817,2.25 7.2317,5 2.75,2.75 5.61922,5 6.37603,5 1.4342,0 6.1432,4.09201 19.6537,17.0786 8.23376,7.91447 10.16161,12.77418 6.51439,16.4214 -3.14779,3.14778 -6.87135,1.49798 -14.24723,-6.3125 z m 107.4089,-22.43617 c -0.68771,-0.89448 -1.95191,-11.37199 -2.80931,-23.28336 -0.91899,-12.7669 -2.31484,-23.46618 -3.40039,-26.06427 -3.67835,-8.80353 1.58849,-17.78915 6.68459,-11.4044 8.73875,10.94851 12.49546,61.23468 4.63197,62.00203 -2.12106,0.20698 -4.41915,-0.35552 -5.10686,-1.25 z m 149.74778,-21.93883 c 1.58688,-2.02344 1.52806,-2.04997 -0.78445,-0.35371 -1.375,1.00858 -2.73438,1.99296 -3.02084,2.1875 -0.28645,0.19454 0.0666,0.35371 0.78445,0.35371 0.7179,0 2.07727,-0.98438 3.02084,-2.1875 z m 4.84055,-3.4375 c 0.85586,-1.03125 1.27486,-1.875 0.93111,-1.875 -0.34375,0 -1.32525,0.84375 -2.18111,1.875 -0.85587,1.03125 -1.27487,1.875 -0.93112,1.875 0.34375,0 1.32525,-0.84375 2.18112,-1.875 z"
       style="fill:#e3e785"
       sodipodi:nodetypes="sssscsssssssssssssssssssssssssssssssssssssssssssssssssssssssssssssssssssssssssssssssssssssssssssssssssssssssssssssssccsccssssssssssssssssssssscssssssssssssssssssssssssssssssscsssssssssssssssssscsssssssssssssssssssccsssssssssssssssssssscssssssssssssssssssssssssssssssssssssssssssssssssssssssssssssscscssscssssssssssscssssssssssssssscscscsssss" />
    <path
       inkscape:connector-curvature="0"
       id="path4383"
       d="m 197.77583,789.08734 c 0.39574,-1.03125 1.80829,-1.875 3.139,-1.875 4.33171,0 29.19606,-24.6034 32.38666,-32.04675 1.24899,-2.91376 4.46925,-7.49613 7.15615,-10.18302 6.95549,-6.95549 12.77023,-15.82183 12.77023,-19.4721 0,-10.41609 13.4214,-16.04589 38.99962,-16.35898 18.21985,-0.22303 25.94611,-0.81457 31.56349,-2.41662 9.03641,-2.57714 23.8209,8.7249 20.61564,15.75966 -1.58952,3.48861 2.69111,14.93636 6.88732,18.41891 1.06366,0.88276 1.93393,2.64926 1.93393,3.92556 0,1.27632 2.96673,5.28557 6.59276,8.90945 3.62601,3.62389 10.17666,10.66702 14.55699,15.65139 5.08722,5.78875 8.91447,9.07254 10.59473,9.0903 1.44679,0.0153 4.03677,1.12778 5.75552,2.4722 4.34213,3.39646 12.12343,3.28954 15.85693,-0.21789 7.21495,-6.7781 2.18692,-17.90106 -16.57168,-36.65965 -17.4678,-17.46781 -20.16808,-23.67416 -22.83077,-52.47481 -1.34998,-14.60181 3.51314,-23.14765 13.17247,-23.14765 2.39833,0 17.79933,-13.2561 22.04368,-18.97368 5.17683,-6.9737 9.99019,-5.24107 26.92705,9.69274 3.17753,2.80173 11.96482,8.12211 19.52732,11.82305 7.5625,3.70095 17.37507,9.7055 21.80571,13.34345 6.16047,5.05828 9.03814,6.61444 12.23147,6.61444 2.29668,0 5.58414,0.9228 7.30548,2.05066 4.61329,3.02274 22.4212,1.45926 26.44604,-2.32187 7.42237,-6.97297 4.24962,-16.99274 -9.28312,-29.31682 -6.66567,-6.07033 -17.21255,-16.12688 -23.4375,-22.3479 -6.69423,-6.69001 -13.6161,-12.35798 -16.94308,-13.87387 -3.09375,-1.40963 -10.40625,-4.87326 -16.25,-7.69699 -5.84375,-2.82372 -12.73438,-5.97365 -15.3125,-6.99985 -5.10247,-2.03096 -5.98553,-4.7994 -2.85225,-8.94195 1.00937,-1.33452 1.85312,-3.94009 1.875,-5.79014 0.0219,-1.85005 0.53173,-3.6678 1.13305,-4.03942 0.60131,-0.37164 1.44642,-3.63921 1.87801,-7.26128 3.87247,-32.4989 3.54349,-31.66715 12.94966,-32.74027 17.52123,-1.99894 33.58233,-4.90625 36.05524,-6.52656 2.78122,-1.82233 21.81594,-5.3836 28.97966,-5.42192 7.4582,-0.0399 11.2642,-10.28147 7.08086,-19.054 -2.08265,-4.36737 -61.51427,-5.87668 -80.83221,-2.0528 -8.46066,1.67475 -9.17044,1.28333 -14.7313,-8.12398 -2.08596,-3.52883 -4.95551,-7.88744 -6.37677,-9.68582 -3.15444,-3.9914 -1.6608,-7.7944 5.8344,-14.85522 5.97298,-5.62683 11.81915,-14.69433 11.81915,-18.33171 0,-5.8208 7.24021,-16.00875 14.61672,-20.56768 5.47083,-3.38116 21.23174,-22.10862 26.49926,-31.48702 6.88289,-12.25441 -3.96723,-24.26234 -13.39985,-14.82973 -1.25612,1.25612 -4.77175,3.505 -7.8125,4.9975 -3.04075,1.4925 -9.46613,6.07737 -14.27863,10.18861 -4.8125,4.11124 -11.74283,9.53716 -15.40072,12.05761 -3.6579,2.52044 -12.93915,10.68752 -20.625,18.14906 -15.98816,15.52152 -14.46567,14.92175 -23.34928,9.19836 -3.73489,-2.40625 -8.09807,-4.375 -9.69597,-4.375 -1.5979,0 -4.46997,-1.15684 -6.38238,-2.57075 -4.28342,-3.16686 -22.06178,-7.86373 -26.44623,-6.98683 -1.76999,0.35399 -3.80796,0.25864 -4.52882,-0.2119 -2.70169,-1.7635 -12.08088,-21.42526 -13.52634,-28.35552 -0.43019,-2.0625 -1.36529,-6 -2.078,-8.75 -0.71271,-2.75 -1.58831,-7.08783 -1.94578,-9.63962 -0.35747,-2.55179 -1.43666,-5.29254 -2.39821,-6.09056 -0.96155,-0.79801 -1.74827,-2.1949 -1.74827,-3.1042 0,-4.41549 -14.00352,-13.27521 -19.9301,-12.60935 -19.41595,2.1814 -19.04718,1.49452 -19.67712,36.65158 -0.56612,31.59557 -0.37311,30.91962 -9.38058,32.85137 -3.47852,0.74601 -7.98494,2.75349 -10.01429,4.46108 -2.55341,2.14855 -5.1959,3.1047 -8.58041,3.1047 -2.68988,0 -7.62479,1.03888 -10.96648,2.30862 -6.06355,2.30396 -6.08687,2.30282 -11.57591,-0.56852 -3.02506,-1.58242 -6.40314,-2.90255 -7.50684,-2.93362 -1.10369,-0.0311 -5.60369,-3.29086 -10,-7.24398 -10.08105,-9.06481 -17.53944,-14.26166 -25.49327,-17.7632 -3.4375,-1.5133 -7.09375,-3.26131 -8.125,-3.88448 -1.03125,-0.62316 -3.5625,-2.04814 -5.625,-3.16662 -2.0625,-1.11848 -5.26036,-3.44589 -7.10634,-5.17201 -11.92095,-11.14689 -31.05804,5.83407 -23.08698,20.48582 1.06611,1.95965 2.49992,4.7858 3.18624,6.28035 0.68632,1.49455 4.70923,5.99455 8.9398,10 4.23057,4.00545 9.28379,9.53264 11.22939,12.28264 1.9456,2.75 6.1818,7.79826 9.41379,11.21835 6.99373,7.40081 7.70173,22.45492 1.3787,29.3152 -6.40133,6.94521 -15.77854,20.53065 -17.17484,24.88241 -0.80896,2.52123 -2.20431,5.42881 -3.10079,6.46133 -0.89648,1.03251 -2.24188,3.48675 -2.98978,5.45386 -1.17721,3.0963 -1.81834,3.46249 -4.7745,2.72695 -6.04726,-1.50465 -42.68475,-2.32256 -44.35653,-0.99024 -0.856989,0.68298 -4.216927,1.62649 -7.466528,2.09668 -3.2496,0.4702 -6.235921,1.38491 -6.636271,2.03268 -0.400349,0.64778 -1.679084,1.18013 -2.841635,1.18302 -1.912762,0.005 -6.295115,2.03663 -17.113729,7.93488 -2.0625,1.12447 -4.422431,2.04794 -5.244293,2.05218 -0.821861,0.004 -2.228111,1.51031 -3.125,3.34682 -0.966673,1.97942 -3.412232,3.94387 -6.005707,4.8242 -3.044494,1.03344 -4.256823,2.13695 -3.986408,3.62862 0.213725,1.17893 -0.227329,2.88567 -0.980121,3.79273 -6.731258,8.11067 24.030155,18.16533 55.575342,18.16533 5.09807,0 12.53103,0.85858 16.5177,1.90794 3.98667,1.04937 10.62349,2.2516 14.74849,2.67162 10.44822,1.06389 10.625,1.31188 10.625,14.90482 0,6.92981 0.76636,14.11023 1.88479,17.65943 1.03663,3.28965 2.45476,7.74147 3.15139,9.89291 1.60183,4.94705 -0.09,9.74367 -4.21692,11.95568 -1.67525,0.89794 -5.05194,4.04745 -7.50376,6.99894 -2.45181,2.95147 -6.87269,7.3399 -9.82417,9.75204 -40.498264,33.09774 -45.888321,75.64556 -6.50709,51.36541 4.80935,-2.96517 9.56474,-5.80427 10.56752,-6.3091 14.63752,-7.36916 24.70181,-14.53333 28.52492,-20.30518 3.69938,-5.58505 13.93635,-15.49451 16.00659,-15.49451 0.59106,0 3.43776,3.02571 6.326,6.72379 5.10545,6.53698 17.16204,15.77621 20.58693,15.77621 6.00255,0 8.7623,6.29119 5.39877,12.30714 -1.02026,1.82482 -3.54179,9.12392 -5.6034,16.22021 -2.06161,7.0963 -5.15386,15.5338 -6.87169,18.75 -10.57075,19.79119 -11.45027,27.83919 -5.04465,46.16015 0.76493,2.18781 5.55267,1.95486 6.42273,-0.3125 z m 0.0354,-17.70834 c -3.26075,-3.26075 1.74635,-13.76463 13.60555,-28.54166 5.0508,-6.29349 8.31029,-11.6216 8.79397,-14.375 1.84902,-10.52597 5.30052,-15.16646 10.97257,-14.75239 9.8201,0.71689 4.12176,20.12 -10.57322,36.00239 -3.49857,3.78125 -7.81097,9.40625 -9.5831,12.5 -5.37488,9.38324 -9.87668,12.50576 -13.21577,9.16666 z m 184.36058,-8.29031 c -2.85665,-3.70275 -5.19391,-7.21165 -5.19391,-7.79755 0,-0.58589 -1.71903,-2.78394 -3.82007,-4.88453 -15.78035,-15.77706 -27.75526,-39.32945 -23.77648,-46.76386 3.01096,-5.62604 11.34655,-1.46512 11.34655,5.6639 0,6.57148 9.3496,20.78965 21.08898,32.07055 7.93983,7.62975 8.70218,9.39414 9.25217,21.41336 0.40117,8.76719 -2.29373,8.85749 -8.89724,0.29813 z m -276.8869,-51.17085 c 0.525,-0.84947 0.80767,-3.24937 0.62815,-5.33311 -0.44295,-5.14128 4.21935,-10.85533 15.68568,-19.22414 10.45371,-7.62975 20.37916,-18.53028 20.37916,-22.38123 0,-3.81843 3.36442,-6.51702 8.125,-6.51702 17.49073,0 9.84182,13.66293 -20.64373,36.875 -3.61171,2.75 -8.84253,7.39063 -11.62404,10.3125 -2.78151,2.92187 -6.08102,5.3125 -7.33226,5.3125 -1.25124,0 -2.27497,0.5625 -2.27497,1.25 0,0.6875 -0.87695,1.25 -1.94877,1.25 -1.2286,0 -1.59602,-0.57077 -0.99422,-1.5445 z M 260.7279,700.86968 c -48.69619,-4.01473 -73.67064,-20.80061 -100.29031,-67.40734 -16.76051,-29.34495 -5.91986,-96.01192 21.03753,-129.375 1.6665,-2.0625 5.29688,-6.98736 8.06748,-10.94415 4.82868,-6.89597 22.70315,-23.43085 25.32911,-23.43085 0.69427,0 3.90005,-1.69262 7.12394,-3.76139 21.98261,-14.1062 94.91146,-20.57432 124.76882,-11.06584 33.42039,10.64316 52.62478,22.98551 64.51219,41.46093 2.29714,3.57021 5.70385,7.89755 7.57047,9.6163 17.38555,16.00831 14.63852,73.2534 -5.06866,105.625 -0.83707,1.375 -2.19904,4.63445 -3.02659,7.24321 -7.91156,24.94031 -62.53587,75.88179 -81.36771,75.88179 -1.15552,0 -4.10036,0.8354 -6.54407,1.85645 -4.86164,2.03132 -35.12288,5.75222 -44.41893,5.46172 -3.20005,-0.1 -11.16202,-0.62237 -17.69327,-1.16083 z m 34.375,-26.17724 c 28.11318,-2.61048 43.43471,-9.50528 67.81633,-30.51788 18.50298,-15.94626 36.81854,-45.67347 42.79713,-69.46222 0.77752,-3.09375 2.2943,-8.00173 3.37064,-10.90661 6.53093,-17.62628 2.71703,-35.8789 -10.91104,-52.21839 -3.4405,-4.125 -7.4396,-9.35611 -8.88691,-11.62469 -2.62354,-4.11226 -12.7586,-11.58933 -21.06115,-15.53773 -10.80849,-5.14013 -18.50132,-8.30386 -23.125,-9.51034 -13.87329,-3.62001 -16.81624,-4.13936 -19.18887,-3.38632 -1.41666,0.44963 -4.84903,0.13641 -7.62751,-0.69604 -4.48807,-1.34466 -5.34736,-1.24749 -7.70071,0.87079 -2.4052,2.16493 -4.38235,2.34735 -21.48638,1.98246 -39.97652,-0.85284 -68.60102,10.64842 -84.01666,33.75769 -1.97907,2.9668 -4.84697,6.80043 -6.3731,8.51918 -3.34351,3.76549 -15.82222,27.17091 -18.66751,35.01327 -8.1634,22.50052 -8.23403,62.54593 -0.13115,74.36173 25.84466,37.68728 44.23302,47.12116 98.31689,50.44009 1.71875,0.1055 9.3125,-0.38278 16.875,-1.08499 z m -30.625,-21.42227 c -19.66184,-5.33437 -21.65403,-6.26185 -28.80055,-13.40838 -15.49079,-15.49079 -16.16449,-36.21725 -1.91708,-58.97866 2.33959,-3.73769 7.81754,-12.63894 12.17321,-19.78055 20.64048,-33.84238 48.47373,-42.43648 77.60479,-23.9621 12.12444,7.68908 18.679,22.85261 15.44441,35.72956 -1.10263,4.3896 -2.00478,9.43514 -2.00478,11.21231 0,18.60606 -45.8126,14.79256 -53.7947,-4.47792 -3.94328,-9.5199 11.33317,-18.42004 17.82188,-10.38314 5.29339,6.55639 6.98637,7.63761 13.26255,8.47017 8.99649,1.19343 9.40303,0.736 8.39928,-9.45051 -2.57805,-26.16306 -41.63261,-30.42937 -57.39455,-6.26977 -2.10494,3.22639 -4.20544,6.14741 -4.66779,6.49116 -1.32356,0.98404 -8.62667,13.72637 -8.62667,15.05167 0,0.65542 -1.59943,4.70878 -3.55428,9.00749 -10.0144,22.0216 -5.91419,37.58016 10.62956,40.33456 2.63984,0.43952 6.43053,1.31823 8.42374,1.9527 8.21106,2.61369 32.1308,1.39434 38.77533,-1.97666 3.38213,-1.71586 7.25116,-3.11976 8.59783,-3.11976 6.52853,0 28.37782,-17.849 28.37782,-23.18224 0,-0.95192 1.54687,-3.57847 3.4375,-5.83676 14.51171,-17.33383 18.13551,-57.68898 6.69337,-74.53828 -14.00837,-20.62825 -52.59737,-27.80093 -81.06837,-15.06851 -14.45274,6.46336 -17.60747,8.2737 -22.8125,13.09093 -3.09375,2.86325 -7.5931,6.2105 -9.99855,7.43832 -6.68592,3.41276 -16.93294,11.62882 -25.29815,20.28404 -10.99037,11.37139 -12.00047,10.34376 -6.3905,-6.50143 6.80742,-20.44082 40.73425,-47.9341 71.6872,-58.09314 28.6966,-9.41848 74.92686,3.25876 87.55325,24.00881 2.18317,3.5878 5.11137,7.76788 6.50712,9.2891 8.15915,8.89252 9.83579,39.08741 3.3055,59.529 -1.30122,4.07321 -2.36587,7.98141 -2.36587,8.68488 0,2.02591 -6.25715,14.78177 -9.94319,20.27028 -1.84689,2.75 -5.23096,7.8125 -7.52018,11.25 -9.88201,14.83891 -31.71891,30.625 -42.36356,30.625 -1.30227,0 -4.38714,0.84375 -6.85527,1.875 -5.15797,2.15514 -35.83959,2.4617 -43.3178,0.43283 z m 227.1047,14.38021 c -0.49412,-0.49412 -4.40419,-0.9414 -8.68904,-0.99398 -4.6222,-0.0567 -9.31579,-0.91708 -11.54066,-2.11548 -2.0625,-1.11094 -8.0674,-4.33936 -13.34422,-7.17424 -5.27681,-2.83489 -10.67477,-5.15434 -11.99546,-5.15434 -2.90457,0 -23.0356,-9.67488 -24.32869,-11.69225 -1.95607,-3.05173 -1.0281,-10.68155 1.46119,-12.01378 5.50625,-2.94685 10.75569,-1.40824 27.58218,8.08432 5.14718,2.90375 16.61622,7.72815 20.625,8.67581 8.2337,1.94642 26.17601,16.28656 25.40258,20.30265 -0.45155,2.34471 -3.63043,3.62372 -5.17288,2.08129 z M 64.162446,570.23025 c -3.779783,-3.77979 -0.877373,-6.57065 9.067959,-8.71946 7.971996,-1.72245 9.726422,-2.49388 8.642387,-3.80006 -1.646005,-1.98332 -0.473245,-4.24839 2.199635,-4.24839 1.320668,0 1.74019,0.79091 1.30409,2.45856 -0.719319,2.75068 3.963554,2.69579 17.539603,-0.20556 6.48305,-1.38551 10.66712,-0.78534 20.05806,2.87717 1.57923,0.6159 5.69299,1.11983 9.1417,1.11983 6.27038,0 6.27038,0 5.87868,4.0625 -0.43547,4.51651 2.10282,4.255 -34.14169,3.51743 -6.187503,-0.12592 -15.187503,0.43028 -20.000003,1.23601 -13.603709,2.27757 -18.676355,2.71604 -19.690421,1.70197 z M 441.66537,534.83568 c -2.24603,-2.72287 -2.91688,-5.32995 -1.25,-4.85778 0.51562,0.14606 2.18191,-0.42487 3.70287,-1.26875 6.19986,-3.4399 27.31036,-6.77482 53.53499,-8.45718 15.7305,-1.00914 18.07464,-0.0254 18.07464,7.58537 0,7.41833 -1.83879,8.125 -21.14165,8.125 -9.46719,0 -24.75514,0.34319 -33.97322,0.76262 -16.03597,0.72969 -16.85465,0.64805 -18.94763,-1.88928 z m -275.9375,-16.29957 c 0,-0.72807 0.5625,-1.32377 1.25,-1.32377 0.6875,0 1.25,0.24805 1.25,0.55122 0,0.30318 -0.5625,0.89888 -1.25,1.32378 -0.6875,0.4249 -1.25,0.17685 -1.25,-0.55123 z m 21.39332,-56.9945 c -4.20382,-4.49391 -7.64332,-8.66 -7.64332,-9.25798 0,-0.59798 -1.125,-0.79305 -2.5,-0.43348 -1.39774,0.36552 -2.5,0.0384 -2.5,-0.74202 0,-2.5285 -0.54368,-3.25047 -3.87497,-5.14579 -8.48907,-4.82982 -22.37503,-20.6958 -22.37503,-25.56554 0,-5.90968 3.41256,-5.19188 10.35812,2.17875 3.58428,3.80363 8.29171,7.79607 10.46095,8.8721 2.16924,1.07602 4.70049,2.67364 5.625,3.55025 0.92451,0.87661 4.21218,3.2301 7.30593,5.22998 8.79507,5.68534 21.25,19.27858 21.25,23.19211 0,9.09296 -6.55908,8.32803 -16.10668,-1.87838 z m 217.60668,6.67073 c -2.55264,-2.55264 -1.80378,-9.57309 1.3125,-12.30436 5.5937,-4.90261 9.25488,-8.61303 20.3125,-20.58567 15.569,-16.85734 24.21147,-23.37803 30.31538,-22.87275 6.41804,0.53127 7.59824,7.86641 2.01457,12.52076 -1.89172,1.57686 -7.97108,7.19548 -13.50972,12.48582 -5.53862,5.29034 -12.3404,11.25348 -15.11505,13.25143 -5.88487,4.23754 -11.83018,10.96492 -11.83018,13.38639 0,4.6929 -9.90409,7.71429 -13.5,4.11838 z M 294.88954,439.46367 c -0.68771,-0.89448 -1.95191,-11.37199 -2.80931,-23.28336 -0.91899,-12.7669 -2.31484,-23.46618 -3.40039,-26.06427 -3.67835,-8.80353 1.58849,-17.78915 6.68459,-11.4044 8.73875,10.94851 12.49546,61.23468 4.63197,62.00203 -2.12106,0.20698 -4.41915,-0.35552 -5.10686,-1.25 z"
       style="fill:#f5d44c"
       sodipodi:nodetypes="cssssssssssssssssssssssssssssssccsssssssssssssssssssssssssssssssssscsssssssssssssssssscscssssssssssssssssssssssscssssssssssssssssssssssssssssssssssssssssssssssssssssssssscsssssssssssssssssssssssssssssssssssssssssssssssssssssssssssssssssssssssssssssssssssssssssssssssssssss" />
    <path
       inkscape:connector-curvature="0"
       id="path4379"
       d="m 283.85287,367.21234 c -189.235247,456.76658 -94.61762,228.38329 0,0 z m -85.625,423.125 c 0.85586,-1.03125 2.87552,-1.875 4.48813,-1.875 1.79779,0 3.5519,-1.14358 4.53444,-2.95619 0.88134,-1.6259 4.97743,-5.7512 9.10243,-9.16734 8.59767,-7.1202 15.74466,-15.44663 18.61658,-21.68882 1.0913,-2.37195 5.22998,-8.03551 9.19705,-12.58569 7.55808,-8.66897 9.6478,-12.05318 10.83229,-17.54234 2.20461,-10.21671 11.37576,-13.67476 37.23601,-14.04015 18.13342,-0.25621 25.94758,-0.86726 31.49097,-2.46252 7.80582,-2.24635 24.2343,8.71085 19.76356,13.18159 -2.34709,2.34708 -1.6898,6.08338 2.26696,12.88646 1.9993,3.4375 4.70535,8.5 6.01346,11.25 2.29297,4.82044 8.349,11.875 10.19418,11.875 0.49232,0 3.56552,3.39897 6.82932,7.55326 7.69169,9.79028 13.23843,14.93374 16.11245,14.94095 1.26657,0.004 3.73305,1.13079 5.48108,2.50579 8.14521,6.40703 20.34109,1.0047 20.34109,-9.01036 0,-7.35113 -5.09307,-14.99603 -19.53023,-29.31571 -17.38831,-17.24682 -20.03171,-23.3078 -22.80935,-52.29893 -1.36215,-14.21723 0.3323,-17.69034 10.30303,-21.11811 5.91807,-2.03454 21.61171,-14.89394 24.82683,-20.34316 3.12035,-5.28862 5.67979,-5.24432 12.20972,0.21127 2.88008,2.40625 5.76991,4.375 6.42181,4.375 0.65191,0 3.83306,2.43295 7.06924,5.40656 3.37826,3.10418 11.7394,8.26447 19.63395,12.1176 7.86582,3.83913 17.12372,9.54932 21.63363,13.34345 6.21385,5.22763 8.80452,6.63239 12.23148,6.63239 2.39131,0 5.75621,0.9228 7.47755,2.05066 11.56576,7.57818 30.53234,-1.15794 30.53234,-14.06337 0,-8.96653 0.65998,-8.09047 -19.16419,-25.43855 -6.6472,-5.81694 -12.08581,-11.00049 -12.08581,-11.519 0,-3.9096 -23.52714,-22.25334 -28.59789,-22.29733 -1.11491,-0.01 -5.98943,-2.17782 -10.83226,-4.81812 -4.84284,-2.6403 -10.88972,-5.48852 -13.4375,-6.32935 -5.04,-1.66335 -5.89322,-4.1901 -2.7971,-8.28353 1.00937,-1.33452 1.85312,-3.86079 1.875,-5.61391 0.0219,-1.75313 0.54771,-3.72188 1.16856,-4.375 0.62084,-0.65313 1.41687,-3.71875 1.76895,-6.8125 3.47082,-30.49828 3.56384,-30.73556 12.47762,-31.8327 18.79545,-2.31343 32.96053,-4.90738 35.35083,-6.47356 2.73996,-1.7953 21.7727,-5.38245 28.76755,-5.42192 8.27694,-0.0467 12.94455,-10.40552 8.77651,-19.47768 -2.78756,-6.06741 -63.0543,-9.02994 -82.93471,-4.07682 -7.16066,1.78405 -8.0601,1.23162 -13.3261,-8.18485 -2.51369,-4.49491 -5.11915,-8.51173 -5.7899,-8.92628 -2.76911,-1.7114 -0.82353,-6.27399 5.77145,-13.53458 7.40181,-8.14887 11.75899,-15.356 11.75899,-19.45036 0,-5.84165 6.54491,-14.17596 17.12173,-21.80285 3.5732,-2.57662 6.84567,-5.78418 7.27215,-7.12791 0.42649,-1.34373 1.85652,-3.02172 3.17783,-3.72887 1.32132,-0.70715 3.33112,-3.09718 4.46621,-5.31118 1.1351,-2.21399 3.37736,-5.59936 4.98281,-7.52305 13.03562,-15.61949 2.98809,-33.93967 -11.79277,-21.50239 -2.04263,1.71875 -4.2739,3.125 -4.9584,3.125 -1.75268,0 -16.00829,10.55748 -23.02851,17.05453 -3.23618,2.99501 -6.44134,5.44547 -7.1226,5.44547 -1.94355,0 -15.76843,11.91378 -26.32927,22.6896 -11.1557,11.38279 -10.05301,11.0638 -18.78918,5.4354 -3.73489,-2.40625 -8.09807,-4.375 -9.69597,-4.375 -1.5979,0 -4.46997,-1.15684 -6.38238,-2.57075 -4.16682,-3.08066 -21.39329,-7.70591 -26.73903,-7.17933 -5.49344,0.54112 -12.17029,-11.24748 -17.133,-30.24992 -0.80796,-3.09375 -1.99341,-7.35244 -2.63432,-9.46375 -0.64092,-2.11131 -1.1653,-5.00702 -1.1653,-6.43491 0,-12.19034 -20.35705,-26.20459 -31.50369,-21.68785 -1.57923,0.63992 -4.27756,1.48441 -5.99631,1.87665 -7.06533,1.61237 -7.80418,4.70276 -8.35044,34.92738 -0.55543,30.73193 -0.4059,30.20708 -9.16583,32.1753 -2.95046,0.66293 -7.00947,2.58949 -9.02001,4.28125 -2.39619,2.01626 -5.19951,3.07593 -8.13726,3.07593 -2.46495,0 -7.49599,0.95016 -11.18006,2.11146 -6.53825,2.061 -6.83297,2.04607 -12.33082,-0.625 -3.09785,-1.50505 -6.37981,-2.73646 -7.29325,-2.73646 -0.91342,0 -5.25775,-3.23438 -9.65406,-7.1875 -10.6063,-9.53711 -17.00429,-13.82297 -30.48574,-20.42163 -6.18335,-3.02652 -13.0838,-7.11948 -15.33432,-9.09548 -13.10772,-11.50872 -33.30169,5.76179 -24.86653,21.26663 1.06611,1.95964 2.49022,4.76028 3.16469,6.22365 0.67446,1.46336 5.34432,6.84243 10.37746,11.95347 25.34667,25.73897 30.96148,39.62748 20.59705,50.94783 -6.9606,7.60259 -14.52245,18.92949 -19.05932,28.54897 -4.52698,9.59851 -5.11652,10.30525 -8.01156,9.60423 -5.89205,-1.42672 -42.45429,-2.18197 -44.06684,-0.91027 -0.856989,0.67584 -3.879688,1.58244 -6.717108,2.01466 -6.103727,0.92979 -22.313248,7.33461 -25.268567,9.98429 -1.139868,1.02199 -4.023217,2.35904 -6.407439,2.97124 -3.088353,0.79298 -4.540644,1.9844 -5.05023,4.14303 -0.522414,2.21298 -2.049905,3.41317 -5.665048,4.45113 -4.072955,1.16941 -4.891795,1.92318 -4.622488,4.25506 0.180006,1.55865 -0.330529,3.62653 -1.134523,4.59528 -0.857759,1.03353 -0.992999,2.15971 -0.327283,2.72537 16.064909,13.6504 25.763743,16.43004 57.328366,16.43004 5.07608,0 12.66034,0.87901 16.85392,1.95335 4.19357,1.07435 11.12963,2.33998 15.41346,2.8125 7.78878,0.85915 7.78878,0.85915 8.51733,15.23415 0.4007,7.90625 1.31313,15.78125 2.02763,17.5 4.23896,10.19699 4.34154,18.75 0.22488,18.75 -3.56297,0 -43.98491,42.99172 -47.280189,50.286 -13.755148,30.44769 0.523116,35.95741 34.924129,13.47659 1.03125,-0.67392 3.67348,-2.03635 5.87164,-3.02764 8.0437,-3.62743 18.90379,-12.00124 22.40783,-17.27784 9.7774,-14.72341 13.67886,-15.95098 22.1288,-6.96275 8.02244,8.53352 15.28249,13.75469 21.13519,15.1997 4.35695,1.07573 5.65374,5.62735 2.96769,10.4164 -1.08417,1.933 -3.65797,9.3206 -5.71958,16.41689 -2.06161,7.0963 -5.15386,15.5338 -6.87169,18.75 -8.9322,16.7234 -11.04863,27.64506 -7.55291,38.97606 1.16596,3.77938 2.33024,7.57472 2.58725,8.43409 0.64985,2.17285 6.16076,1.9588 8.04578,-0.3125 z m 0.43526,-21.29371 c -1.00118,-2.60903 3.90205,-11.65369 11.37557,-20.98378 9.71432,-12.12753 11.93917,-15.89997 11.93917,-20.24389 0,-2.22613 0.80997,-4.71973 1.79996,-5.54135 0.98997,-0.8216 1.97435,-2.7186 2.1875,-4.21555 0.4491,-3.15403 8.39782,-4.86621 8.6509,-1.86342 0.67292,7.98424 -6.28813,22.1707 -16.17095,32.95606 -3.94184,4.30183 -7.97369,9.42218 -8.95965,11.37856 -4.8726,9.66835 -9.10246,12.99572 -10.8225,8.51337 z m 185.1039,-7.68532 c -6.17626,-8.76185 -14.05045,-18.47407 -19.57636,-24.14597 -6.3185,-6.48544 -15.02972,-27.60292 -13.30728,-32.25914 1.91563,-5.17842 9.15889,-0.79416 7.72798,4.67764 -1.31988,5.04721 12.50535,26.00186 22.62763,34.29631 5.70645,4.676 7.53187,8.47565 8.63425,17.97245 0.87555,7.5425 -0.49347,7.42114 -6.10622,-0.54129 z M 107.8112,708.879 c -2.94199,-2.94199 4.53945,-12.73805 16.1537,-21.15137 12.11284,-8.77449 19.26297,-16.58514 19.26297,-21.04247 0,-6.00471 7.69465,-9.09205 11.68126,-4.6869 4.59793,5.08065 -2.39685,13.05766 -30.33004,34.58908 -3.56763,2.75 -7.89102,6.82812 -9.60753,9.0625 -3.00338,3.90949 -5.39945,4.99007 -7.16036,3.22916 z m 156.04167,-9.2243 c -36.22959,-2.99805 -66.2311,-16.4183 -81.57768,-36.49125 -27.24672,-35.63806 -32.08887,-52.97666 -26.09802,-93.45111 2.97953,-20.12991 16.47576,-52.7574 26.36991,-63.75 1.54701,-1.71875 4.5517,-5.71204 6.6771,-8.87396 18.92509,-28.15464 47.59556,-40.92769 98.37869,-43.82893 36.28817,-2.07315 42.3707,-1.71 58.4559,3.49 32.83951,10.6163 50.8093,21.78049 62.1691,38.62413 1.71875,2.54846 5.2814,7.07177 7.91698,10.0518 18.07654,20.43893 17.6947,57.04605 -1.02913,98.66196 -8.27034,18.3818 -11.1015,23.8712 -17.0842,33.125 -14.55488,22.5129 -57.1251,56.12907 -71.2135,56.23474 -1.11917,0.009 -4.03424,0.85066 -6.47795,1.87171 -4.32235,1.80599 -35.26549,5.83285 -41.91893,5.45521 -1.82505,-0.10362 -8.38077,-0.60727 -14.56827,-1.1193 z m 34.4188,-22.90737 c 8.61783,-0.91268 16.87773,-2.30643 18.35532,-3.0972 1.47759,-0.79079 3.70788,-1.43824 4.9562,-1.43878 5.32613,-0.003 26.1518,-11.85393 36.01968,-20.49833 15.85665,-13.89066 19.96666,-18.38812 28.44736,-31.12904 12.42662,-18.66909 18.52059,-31.28732 22.15365,-45.87164 0.77069,-3.09375 2.19606,-7.69504 3.16751,-10.22508 7.24165,-18.86013 3.03805,-37.60876 -12.40139,-55.31187 -4.38408,-5.02686 -8.32878,-10.26685 -8.76601,-11.64443 -1.81744,-5.72626 -31.48759,-21.93214 -46.50886,-25.40321 -3.35075,-0.77428 -8.06755,-1.89816 -10.48178,-2.4975 -2.41423,-0.59934 -5.68991,-0.74965 -7.27927,-0.33402 -1.58936,0.41563 -5.09615,0.0275 -7.79285,-0.86248 -4.41108,-1.45579 -5.16825,-1.37875 -7.54546,0.76771 -2.38543,2.15389 -4.78645,2.39015 -24.69264,2.42978 -22.8174,0.0454 -33.46558,1.29386 -42.05026,4.9301 -18.44934,7.81465 -31.99818,17.05569 -37.86893,25.82865 -1.85959,2.77889 -5.13884,7.11011 -7.2872,9.62494 -24.95337,29.20975 -35.84736,91.94046 -20.01266,115.23871 23.53229,34.62404 43.82425,46.51506 85.16879,49.90863 16.84836,1.38291 17.51938,1.37482 34.4188,-0.41494 z m -33.7938,-25.97716 c -19.28193,-5.23131 -20.75132,-5.93397 -27.74818,-13.26945 -17.60617,-18.45824 -14.88206,-36.01999 11.71904,-75.55027 1.25352,-1.86278 2.27914,-3.9834 2.27914,-4.71247 0,-14.94523 37.648,-31.15274 57.0417,-24.55652 22.97553,7.81448 33.34603,22.40088 28.69301,40.3575 -1.0916,4.21258 -1.98471,9.30812 -1.98471,11.32342 0,15.85392 -44.1788,10.47172 -49.41304,-6.01986 -2.83388,-8.92878 11.52444,-13.28093 16.42817,-4.97955 3.90567,6.61174 20.20608,10.29157 22.94215,5.17918 16.98229,-31.7317 -41.70191,-47.49812 -62.22491,-16.71769 -6.36689,9.54908 -12.73237,20.43179 -12.73237,21.76784 0,0.61235 -1.59943,4.63049 -3.55428,8.9292 -11.88889,26.14355 -6.39849,38.28831 20.13471,44.53807 11.64364,2.7426 33.20999,1.81571 40.19392,-1.72747 3.38213,-1.71586 7.31963,-3.12504 8.75,-3.13149 7.60276,-0.0342 25.58363,-14.88238 30.3456,-25.05853 1.46581,-3.13239 3.52908,-6.41228 4.58505,-7.28865 19.22528,-15.95558 15.44466,-73.03698 -5.76713,-87.07428 -12.94851,-8.56891 -45.71106,-12.70801 -62.18787,-7.85656 -11.77092,3.46584 -28.03647,12.00574 -35.79042,18.79104 -3.77028,3.29929 -7.4512,5.99871 -8.17981,5.99871 -0.7286,0 -3.1771,1.54688 -5.44109,3.4375 -2.264,1.89063 -6.17137,4.84375 -8.68305,6.5625 -2.51168,1.71875 -6.87305,5.51679 -9.69193,8.44008 -6.24735,6.47876 -6.84254,6.12162 -4.03582,-2.42161 8.02604,-24.42998 52.0746,-55.08502 84.94712,-59.11787 11.91773,-1.46209 34.97547,3.01343 51.01778,9.90259 27.06057,11.62077 39.25182,47.39764 28.31523,83.09482 -1.3519,4.41265 -2.45801,8.57713 -2.45801,9.25439 0,2.28756 -6.57018,15.19689 -9.54584,18.75601 -1.62479,1.94337 -2.95416,4.09028 -2.95416,4.7709 0,1.5361 -4.90173,8.1875 -13.08163,17.75112 -6.30654,7.37336 -25.22082,18.31957 -31.65494,18.31957 -1.35197,0 -4.4775,0.84375 -6.94563,1.875 -5.15797,2.15514 -35.83959,2.4617 -43.3178,0.43283 z m 227.04788,14.96401 c -1.25053,-0.69985 -4.05102,-1.00794 -6.2233,-0.68465 -4.86021,0.72332 -13.14562,-1.64944 -18.11452,-5.18762 -2.04654,-1.45726 -4.3123,-2.64957 -5.03501,-2.64957 -0.72272,0 -3.38625,-1.40625 -5.91898,-3.125 -2.53271,-1.71875 -5.96739,-3.125 -7.63259,-3.125 -8.30591,0 -26.62348,-11.28341 -26.62348,-16.39975 0,-7.12724 6.08292,-7.7573 17.5,-1.81263 15.62845,8.13747 26.1326,12.98795 29.93517,13.82314 4.74783,1.0428 16.78191,8.99854 22.36096,14.78283 4.17272,4.32624 4.03389,6.77465 -0.24825,4.37825 z M 65.109422,568.47294 c -1.708486,-2.76439 22.349491,-10.0106 33.235954,-10.0106 1.792684,0 4.983324,-0.60095 7.090294,-1.33545 3.02441,-1.05431 5.10303,-0.8763 9.87403,0.84561 3.32374,1.19958 9.41817,2.50365 13.54317,2.89795 6.4277,0.61439 7.5,1.07433 7.5,3.21689 0,2.80328 -7.11036,3.1744 -27.5,1.43539 -9.157242,-0.78102 -17.013415,-0.0233 -38.914863,3.75356 -2.351075,0.40542 -4.279846,0.0845 -4.828585,-0.80335 z M 444.47787,532.93706 c 0,-2.36908 0.97231,-3.14383 5.3125,-4.23307 2.92187,-0.73328 7.84375,-1.99523 10.9375,-2.80432 5.57291,-1.45745 16.6818,-2.76144 37.82147,-4.43958 14.16911,-1.12479 21.2066,4.5189 13.74103,11.01955 -4.27199,3.71983 -67.8125,4.14844 -67.8125,0.45742 z M 190.95909,462.52484 c -3.34271,-3.26563 -7.34084,-7.77836 -8.88471,-10.0283 -1.54388,-2.24994 -5.05986,-5.2401 -7.8133,-6.6448 -4.56044,-2.32656 -12.10375,-9.26409 -21.46399,-19.74028 -1.98745,-2.2244 -3.24524,-4.78893 -2.85173,-5.81441 0.75957,-1.97939 3.28251,-2.5428 3.28251,-0.73303 0,1.77318 7.61241,8.86706 14.375,13.39582 26.30891,17.6185 37.13142,28.81751 32.41071,33.53821 -2.59353,2.59353 -2.12006,2.80129 -9.05449,-3.97321 z m 215.01878,4.4375 c -2.37745,-2.37745 -1.75022,-7.11107 1.3125,-9.90513 1.54687,-1.41119 11.81731,-11.47129 22.8232,-22.35578 19.26895,-19.05639 24.11456,-22.56174 28.7365,-20.78813 5.05018,1.93793 1.8891,6.51068 -14.6847,21.2425 -21.90617,19.47157 -27.1875,24.7473 -27.1875,27.15863 0,4.68327 -7.70782,7.9401 -11,4.64791 z m -109.9521,-28.7021 c -0.85135,-0.85135 -1.5479,-4.29172 -1.5479,-7.64529 0,-12.48579 -2.62285,-36.74357 -4.65837,-43.0835 -4.14937,-12.92387 2.68108,-12.45383 7.60399,0.52328 8.25036,21.74853 7.21825,58.82149 -1.39772,50.20551 z"
       style="fill:#fccb33"
       sodipodi:nodetypes="ccsssssssssssssscsssssssssssssssscsssccsssssssssssssssssssssssssssssssssssssssssssssssssssssssssssssssssssssssssssssssssssssssssssssssssssssssssscscssscssssssssssssssssssssssssssssssssscsssssssssssssssssssscsssssssssccssssssscsssssssssssssssssssssssssss" />
  </g>
</svg>
