<?xml version="1.0" encoding="UTF-8" standalone="no"?>
<!-- Created with Inkscape (http://www.inkscape.org/) -->

<svg
   xmlns:dc="http://purl.org/dc/elements/1.1/"
   xmlns:cc="http://creativecommons.org/ns#"
   xmlns:rdf="http://www.w3.org/1999/02/22-rdf-syntax-ns#"
   xmlns:svg="http://www.w3.org/2000/svg"
   xmlns="http://www.w3.org/2000/svg"
   xmlns:sodipodi="http://sodipodi.sourceforge.net/DTD/sodipodi-0.dtd"
   xmlns:inkscape="http://www.inkscape.org/namespaces/inkscape"
   width="137.12708mm"
   height="33.640324mm"
   viewBox="0 0 485.88334 119.198"
   id="svg2"
   version="1.1"
   inkscape:version="0.91 r13725"
   sodipodi:docname="lobster_trans.svg">
  <defs
     id="defs4">
    <clipPath
       clipPathUnits="userSpaceOnUse"
       id="clipPath4180">
      <rect
         style="opacity:0.85;fill:#bdfdfc;fill-opacity:1;stroke:#ffffff;stroke-width:2;stroke-linecap:round;stroke-miterlimit:4;stroke-dasharray:none;stroke-opacity:1"
         id="rect4182"
         width="485.88336"
         height="119.198"
         x="101.01527"
         y="368.48892" />
    </clipPath>
  </defs>
  <sodipodi:namedview
     id="base"
     pagecolor="#ffffff"
     bordercolor="#666666"
     borderopacity="1.0"
     inkscape:pageopacity="0.0"
     inkscape:pageshadow="2"
     inkscape:zoom="0.7"
     inkscape:cx="214.65748"
     inkscape:cy="29.077748"
     inkscape:document-units="px"
     inkscape:current-layer="g4149"
     showgrid="false"
     inkscape:window-width="1366"
     inkscape:window-height="705"
     inkscape:window-x="-8"
     inkscape:window-y="-8"
     inkscape:window-maximized="1"
     showguides="false"
     fit-margin-top="0"
     fit-margin-left="0"
     fit-margin-right="0"
     fit-margin-bottom="0" />
  <metadata
     id="metadata7">
    <rdf:RDF>
      <cc:Work
         rdf:about="">
        <dc:format>image/svg+xml</dc:format>
        <dc:type
           rdf:resource="http://purl.org/dc/dcmitype/StillImage" />
        <dc:title></dc:title>
      </cc:Work>
    </rdf:RDF>
  </metadata>
  <g
     inkscape:label="Layer 1"
     inkscape:groupmode="layer"
     id="layer1"
     transform="translate(-101.01527,-368.48892)">
    <g
       id="g4149">
      <path
         style="opacity:1;fill:#ffffff;fill-opacity:1;stroke:#ffffff;stroke-width:1.71869159;stroke-linecap:round;stroke-miterlimit:4;stroke-dasharray:none;stroke-opacity:1"
         d="M -138.71289 -128.08594 L -138.71289 -7.0507812 L 230.94922 -7.0507812 L 500.14062 -7.0507812 L 500.14062 -128.08594 L -138.71289 -128.08594 z M 33.761719 3.8867188 C 26.988979 3.8867188 25.924852 4.0436588 22.794922 5.5117188 C 18.058052 7.7334887 15.057707 10.526742 13.091797 14.544922 C 11.660937 17.469482 11.467086 18.548243 11.666016 22.470703 C 11.982766 28.716443 13.78082 32.079949 22.28125 42.324219 C 26.13193 46.964849 30.008754 52.308599 30.896484 54.199219 C 35.219874 63.406759 30.718392 72.792336 21.664062 73.447266 C 15.123013 73.920406 11.576718 70.667599 11.580078 64.199219 C 11.582078 58.814289 14.119766 55.822964 19.759766 54.552734 L 22.716797 53.886719 L 21.853516 51.833984 C 20.243936 48.005924 13.549474 46.220712 8.5839844 48.294922 C 3.2774844 50.511572 0.28136813 55.262558 -0.16992188 62.173828 C -0.44110188 66.326698 -0.29797625 67.055932 1.5273438 70.763672 C 4.1555037 76.102232 8.1461288 78.973956 15.011719 80.472656 C 18.403139 81.212976 26.803561 80.716815 30.681641 79.546875 C 35.220981 78.177455 41.151719 74.129272 43.730469 70.638672 C 46.807319 66.473852 48.045198 61.972744 47.679688 56.277344 C 47.244137 49.490654 44.490341 44.366336 36.650391 35.753906 C 26.524121 24.629866 24.459044 19.93409 27.083984 14 C 31.286744 4.49896 44.811531 8.4508181 41.582031 18.236328 C 41.174681 19.470588 40.169396 21.279289 39.347656 22.255859 C 37.902976 23.972759 37.890783 24.066676 39.001953 25.072266 C 42.283123 28.041686 47.657156 27.322489 50.197266 23.574219 C 51.482346 21.677909 51.650721 20.796568 51.462891 16.955078 C 51.187321 11.319068 49.405579 8.3963131 44.630859 5.7519531 C 41.414999 3.9709431 40.918409 3.8867188 33.761719 3.8867188 z M 309.69922 4.0742188 C 290.20824 4.1313187 273.38497 16.124278 273.25391 30.054688 C 273.19691 36.114058 275.44692 38.810713 281.2168 39.601562 C 284.18092 40.007833 284.21217 39.994689 283.67773 38.511719 C 283.3802 37.686119 283.13672 34.613384 283.13672 31.683594 C 283.13672 26.924344 283.35413 25.912497 285.18945 22.185547 C 288.65556 15.146977 294.88823 10.7085 303.4375 9.1875 C 315.65743 7.01344 322.36772 12.620342 323.23633 25.732422 C 323.86362 35.201522 320.30975 53.051883 316.16602 61.251953 C 314.36042 64.825063 310.77099 68.936694 308.37109 70.177734 C 306.13764 71.332704 301.59277 71.328855 299.94141 70.171875 C 298.66165 69.275495 298.68297 69.139485 304.56055 41.703125 C 307.80888 26.540015 310.31234 13.978352 310.12305 13.789062 C 309.72714 13.393163 296.87641 14.875109 295.99805 15.417969 C 295.53393 15.704799 291.53283 33.161239 288.4707 48.261719 C 288.19187 49.636719 286.66754 56.743741 285.08203 64.056641 C 283.49651 71.369601 282.19922 77.767981 282.19922 78.275391 C 282.19922 79.035451 283.46805 79.199219 289.40234 79.199219 L 296.60547 79.199219 L 296.97266 77.361328 L 297.33984 75.523438 L 299.74023 77.113281 C 305.20909 80.732401 310.54745 81.351801 315.67773 78.962891 C 321.97085 76.032501 327.52056 69.391258 331.58984 59.923828 C 335.56032 50.686298 336.80326 44.605099 336.84766 34.199219 C 336.89116 23.995079 336.16713 20.628753 332.68945 14.845703 C 328.30494 7.5546631 320.80886 4.0416988 309.69922 4.0742188 z M 468.26562 26.076172 C 467.08942 26.05659 464.96727 26.257344 461.80469 26.683594 L 454.40625 27.681641 L 451.25977 36.408203 C 446.95373 48.346463 443.01118 56.479744 440.75 58.089844 C 438.5383 59.664714 436.60653 63.700673 436.58789 66.783203 C 436.57669 68.635963 436.10601 69.474437 434.03906 71.341797 C 431.52926 73.609267 428.68766 75.269692 428.18164 74.763672 C 428.03731 74.619332 430.09559 64.304577 432.75781 51.841797 C 435.42003 39.379027 437.46238 29.046376 437.29492 28.878906 C 436.90307 28.487056 422.82422 28.477121 422.82422 28.869141 C 422.82422 31.013261 415.52778 62.735426 414.57617 64.728516 C 413.19213 67.627306 410.17518 69.954138 408.15625 69.679688 C 407.48023 69.587787 406.51347 68.773061 406.00781 67.869141 C 405.16031 66.354161 405.39172 64.790231 408.95898 47.869141 C 411.08741 37.773071 412.82761 29.292157 412.82617 29.023438 C 412.82517 28.754707 409.52227 28.614087 405.48633 28.710938 L 398.14648 28.886719 L 397.32617 32.949219 C 394.45196 47.156899 391.97109 58.677846 391.22461 61.285156 C 389.15845 68.501886 384.15848 72.415613 380.8418 69.414062 C 379.09558 67.833762 379.41568 64.944159 383.39648 46.386719 C 385.38743 37.105469 386.89997 29.300779 386.75781 29.042969 C 386.61564 28.785159 383.28245 28.574219 379.34961 28.574219 L 372.19922 28.574219 L 372.19922 30.136719 C 372.19922 31.815869 371.12732 32.264779 370.57227 30.818359 C 369.5144 28.061589 359.17574 27.813908 354.09961 30.423828 C 345.10861 35.046608 337.981 49.061158 337.77734 62.517578 C 337.66333 70.050388 338.77029 73.475851 342.38281 76.775391 C 347.9273 81.839501 359.18943 79.808389 364.14453 72.849609 L 365.54883 70.876953 L 366.38672 73.291016 C 367.52197 76.570106 369.43689 78.456664 372.46289 79.271484 C 377.59573 80.653624 384.12908 78.573941 388.36133 74.212891 L 390.89258 71.605469 L 391.77344 73.712891 C 394.43392 80.080321 403.3562 81.632497 410.48047 76.966797 C 412.38549 75.719197 412.82422 75.617312 412.82422 76.419922 C 412.82422 77.882102 411.64116 79.824219 410.75195 79.824219 C 408.83164 79.824219 401.06892 84.209608 399.17969 86.361328 C 396.69054 89.196308 395.94922 90.996939 395.94922 94.199219 C 395.94922 98.637809 398.13386 101.79981 402.29883 103.38867 C 405.02677 104.42932 412.10316 103.97451 415.06641 102.56836 C 420.37041 100.05144 423.95058 94.253879 425.66016 85.417969 L 426.69531 80.074219 L 429.6543 79.023438 C 431.28187 78.445367 433.90226 76.986763 435.47852 75.783203 L 438.3457 73.595703 L 440.4707 75.722656 C 445.67595 80.927906 456.87679 81.010221 464.48047 75.900391 C 470.0619 72.149521 471.89464 67.725649 471.40039 59.199219 C 471.23102 56.277349 470.74919 47.839849 470.32812 40.449219 C 469.907 33.058599 469.48113 26.713759 469.38281 26.349609 C 469.337 26.179802 468.97135 26.087921 468.26562 26.076172 z M 110.55469 28.537109 L 107.2832 44.648438 C 103.57099 62.930518 102.12802 66.837807 98.337891 68.867188 C 96.521261 69.839887 95.670201 69.968269 94.275391 69.480469 C 92.790861 68.961289 92.483058 68.46863 92.330078 66.375 C 92.230078 65.00638 93.798043 56.079029 95.814453 46.537109 C 97.830863 36.995189 99.340895 29.049879 99.171875 28.880859 C 98.771635 28.480629 84.699219 28.478666 84.699219 28.878906 C 84.699219 31.049016 77.44387 62.712329 76.5 64.662109 C 74.10476 69.610009 69.761292 71.225158 67.882812 67.867188 C 67.035313 66.352208 67.266724 64.788277 70.833984 47.867188 C 72.962414 37.771118 74.702612 29.300779 74.701172 29.042969 C 74.698172 28.471059 70.825968 28.441477 64.611328 28.966797 L 59.960938 29.359375 L 58.568359 35.998047 C 57.803349 39.648997 56.183107 47.277349 54.966797 52.949219 C 52.682267 63.602409 52.19903 70.012519 53.4375 73.261719 C 56.71682 81.865179 69.696552 81.813102 76.289062 73.169922 L 77.998047 70.929688 L 78.794922 73.248047 C 80.244842 77.465587 83.704088 79.809923 88.492188 79.820312 C 91.199758 79.826312 96.415276 78.002014 98.353516 76.371094 C 100.75133 74.353464 100.938 74.408959 100.51562 77.011719 L 100.16016 79.199219 L 107.36133 79.199219 C 114.31255 79.199219 114.5754 79.150319 114.90234 77.792969 C 115.08863 77.019529 116.69969 69.496099 118.48242 61.074219 C 120.26516 52.652349 122.27567 44.670371 122.95117 43.337891 C 124.60958 40.066561 127.02147 37.949219 129.08789 37.949219 C 133.08851 37.949219 133.35196 41.744608 130.30859 55.580078 C 127.97947 66.168488 127.90871 72.340809 130.08594 75.261719 C 133.94578 80.439949 142.49723 81.221903 148.76172 76.970703 L 151.12109 75.369141 L 150.73828 77.285156 L 150.35547 79.199219 L 157.73242 79.199219 L 165.10938 79.199219 L 168.36914 63.730469 C 170.16182 55.222659 172.06313 46.919547 172.59375 45.279297 C 174.43271 39.594677 179.21947 36.309321 181.8418 38.931641 C 183.50994 40.599781 183.34305 43.537129 180.9375 54.824219 C 177.81526 69.474129 177.89792 72.104367 181.61328 76.335938 C 186.27382 81.643998 197.28884 80.435509 202.51953 74.042969 C 203.43384 72.925579 204.29998 72.292969 204.44336 72.636719 C 206.51026 77.591979 210.91649 80.195935 216.29688 79.640625 C 219.78855 79.280265 222.90027 77.966108 225.16797 75.892578 C 226.24959 74.903578 226.57422 74.820203 226.57422 75.533203 C 226.57422 77.209523 225.06233 78.417624 221.57422 79.527344 C 214.30566 81.839794 210.39949 85.011731 209.11133 89.650391 C 208.15891 93.080011 208.28866 94.725297 209.75195 97.748047 C 211.98204 102.35479 215.97095 104.33514 222.125 103.89258 C 224.34379 103.73302 227.31311 103.0246 228.81641 102.29688 C 232.06176 100.72582 235.05765 97.458047 236.74023 93.654297 C 238.10739 90.563597 251.1013 29.950036 250.57812 29.103516 C 250.15562 28.419896 236.75011 28.407064 236.32812 29.089844 C 236.15263 29.373794 234.4575 36.962405 232.56055 45.953125 C 230.6636 54.943835 228.54764 63.402863 227.85938 64.751953 C 225.71605 68.953243 221.80694 71.056939 219.82422 69.074219 C 218.46425 67.714249 219.03309 62.954821 222.51172 46.587891 C 224.40234 37.692501 225.94922 30.000181 225.94922 29.494141 C 225.94922 28.737711 224.67733 28.574219 218.80273 28.574219 C 212.53929 28.574219 211.61776 28.709219 211.33008 29.667969 C 211.14958 30.269529 209.71311 37.089849 208.13867 44.824219 C 204.62508 62.084579 203.93492 64.261524 200.98242 67.365234 C 197.13958 71.404904 192.82422 70.437759 192.82422 65.537109 C 192.82422 64.259579 193.806 59.006501 195.00781 53.863281 C 198.58354 38.560781 197.91482 32.952856 192.15234 29.941406 C 189.88213 28.754996 188.63401 28.532774 185.19141 28.708984 C 181.6696 28.889254 180.53926 29.24817 178.14258 30.9375 C 176.5725 32.04419 175.17494 32.949219 175.03711 32.949219 C 174.89927 32.949219 175.0222 32.126464 175.31055 31.121094 C 175.59888 30.115714 175.67236 29.131344 175.47461 28.933594 C 175.27686 28.735844 171.95508 28.574219 168.09375 28.574219 L 161.07422 28.574219 L 160.07031 33.105469 C 159.51796 35.597659 158.66229 39.746099 158.16992 42.324219 C 156.00304 53.670239 154.0005 61.890193 152.85938 64.126953 C 150.38562 68.975933 145.94942 71.148933 143.3418 68.789062 C 141.71016 67.312453 141.89198 64.957219 144.45508 54.417969 C 148.05573 39.612479 147.62535 33.932572 142.62109 30.201172 C 141.1579 29.110152 139.96926 28.886719 135.64453 28.886719 C 130.76166 28.886719 130.24495 29.015474 127.52148 30.933594 L 124.61328 32.982422 L 124.8125 30.933594 L 125.01172 28.886719 L 117.7832 28.710938 L 110.55469 28.537109 z M 366.21094 34.923828 C 366.61492 34.913756 367.01641 34.956837 367.41406 35.056641 C 370.55833 35.845801 370.602 37.199067 367.9043 50.216797 C 365.18633 63.332357 363.93059 66.538759 360.73828 68.511719 C 357.80749 70.323039 355.70837 70.195209 354.05078 68.105469 C 352.80166 66.530689 352.71215 65.863189 352.98242 60.136719 C 353.59239 47.213159 360.15117 35.074909 366.21094 34.923828 z M 454.51758 41.259766 C 455.19854 41.42353 456.46456 53.145062 456.52539 60.449219 C 456.57249 66.100899 455.52355 69.003612 452.93555 70.388672 C 451.3782 71.222142 447.15607 71.762863 445.94922 71.283203 C 444.13704 70.562973 442.82422 68.989882 442.82422 67.539062 C 442.82422 66.327252 443.14893 66.074219 444.69922 66.074219 C 448.36818 66.074219 450.54544 61.236217 448.0957 58.529297 C 447.20148 57.541187 447.30876 57.07197 449.35938 53 C 450.59185 50.55265 452.11267 47.22022 452.73828 45.59375 C 453.36389 43.96728 454.10616 42.074219 454.38867 41.386719 C 454.42834 41.290176 454.47218 41.248848 454.51758 41.259766 z M 224.39844 81.998047 C 224.69109 82.060404 224.69922 82.419767 224.69922 83.138672 C 224.69922 85.756912 222.82685 90.973992 221.18945 92.919922 C 219.31411 95.148642 217.14094 95.390949 215.32422 93.574219 C 213.83967 92.089669 213.80574 91.676619 214.94531 88.949219 C 215.91543 86.627399 218.88844 84.108974 222.38867 82.646484 C 223.52817 82.170369 224.10578 81.935689 224.39844 81.998047 z M 410.54688 84.955078 C 410.62986 84.962523 410.69421 84.98523 410.73633 85.027344 C 411.39588 85.686904 409.01667 92.295393 407.44922 94.158203 C 405.61132 96.342423 404.10226 96.583411 402.60742 94.931641 C 401.28242 93.467531 401.30774 92.456859 402.72266 90.136719 C 403.75453 88.444691 409.30211 84.843404 410.54688 84.955078 z M -138.71289 135.44922 L -138.71289 266.48242 L 500.14062 266.48242 L 500.14062 135.44922 L 230.94922 135.44922 L -138.71289 135.44922 z "
         transform="translate(101.01527,368.48892)"
         id="rect4161" />
      <path
         style="fill:#e29d5c"
         d="m 329.48727,486.32917 c -1.40705,-0.40372 -3.6595,-2.18766 -6.43923,-5.09989 -5.26903,-5.52015 -4.57765,-4.84205 -8.11549,-7.9596 -1.63281,-1.43884 -2.96875,-2.82325 -2.96875,-3.07646 0,-0.25322 1.33594,0.22713 2.96875,1.06743 2.5955,1.33574 3.59738,1.49603 7.96875,1.2749 5.56077,-0.28129 7.89352,-1.22043 11.17005,-4.49696 4.08019,-4.08019 4.97285,-7.06877 11.67897,-39.10078 3.49037,-16.67187 6.58284,-30.56499 6.87215,-30.87359 0.29925,-0.31921 3.37152,2.26722 7.12647,5.99949 l 6.60044,6.56059 -5.96956,28.3755 c -3.28326,15.60653 -6.35271,29.85215 -6.821,31.65694 -2.99812,11.5546 -13.83424,18.60974 -24.07155,15.67243 z m 186.44982,0.0915 c -2.00717,-0.62214 -8.34829,-5.88277 -8.34829,-6.92579 0,-0.58191 -1.72082,-2.24102 -5.48284,-5.28624 -1.12494,-0.91059 -2.32359,-2.17553 -2.66366,-2.81097 -0.59233,-1.10677 -0.50633,-1.10451 2.04534,0.0537 3.89802,1.76931 10.46941,1.66399 14.54321,-0.23308 5.72405,-2.66556 8.86914,-7.54126 10.85491,-16.82794 l 1.09909,-5.13999 3.91025,-1.96531 c 2.15064,-1.08092 4.54059,-2.55748 5.31101,-3.28125 1.74938,-1.64345 1.69126,-1.64803 3.87923,0.30516 3.15558,2.81697 6.41642,3.97521 11.23377,3.99017 11.13219,0.0346 18.99231,-5.61121 20.19431,-14.50536 0.24482,-1.81137 0.11663,-7.93403 -0.28475,-13.60591 -1.7125,-24.19672 -1.74443,-25.76086 -0.52068,-25.52519 0.61087,0.11764 2.5355,1.94806 4.277,4.0676 1.74143,2.11954 3.48512,3.87708 3.87481,3.90565 0.38969,0.0286 1.66394,1.10945 2.83162,2.40197 l 2.12313,2.35002 0.91837,14.36873 c 1.31388,20.55648 1.22682,26.24592 -0.44918,29.36872 -1.96613,3.66329 -6.23657,7.51056 -10.50744,9.46621 -3.17669,1.4546 -4.61,1.72223 -9.375,1.75047 -6.06801,0.0359 -8.30775,-0.7131 -11.74148,-3.92674 -1.45146,-1.35843 -1.91985,-1.50328 -2.8125,-0.86975 -0.58906,0.41806 -2.47727,1.59039 -4.19602,2.60518 -1.71875,1.01479 -3.49653,2.07109 -3.95061,2.34735 -0.45408,0.27626 -1.36782,2.83317 -2.03054,5.68204 -0.66271,2.84886 -1.78773,6.32213 -2.50004,7.71838 -1.85119,3.62862 -5.86571,7.76297 -9.0213,9.29057 -3.10602,1.50359 -10.20055,2.16496 -13.21172,1.23162 z M 128.38236,463.27902 c -4.40808,-0.87001 -8.11779,-2.8542 -11.73848,-6.2785 -1.89418,-1.79144 -3.31581,-3.38532 -3.15918,-3.54195 0.15664,-0.15663 -0.61368,-1.0065 -1.71181,-1.88859 -3.12697,-2.51181 -7.30909,-6.59233 -7.30909,-7.13152 0,-0.26901 1.33594,0.32779 2.96875,1.32621 4.85889,2.97107 9.48301,4.00091 16.36571,3.64487 3.96553,-0.20514 7.13048,-0.75536 9.40128,-1.63439 13.82636,-5.35223 19.6712,-18.74467 13.69536,-31.38058 -2.17004,-4.58854 -4.08918,-7.1358 -11.01915,-14.62563 -6.08508,-6.57668 -8.28695,-10.525 -8.28695,-14.85988 0,-6.99814 5.8918,-11.55778 11.49736,-8.89777 3.9317,1.86572 4.5865,7.74245 1.35126,12.12755 -1.74716,2.36816 -1.5259,3.48127 0.94608,4.75959 8.36705,4.32677 14.94839,-6.17336 9.97711,-15.91787 -0.71347,-1.39852 -1.09742,-2.54275 -0.85322,-2.54275 0.99702,0 15.00148,14.83771 15.76928,16.70752 1.24095,3.02209 0.55594,4.09587 -2.43122,3.81099 -2.27488,-0.21694 -2.54406,-0.0786 -3.21724,1.65362 -0.40406,1.0397 -0.82294,2.60216 -0.93084,3.47213 -0.48556,3.91491 -1.27915,6.47518 -2.184,7.04594 -1.65608,1.04464 -4.17159,-0.0764 -7.11648,-3.17135 -1.54714,-1.62599 -3.81415,-4.01104 -5.0378,-5.3001 -2.9192,-3.07526 -4.31098,-3.12717 -3.82667,-0.14275 0.60253,3.71294 3.054,7.87832 7.34001,12.47166 6.32164,6.77492 6.80189,7.53652 6.43168,10.19955 -0.17704,1.27341 -0.49196,2.73717 -0.69984,3.25279 -0.7046,1.74768 -1.75099,11.96469 -1.25667,12.27019 0.27016,0.16697 0.4912,0.94852 0.4912,1.73677 0,2.05995 2.45766,5.36496 4.99025,6.71078 2.65776,1.41234 8.50366,1.54218 11.57909,0.25718 1.18482,-0.49505 3.5385,-2.19493 5.23042,-3.77753 l 3.07622,-2.87743 1.47161,2.68377 c 2.10172,3.8329 4.694,5.01414 10.30509,4.69581 3.39487,-0.1926 5.14474,-0.65157 7.30018,-1.91474 l 2.83499,-1.66142 0.19982,1.40706 c 0.19459,1.37014 0.39661,1.40706 7.69983,1.40706 l 7.5,0 3.51281,-16.43726 c 1.93205,-9.04049 4.00686,-17.53286 4.6107,-18.87194 2.04201,-4.52837 5.59303,-6.59926 7.70113,-4.49116 1.81165,1.81165 1.6071,5.78258 -0.88476,17.17567 -2.71598,12.4178 -2.78029,13.7551 -0.84886,17.65351 1.17445,2.3705 2.18758,3.42577 4.32266,4.50243 3.71385,1.87279 8.97522,1.89209 13.2604,0.0487 2.90534,-1.24984 3.20223,-1.27465 3.74067,-0.3125 0.49335,0.88157 1.70085,1.04509 7.71722,1.04509 l 7.13235,0 0.60416,-2.34375 c 0.33229,-1.28906 1.92864,-8.67187 3.54746,-16.40625 3.14638,-15.03276 4.3433,-18.4828 7.26518,-20.9414 2.21706,-1.86554 3.24265,-1.94732 4.80667,-0.38331 1.72657,1.72657 1.54566,5.20754 -0.84688,16.29528 -3.17709,14.72366 -3.14428,14.19981 -1.13517,18.12251 2.41255,4.71039 4.22285,5.87438 9.60954,6.17875 5.34859,0.30223 8.82011,-0.86194 11.82971,-3.96706 1.162,-1.19887 2.45648,-2.17977 2.87664,-2.17977 0.42016,0 1.39224,1.01665 2.16019,2.25921 1.60081,2.59017 4.42979,3.99079 8.0606,3.99079 3.04386,0 3.24514,0.92328 0.48883,2.24218 -2.57766,1.23342 -5.25087,4.94114 -6.01524,8.34308 -0.32588,1.45039 -0.75192,2.79649 -0.94677,2.99133 -0.74921,0.74921 -6.44792,0.89609 -8.92178,0.22995 -2.4779,-0.66726 -8.95996,-5.73103 -8.95996,-6.99953 0,-0.58131 -1.7235,-2.24361 -5.46746,-5.2733 -2.32692,-1.88299 -2.11425,-2.18695 -3.65078,5.21787 -0.77289,3.72463 -1.44128,5.44442 -2.36834,6.09375 -1.73149,1.21278 -14.01197,1.27942 -15.64558,0.0849 -0.93787,-0.68578 -1.64687,-0.63804 -4.33821,0.29209 -7.54037,2.60598 -14.71507,0.19035 -18.83937,-6.34298 -0.80218,-1.27072 -2.88434,-3.33476 -4.62702,-4.58675 -3.62084,-2.60132 -3.06815,-3.16406 -4.68308,4.76819 -1.30407,6.40538 -1.72664,6.6892 -9.95907,6.6892 -5.51195,0 -7.11168,-0.20499 -8.02088,-1.02781 -1.0566,-0.95621 -1.42017,-0.93443 -5.21859,0.3125 -6.85641,2.2508 -10.42843,1.61061 -15.23312,-2.73014 l -2.56454,-2.31691 -2.20042,1.93199 c -4.44318,3.90117 -9.47592,5.23618 -14.56485,3.86356 -2.60986,-0.70395 -6.61179,-4.11857 -9.80619,-8.36707 -2.19593,-2.92054 -3.16933,-2.74676 -7.40682,1.32228 -2.13409,2.04926 -5.38186,4.48689 -7.21726,5.41696 -5.88705,2.9832 -14.0094,4.09581 -20.51986,2.81085 z m 375.58144,-0.0912 c -1.40478,-1.40478 -0.82272,-3.72132 1.48094,-5.89394 2.10932,-1.98935 4.93902,-3.26943 5.65175,-2.55671 0.51327,0.51328 -0.87006,4.93914 -2.24085,7.1694 -1.31302,2.13628 -3.47148,2.70161 -4.89184,1.28125 z m -186.86093,-0.84794 c -2.79438,-1.95726 -1.49249,-5.71106 3.14607,-9.07122 4.69148,-3.39848 5.732,-2.2796 3.86203,4.15287 -0.66863,2.30002 -1.53905,3.76323 -2.75273,4.62745 -2.1335,1.51918 -2.46901,1.54212 -4.25537,0.2909 z m 101.73593,0.38848 c -0.85938,-0.26235 -2.72445,-1.07062 -4.14461,-1.79615 -2.56238,-1.30907 -2.59059,-1.30979 -3.69062,-0.0943 -0.97595,1.0784 -1.95037,1.22488 -8.14851,1.22488 l -7.04,0 -4.11314,-4.50664 c -2.26221,-2.47865 -4.11312,-4.72865 -4.11312,-5 0,-0.27135 -0.37285,-0.49336 -0.82856,-0.49336 -1.19243,0 -3.7542,-2.9082 -3.26253,-3.70373 0.25508,-0.41274 3.07101,-0.67127 7.31149,-0.67127 6.371,0 6.92154,-0.0953 7.22351,-1.25 0.41581,-1.59009 0.41705,-1.58992 4.80041,0.63292 11.65984,5.91279 23.85402,-2.32448 31.11215,-21.01648 5.88615,-15.15873 6.2369,-30.43664 0.94214,-41.03727 -1.41249,-2.82792 -2.67925,-5.42292 -2.81505,-5.76667 -0.1358,-0.34375 3.38436,3.03125 7.82259,7.5 5.16629,5.20182 8.5866,9.19818 9.50678,11.10791 1.36214,2.82697 1.38309,3.0656 0.40076,4.56484 -0.57009,0.87006 -1.44201,1.73753 -1.93761,1.92771 -0.49559,0.19018 -0.90108,0.67348 -0.90108,1.07401 0,0.40052 -0.7941,1.70637 -1.76467,2.90188 -2.25217,2.77414 -4.74964,9.08086 -5.95012,15.02549 -1.33725,6.62191 -1.42264,9.08858 -0.47965,13.85724 1.76936,8.94765 9.14738,13.11515 18.34183,10.36042 1.36395,-0.40865 3.82852,-1.95553 5.47684,-3.4375 1.64831,-1.48198 3.23686,-2.69233 3.5301,-2.68969 0.29324,0.002 1.18791,1.15117 1.98816,2.55226 1.95786,3.4279 4.72877,4.55771 10.21521,4.16515 4.47589,-0.32025 8.25067,-2.05547 11.09499,-5.10024 0.83337,-0.89209 1.71005,-1.62198 1.9482,-1.62198 0.23815,0 1.19214,1.14714 2.11998,2.5492 2.06097,3.11432 4.75399,4.3258 9.61597,4.3258 2.72181,0 4.44037,-0.40589 6.61565,-1.5625 3.45092,-1.83487 3.49751,-1.84318 3.49751,-0.62343 0,0.57869 -2.37042,2.03927 -6.17676,3.80594 -6.04868,2.80743 -6.22572,2.95062 -8.53868,6.9056 -2.6973,4.61216 -3.52474,5.19758 -7.99897,5.65937 -3.9402,0.40666 -6.7634,-0.65181 -10.32792,-3.87214 l -2.55536,-2.30862 -2.58652,2.21397 c -2.75092,2.35467 -7.12438,4.15681 -10.08787,4.15681 -0.98966,0 -3.10923,-0.32982 -4.71013,-0.73293 -2.78147,-0.70038 -6.16448,-3.49647 -11.21234,-9.26707 -0.75174,-0.85937 -2.26116,-2.24676 -3.35427,-3.08308 l -1.98747,-1.52057 -1.30522,1.83307 c -0.71788,1.0082 -3.0019,3.62928 -5.07561,5.82464 -5.91751,6.26464 -12.57192,8.7834 -18.45788,6.98648 z m -93.75,-16.56615 c 0,-0.15159 0.28125,-0.44944 0.625,-0.66189 0.34375,-0.21245 0.625,-0.0884 0.625,0.27561 0,0.36404 -0.28125,0.66189 -0.625,0.66189 -0.34375,0 -0.625,-0.12403 -0.625,-0.27561 z m 204.76611,-3.97219 c -0.30148,-0.48781 8.78477,-43.88642 9.29526,-44.3969 0.6371,-0.6371 2.30309,0.70982 5.10372,4.12626 1.66233,2.02783 3.58491,3.94436 4.27241,4.25895 0.69853,0.31964 1.33555,1.31269 1.44392,2.25091 0.21105,1.8272 -3.83659,11.88209 -5.25809,13.06184 -0.48033,0.39864 -0.87333,1.21842 -0.87333,1.82174 0,0.60332 -0.4686,1.48294 -1.04133,1.95472 -0.57273,0.47178 -2.13646,2.24029 -3.47495,3.93003 -2.16998,2.73942 -2.38978,3.33173 -2.02896,5.46738 0.31217,1.84776 0.18334,2.48004 -0.56377,2.76673 -0.53262,0.20439 -1.12095,0.83782 -1.3074,1.40763 -0.18645,0.5698 -1.31822,1.66882 -2.51503,2.44226 -2.4188,1.56314 -2.61224,1.62071 -3.05245,0.90845 z m -412.04513,-1.10696 c -3.82045,-1.64357 -5.82265,-5.9296 -4.94799,-10.59196 0.56776,-3.02641 4.09133,-6.43686 7.15683,-6.92705 3.64658,-0.58311 4.20517,-1.09664 3.31589,-3.04838 -1.60555,-3.5238 -0.47825,-2.91839 4.62655,2.48465 l 5.31451,5.625 -0.25611,3.01531 c -0.58936,6.93872 -8.95591,12.13282 -15.20968,9.44243 z m 284.37423,-2.14246 c -0.73827,-0.2971 -1.50221,-0.79892 -1.69766,-1.11517 -0.19545,-0.31624 2.29258,-12.92189 5.52895,-28.01254 3.26422,-15.22053 5.64609,-27.67617 5.3493,-27.97343 -0.47466,-0.4754 -2.76674,-0.2132 -12.2133,1.39713 -2.21738,0.37799 -2.59609,0.70667 -3.35004,2.90745 -0.46752,1.3647 -0.93865,3.32503 -1.04694,4.35628 -0.28636,2.72683 -3.99318,19.73026 -4.4692,20.50047 -0.22221,0.35956 -0.46203,1.37842 -0.53291,2.26414 -0.43837,5.47769 -1.69402,6.65122 -4.0637,3.79789 -2.4204,-2.91442 -4.15961,-4.65352 -7.16221,-7.16175 -2.8018,-2.3405 -2.63899,-3.3358 0.37386,-2.28551 1.1001,0.38349 2.95532,0.69726 4.12273,0.69726 l 2.12255,0 -0.49707,-2.34375 c -0.83331,-3.92914 -0.36483,-9.62729 1.1177,-13.59484 1.03417,-2.76763 2.39672,-4.74479 5.20554,-7.5536 4.89048,-4.89049 9.03011,-6.59178 16.92969,-6.95771 4.96628,-0.23005 5.95069,-0.0909 8.40614,1.18842 2.60428,1.35684 4.54745,3.79091 6.2819,7.86893 0.33217,0.78097 0.77955,4.43722 0.99418,8.125 0.34664,5.95559 0.17657,7.75295 -1.52146,16.08005 -1.05145,5.15625 -2.48392,11.22341 -3.18327,13.48258 -1.40507,4.53893 -5.67297,11.6376 -7.38247,12.27907 -0.60226,0.22599 -1.38898,0.80243 -1.74827,1.28097 -0.77854,1.03697 -5.66656,1.53627 -7.56404,0.77266 z m 142.95015,-1.02457 c -1.74178,-2.21432 -1.65289,-2.52202 0.86506,-2.99439 2.34809,-0.44051 4.71458,-2.88899 4.71458,-4.87793 0,-0.67403 -0.43809,-1.97205 -0.97354,-2.88446 -0.93489,-1.59307 -0.84607,-1.92867 2.23708,-8.4531 1.77538,-3.75699 3.44657,-6.55091 3.73844,-6.25 0.47874,0.49357 0.90862,4.70026 1.69586,16.59517 0.46291,6.99433 -2.26583,10.5115 -8.15516,10.5115 -2.30959,0 -3.06402,-0.30138 -4.12232,-1.64679 z M 481.60893,437.016 c -1.15132,-1.27219 -1.13418,-1.48875 0.90278,-11.40625 4.02966,-19.61952 6.03588,-28.23443 6.57518,-28.23443 0.2999,0 2.20025,1.85659 4.22301,4.12577 l 3.67773,4.12576 -2.52637,12.12424 c -3.06497,14.70898 -3.38325,15.72843 -5.75337,18.42784 -2.24656,2.55869 -5.22327,2.90969 -7.09896,0.83707 z m -312.39076,-0.3168 c -0.73704,-1.92069 -0.35425,-4.49606 3.18455,-21.42534 2.20353,-10.54148 3.88362,-17.21998 4.3799,-17.41042 0.77363,-0.29687 2.57079,1.42476 5.72514,5.48452 l 1.48146,1.9067 -2.65166,12.62283 c -2.78362,13.25095 -3.89411,16.35069 -6.62811,18.50125 -1.97643,1.55466 -4.95106,1.72825 -5.49128,0.32046 z m 24.74563,0.23862 c -0.4125,-0.4125 -0.74803,-1.32656 -0.74563,-2.03125 0.006,-1.58806 7.36911,-36.5084 7.8692,-37.31756 0.46927,-0.7593 1.42222,0.0537 5.2726,4.49825 l 3.11445,3.59506 -2.86825,13.3465 c -2.83171,13.1765 -4.12727,16.75486 -6.53215,18.04191 -1.5932,0.85265 -5.20318,0.77413 -6.11022,-0.13291 z m 50.61596,-0.009 c -1.223,-1.223 -0.84914,-5.60509 1.17174,-13.73436 2.47656,-9.96233 2.97507,-16.22156 1.61081,-20.22543 -0.56092,-1.64623 -0.8963,-3.11671 -0.74529,-3.26772 0.15102,-0.15102 1.48614,1.06497 2.96693,2.7022 1.48079,1.63723 4.02829,4.28641 5.6611,5.88707 3.09605,3.03509 3.46714,4.25055 2.37844,7.79041 -0.32468,1.05565 -1.06318,4.45062 -1.64113,7.54437 -1.15027,6.15741 -2.77789,10.51408 -4.68727,12.54653 -1.39561,1.48555 -5.52163,1.95063 -6.71533,0.75693 z m 49.90603,-0.44987 c -0.95087,-1.77671 -0.84772,-2.61061 1.55134,-12.54109 2.94469,-12.18902 3.31447,-16.83177 1.68007,-21.09375 -0.69207,-1.80469 -1.07356,-3.28125 -0.84776,-3.28125 0.2258,0 3.03855,2.70353 6.25057,6.00785 4.97391,5.11685 5.7958,6.25231 5.5419,7.65625 -3.56694,19.72288 -5.69557,24.46092 -10.98938,24.46092 -1.87132,0 -2.71003,-0.31817 -3.18674,-1.20891 z m 26.28851,0.072 c -1.02248,-1.91051 -0.96572,-2.32139 2.78556,-20.16492 4.07315,-19.37458 3.89618,-18.69811 4.89163,-18.69811 0.8974,0 4.13731,3.21273 4.13731,4.10261 0,0.32819 0.5625,0.94799 1.25,1.37734 0.6875,0.42936 1.25,1.45033 1.25,2.26884 0,2.86297 -5.06791,25.08757 -6.30949,27.66939 -1.55135,3.22598 -2.36981,3.92251 -5.13674,4.37152 -1.77451,0.28797 -2.31098,0.11465 -2.86827,-0.92665 z m 134.56762,-0.18386 c -0.99887,-1.10809 -1.18091,-2.24049 -1.13035,-7.03125 0.0957,-9.06298 4.09098,-19.60699 8.9921,-23.731 2.12254,-1.786 5.44096,-2.23611 6.76013,-0.91694 1.02773,1.02773 0.94047,4.55238 -0.21403,8.64505 -0.53021,1.8796 -1.08995,4.2612 -1.24386,5.29245 -0.70957,4.75427 -2.44757,12.05131 -3.27496,13.75 -2.35942,4.84406 -7.31687,6.84512 -9.88903,3.99169 z m 52.37188,0.57083 c -1.26566,-1.26566 -0.83663,-4.56062 2.87269,-22.0625 2.58131,-12.17952 3.81588,-16.875 4.43688,-16.875 0.47324,0 2.26064,1.60364 3.972,3.56364 l 3.11157,3.56365 -2.60382,12.28557 c -1.43211,6.75706 -3.04215,13.38103 -3.57787,14.71993 -1.70785,4.26834 -6.14913,6.86703 -8.21145,4.80471 z M 226.45778,398.46906 c 0.26563,-1.37928 1.37719,-1.34925 1.64559,0.0444 0.12314,0.6394 -0.19995,1.04931 -0.82707,1.04931 -0.64373,0 -0.95027,-0.40962 -0.81852,-1.09375 z m 50.50602,0.20833 c 0,-0.54427 0.44531,-0.98958 0.98958,-0.98958 0.54428,0 0.87826,0.33398 0.74219,0.74219 -0.3863,1.15889 -1.73177,1.3511 -1.73177,0.24739 z"
         id="path4157"
         inkscape:connector-curvature="0" />
      <path
         style="fill:#59a5d4"
         d="m 329.66306,486.37472 c -1.93871,-0.56103 -8.94926,-6.411 -8.94926,-7.46773 0,-0.29172 1.05015,-0.0916 2.33367,0.44467 3.35048,1.39993 12.0813,0.89979 15.538,-0.89008 3.23757,-1.67639 6.28909,-5.13516 8.10154,-9.18275 0.81626,-1.82288 4.09556,-15.94406 7.77168,-33.46602 3.49777,-16.67187 6.42392,-30.37692 6.50257,-30.45565 0.0787,-0.0787 1.32572,1.06196 2.77127,2.53487 l 2.62828,2.67802 -5.97528,28.40263 c -3.28639,15.62144 -6.35842,29.87927 -6.82671,31.68406 -2.9735,11.45968 -13.86168,18.62164 -23.89576,15.71798 z m 186.24063,0.0372 c -2.14908,-0.6643 -8.87733,-6.47339 -8.24532,-7.11891 0.21014,-0.21463 1.14251,-0.10113 2.07194,0.25224 2.4628,0.93636 9.65185,0.78562 13.2138,-0.27706 6.42618,-1.9172 10.56986,-7.7489 12.54113,-17.65002 l 1.02177,-5.13207 5.15626,-2.55429 5.15627,-2.55429 2.33369,1.58368 c 3.12952,2.12375 5.99648,2.84388 11.33851,2.84805 9.37381,0.007 16.69143,-4.00568 19.58981,-10.74311 1.57481,-3.66086 1.57369,-4.40121 -0.0462,-29.72697 -0.42344,-6.61983 -0.56288,-12.24315 -0.30975,-12.49626 0.25312,-0.2531 1.50381,0.66313 2.77937,2.03607 l 2.31919,2.49626 0.91369,14.375 c 1.30856,20.58613 1.221,26.25451 -0.45381,29.375 -1.96613,3.66329 -6.23657,7.51056 -10.50744,9.46621 -3.17669,1.4546 -4.61,1.72223 -9.375,1.75047 -6.06801,0.0359 -8.30775,-0.7131 -11.74148,-3.92674 -1.45146,-1.35843 -1.91985,-1.50328 -2.8125,-0.86975 -0.58906,0.41806 -2.47727,1.59039 -4.19602,2.60518 -1.71875,1.01479 -3.49653,2.07109 -3.95061,2.34735 -0.45408,0.27626 -1.36782,2.83317 -2.03054,5.68204 -0.66271,2.84887 -1.78773,6.32213 -2.50004,7.71838 -1.85119,3.62862 -5.86571,7.76297 -9.0213,9.29057 -3.11834,1.50956 -10.20201,2.16362 -13.24512,1.22297 z M 319.27259,475.8728 c -2.11775,-0.44482 -7.30879,-4.51231 -7.30879,-5.72688 0,-0.22723 1.33594,0.27438 2.96875,1.11468 2.5955,1.33574 3.59738,1.49603 7.96875,1.2749 5.56077,-0.28129 7.89352,-1.22043 11.17005,-4.49696 4.08019,-4.08019 4.97285,-7.06877 11.67897,-39.10078 3.49037,-16.67187 6.60222,-30.58438 6.91522,-30.91667 0.35775,-0.37979 1.39963,0.22637 2.8055,1.63224 1.85643,1.85643 2.12324,2.43694 1.57035,3.41667 -0.36633,0.64914 -3.47043,14.58911 -6.898,30.97771 -3.74767,17.91911 -6.74625,30.80557 -7.5221,32.32638 -1.84687,3.62015 -4.83076,6.81035 -7.7747,8.31223 -2.82115,1.43925 -11.29659,2.08494 -15.574,1.18648 z m 186.27137,-0.0358 c -2.3208,-0.44986 -5.01743,-2.43705 -6.14496,-4.52831 -0.51755,-0.95991 -0.30879,-0.94567 2.08864,0.14253 3.89802,1.7693 10.46941,1.66398 14.54321,-0.23309 5.72405,-2.66555 8.86914,-7.54126 10.85491,-16.82793 l 1.09909,-5.14 3.91025,-1.96531 c 2.15064,-1.08092 4.54059,-2.55748 5.31101,-3.28125 1.74938,-1.64345 1.69126,-1.64802 3.87923,0.30516 3.15558,2.81697 6.41642,3.97521 11.23377,3.99018 11.13219,0.0346 18.99231,-5.61122 20.19431,-14.50536 0.24482,-1.81138 0.11663,-7.93404 -0.28475,-13.60592 -1.6045,-22.6707 -1.69087,-25.625 -0.74912,-25.625 0.48144,0 1.63594,0.79383 2.56544,1.76407 1.64106,1.71288 1.69737,2.01665 1.94068,10.46875 0.13788,4.78758 0.59013,12.47237 1.00513,17.07731 1.20619,13.38542 0.26919,18.46046 -4.1885,22.68579 -6.32781,5.99797 -21.27006,7.40211 -27.5843,2.59215 l -2.05831,-1.56795 -5.18216,2.56712 -5.18216,2.56712 -1.08708,5.14158 c -2.80129,13.24937 -8.60527,18.70146 -19.70168,18.50719 -2.25792,-0.0395 -5.16612,-0.2775 -6.46265,-0.52883 z m -377.1616,-12.55808 c -4.40808,-0.87001 -8.11779,-2.8542 -11.73848,-6.2785 -1.89418,-1.79144 -3.32747,-3.37365 -3.18509,-3.51604 0.14238,-0.14238 1.34082,0.2886 2.66319,0.95772 3.37142,1.70596 8.21106,2.62061 13.86627,2.62061 5.82552,0 10.92724,-1.24296 15.8322,-3.85727 3.43106,-1.82874 8.11761,-6.12802 8.75085,-8.02772 0.2117,-0.63511 0.89858,-0.38796 2.66391,0.95852 1.90092,1.44991 3.16706,1.86449 6.3043,2.06425 5.18646,0.33025 7.7409,-0.60527 11.81183,-4.32587 l 3.3792,-3.08839 1.46373,2.66949 c 2.09322,3.81752 4.69297,4.99947 10.29721,4.68153 3.39487,-0.1926 5.14474,-0.65157 7.30018,-1.91474 l 2.83499,-1.66142 0.19982,1.40706 c 0.19459,1.37014 0.39661,1.40706 7.69983,1.40706 l 7.5,0 3.49371,-16.34778 c 1.92153,-8.99127 3.85886,-17.22934 4.30516,-18.30682 1.82887,-4.41529 5.1546,-6.92042 7.51222,-5.65865 2.21752,1.18678 2.14503,2.98942 -0.22574,5.61358 -2.67966,2.96607 -3.18509,4.61876 -6.98023,22.82467 -1.64811,7.90625 -3.26636,14.72656 -3.59612,15.15625 -0.76887,1.00187 -16.12191,1.10584 -17.11188,0.11588 -0.4705,-0.4705 -1.60433,-0.35826 -3.87131,0.38323 -2.1943,0.71772 -4.58766,0.97054 -7.58463,0.8012 -5.19374,-0.29348 -5.76517,0.57324 -1.68136,2.55018 3.30527,1.60006 9.10819,1.7389 13.29315,0.31807 2.08359,-0.70739 3.10077,-0.79607 3.58434,-0.3125 0.99826,0.99826 16.33629,0.90345 17.15822,-0.10606 0.34985,-0.42969 1.10807,-3.17187 1.68493,-6.09375 0.57687,-2.92187 1.33856,-6.43508 1.69266,-7.80713 l 0.64382,-2.49463 1.13847,2.99918 c 1.45931,3.84442 2.23851,4.74772 5.29459,6.1379 3.49616,1.59037 8.96861,1.50869 12.92408,-0.19291 2.90534,-1.24984 3.20223,-1.27465 3.74067,-0.3125 0.49335,0.88156 1.70085,1.04509 7.71722,1.04509 l 7.13235,0 0.60416,-2.34375 c 0.33229,-1.28906 1.92864,-8.67188 3.54746,-16.40625 3.14638,-15.03276 4.3433,-18.4828 7.26518,-20.9414 2.24068,-1.88541 3.24131,-1.94867 4.88138,-0.3086 1.5515,1.5515 1.59647,2.89559 0.12327,3.68403 -2.63913,1.41242 -4.39737,6.47734 -7.6283,21.97473 -1.75193,8.40331 -3.45468,15.93095 -3.78389,16.72808 -0.59247,1.43462 -0.70801,1.44969 -11.37357,1.48361 -5.92625,0.0189 -13.49896,0.0467 -16.82824,0.062 -5.63414,0.0258 -6.20632,-0.089 -8.26455,-1.65894 l -2.21133,-1.68665 -0.33166,1.42532 c -0.18241,0.78393 -0.72087,3.33706 -1.19657,5.67362 -1.30407,6.40538 -1.72664,6.6892 -9.95907,6.6892 -5.51195,0 -7.11168,-0.20499 -8.02088,-1.02781 -1.0566,-0.95621 -1.42017,-0.93443 -5.21859,0.3125 -6.85641,2.2508 -10.42843,1.61061 -15.23312,-2.73014 l -2.56454,-2.31691 -2.20042,1.93199 c -6.73277,5.91146 -14.35946,5.93142 -20.45765,0.0536 -1.75944,-1.69587 -3.05377,-3.22862 -2.87628,-3.40611 0.17748,-0.17748 1.22013,-0.01 2.31701,0.37253 1.09687,0.38237 4.05269,0.59128 6.56847,0.46423 3.75892,-0.18982 5.11955,-0.56818 7.6344,-2.123 3.505,-2.16696 3.93607,-3.21433 2.19592,-5.33541 -1.04804,-1.27746 -1.41024,-1.39003 -2.37,-0.73659 -6.09289,4.14822 -6.35998,4.22868 -14.03756,4.22868 l -7.27964,0 -3.69157,3.52113 c -2.03037,1.93662 -5.18641,4.27862 -7.01343,5.20444 -5.87214,2.97564 -14.00053,4.08685 -20.50465,2.80314 z m 375.58144,-0.0912 c -1.40478,-1.40478 -0.82272,-3.72132 1.48094,-5.89394 2.10932,-1.98935 4.93902,-3.26943 5.65175,-2.55671 0.51327,0.51328 -0.87006,4.93914 -2.24085,7.1694 -1.31302,2.13628 -3.47148,2.70161 -4.89184,1.28125 z m -186.86093,-0.84794 c -2.79438,-1.95726 -1.49249,-5.71106 3.14607,-9.07122 3.12857,-2.26632 4.83986,-2.39418 4.83986,-0.3616 0,1.94955 -1.22976,5.40576 -1.92344,5.40576 -0.30314,0 -1.12509,1.125 -1.82656,2.5 -1.39388,2.73222 -2.13426,2.99912 -4.23593,1.52706 z m 101.73593,0.38848 c -0.85938,-0.26235 -2.72445,-1.07062 -4.14461,-1.79615 -2.56238,-1.30907 -2.59059,-1.30979 -3.69062,-0.0943 -0.97447,1.07677 -1.94981,1.22488 -8.06638,1.22488 l -6.95788,0 -2.94525,-2.99022 c -1.6199,-1.64462 -2.94526,-3.19149 -2.94526,-3.4375 0,-0.246 3.39349,-0.44728 7.54109,-0.44728 4.22153,0 8.09832,-0.29822 8.80695,-0.67747 0.98664,-0.52804 1.93367,-0.39017 4.29352,0.625 3.71419,1.5978 9.76406,1.72726 13.95679,0.29866 3.61429,-1.23151 8.86924,-5.91721 12.15601,-10.83918 l 2.42982,-3.6387 2.6077,3.02737 c 2.81818,3.27169 5.24358,4.31977 10.01061,4.32583 4.24362,0.006 7.42789,-1.23804 10.69674,-4.17701 1.64831,-1.48198 3.23686,-2.69233 3.5301,-2.68969 0.29324,0.002 1.18791,1.15117 1.98816,2.55226 1.95786,3.4279 4.72877,4.55771 10.21521,4.16515 4.47589,-0.32025 8.25067,-2.05547 11.09499,-5.10024 0.83337,-0.89209 1.71005,-1.62198 1.9482,-1.62198 0.23815,0 1.19214,1.14714 2.11998,2.5492 2.06097,3.11432 4.75399,4.3258 9.61597,4.3258 2.72181,0 4.44037,-0.40589 6.61565,-1.5625 3.45217,-1.83554 3.49751,-1.84357 3.49751,-0.61976 0,1.14597 -10.25524,6.03492 -11.58706,5.52385 -0.55163,-0.21168 -0.91294,0.0223 -0.91294,0.59129 0,0.51789 -1.08229,2.72766 -2.40508,4.91061 -2.59651,4.28493 -4.47329,5.42836 -9.02125,5.49623 -3.14088,0.0469 -6.0094,-1.22026 -9.116,-4.02688 l -2.55536,-2.30862 -2.58652,2.21397 c -6.55652,5.61213 -14.5326,5.47267 -20.92083,-0.36581 -1.86723,-1.70654 -3.39496,-3.32294 -3.39496,-3.59199 0,-0.26905 1.19531,-0.0725 2.65625,0.43678 4.11167,1.43332 11.44062,0.82587 14.96657,-1.24047 4.25322,-2.49255 4.58647,-3.12684 2.75178,-5.23743 -1.32332,-1.52231 -1.71364,-1.66945 -2.68048,-1.01045 -6.21908,4.23895 -9.3725,5.04252 -16.70625,4.25714 -3.13226,-0.33544 -4.60983,-0.83983 -6.07721,-2.07454 l -1.93874,-1.63135 -1.30933,1.83872 c -0.72013,1.01129 -3.006,3.63491 -5.07971,5.83027 -5.91751,6.26464 -12.57192,8.7834 -18.45788,6.98648 z m 75.05534,-9.21246 c 3.76486,-2.12235 4.4582,-3.69335 2.43721,-5.52232 -1.15801,-1.04799 -1.47386,-1.08527 -2.68376,-0.31676 -5.99329,3.80684 -6.8297,4.0735 -12.77679,4.0735 -3.17928,0 -5.78084,0.16735 -5.78125,0.37188 -10e-4,0.62549 2.12407,2.33742 3.7621,3.03033 0.85231,0.36053 3.82455,0.56877 6.60499,0.46274 4.27067,-0.16286 5.5803,-0.48871 8.4375,-2.09937 z m -245.56047,8.38227 c -2.0529,-0.65733 -8.76378,-6.39978 -8.17136,-6.99219 0.1701,-0.1701 1.4018,-0.008 2.73709,0.36107 1.40039,0.38667 4.42719,0.50819 7.15236,0.28716 2.5985,-0.21075 9.13051,-0.35359 14.5156,-0.31742 8.91791,0.0599 9.84383,-0.0369 10.38288,-1.08535 0.3255,-0.63311 1.23845,-4.31518 2.02878,-8.18237 0.79034,-3.86719 1.60242,-7.01848 1.80462,-7.00288 0.20222,0.0156 1.07078,1.4791 1.93016,3.25221 2.17716,4.49204 4.05893,5.68788 9.42778,5.99125 5.34859,0.30223 8.82011,-0.86194 11.82971,-3.96706 1.162,-1.19888 2.45648,-2.17977 2.87664,-2.17977 0.42016,0 1.39224,1.01664 2.16019,2.25921 1.60081,2.59017 4.42979,3.99079 8.0606,3.99079 3.04386,0 3.24514,0.92327 0.48883,2.24218 -2.57766,1.23342 -5.25087,4.94114 -6.01524,8.34308 -0.32588,1.45039 -0.75192,2.79649 -0.94677,2.99133 -0.75362,0.75362 -6.45479,0.89424 -8.95543,0.22089 -2.57835,-0.69428 -9.64182,-6.38965 -8.88492,-7.16404 0.19465,-0.19913 1.31779,-0.0856 2.49588,0.25225 1.17809,0.33787 3.99184,0.61431 6.25278,0.61431 3.25378,0 4.81089,-0.35832 7.46883,-1.71875 4.22094,-2.16042 5.04153,-3.37401 3.46173,-5.11966 -1.50485,-1.66285 -2.297,-1.62121 -5.07942,0.26698 -2.9429,1.99711 -5.97143,2.82038 -10.26619,2.79072 -5.08994,-0.0351 -8.62736,-0.88618 -10.32926,-2.48504 -1.76052,-1.65392 -1.62793,-1.88514 -3.16398,5.51736 -0.77289,3.72463 -1.44128,5.44442 -2.36834,6.09375 -1.73149,1.21278 -14.01197,1.27942 -15.64558,0.0849 -0.93787,-0.68578 -1.64687,-0.63804 -4.33821,0.29209 -3.56578,1.23235 -7.75897,1.37187 -10.90976,0.36301 z M 116.9638,452.25193 c -1.89063,-0.53823 -3.97296,-1.00187 -4.62743,-1.0303 -1.22591,-0.0532 -7.87257,-5.72323 -7.87257,-6.71576 0,-0.30608 1.33594,0.26038 2.96875,1.2588 4.85889,2.97107 9.48301,4.00091 16.36571,3.64487 3.96553,-0.20514 7.13048,-0.75536 9.40128,-1.63439 13.82636,-5.35223 19.6712,-18.74467 13.69536,-31.38058 -2.17004,-4.58854 -4.08918,-7.1358 -11.01915,-14.62563 -6.17961,-6.67884 -8.28695,-10.50573 -8.28695,-15.04892 0,-7.49824 8.10536,-12.32458 13.0155,-7.75008 1.67701,1.56237 1.75069,2.45315 0.1687,2.03944 -1.77156,-0.46327 -5.67481,1.63278 -6.95226,3.73338 -0.61627,1.01337 -1.30176,2.80877 -1.52332,3.98978 -0.51488,2.74453 1.02402,8.04551 3.05335,10.51777 l 1.53908,1.875 -0.36044,-4.46288 c -0.44963,-5.56719 -0.0639,-7.13019 2.35725,-9.55133 3.72882,-3.72882 4.74753,-1.70097 1.5067,2.99923 -1.6873,2.44712 -1.46584,3.51806 0.99014,4.7881 8.36705,4.32676 14.94839,-6.17336 9.97711,-15.91787 -0.71347,-1.39852 -1.05105,-2.54275 -0.75017,-2.54275 0.30087,0 1.93875,1.47656 3.63972,3.28125 l 3.09268,3.28125 0.14246,5.3125 c 0.16713,6.23282 -0.99684,8.85397 -4.60038,10.35962 -2.22826,0.93103 -8.8909,1.02218 -9.4428,0.12919 -0.16615,-0.26885 -0.74417,-0.48881 -1.28448,-0.48881 -0.77483,0 -0.90693,0.46503 -0.62522,2.201 0.61114,3.76604 3.07034,7.86447 7.69629,12.82648 5.05679,5.42414 6.86534,7.93512 6.18395,8.58577 -0.25875,0.24709 -0.78904,-0.0834 -1.17841,-0.73447 -0.38938,-0.65105 -1.36548,-1.91667 -2.16913,-2.8125 -1.60248,-1.78629 -1.64279,-2.04752 0.66491,4.30872 1.75099,4.82287 1.16765,13.40573 -1.18408,17.42163 -3.74783,6.39991 -9.35818,10.40663 -17.14032,12.24101 -5.10662,1.20371 -13.02469,1.15899 -17.44183,-0.0985 z m 290.01137,-0.8307 c -2.08066,-0.96714 -3.1405,-1.14741 -4.12054,-0.70088 -0.72567,0.33064 -4.88173,0.68732 -9.23569,0.79263 -7.36108,0.17804 -8.00888,0.0989 -9.23656,-1.12881 -2.2011,-2.2011 -1.02065,-2.69636 6.42682,-2.69636 6.371,0 6.92154,-0.0953 7.22351,-1.25 0.41581,-1.59009 0.41705,-1.58992 4.80041,0.63292 7.14131,3.62141 14.45058,2.11266 20.87145,-4.30821 8.00899,-8.009 13.7877,-22.7661 14.83619,-37.88721 0.54427,-7.84946 -0.73664,-14.47757 -4.0022,-20.70956 -1.39676,-2.66556 -2.46109,-4.92495 -2.36517,-5.02086 0.0959,-0.0959 1.83099,1.49968 3.85573,3.54577 3.77971,3.81957 3.99617,4.27836 6.31708,13.38888 1.46381,5.74607 0.91426,15.12177 -1.21973,20.8092 -0.93141,2.48238 -2.06421,7.00751 -2.51733,10.05585 -1.07053,7.20197 -4.16198,13.17425 -9.77034,18.87503 -5.19894,5.28462 -7.67033,6.46397 -14.0625,6.71067 -4.03389,0.15568 -5.54124,-0.0586 -7.80113,-1.10906 z M 325.0888,446.1622 c 0,-0.15159 0.28125,-0.44944 0.625,-0.66189 0.34375,-0.21245 0.625,-0.0884 0.625,0.27561 0,0.36404 -0.28125,0.66189 -0.625,0.66189 -0.34375,0 -0.625,-0.12403 -0.625,-0.27561 z m 204.76356,-3.97632 c -0.17062,-0.27606 1.46656,-8.78388 3.63818,-18.90625 2.1716,-10.12238 4.28329,-20.02151 4.69263,-21.99807 0.42027,-2.02938 1.07969,-3.59375 1.51484,-3.59375 0.42382,0 1.7135,0.97285 2.86596,2.16189 1.63935,1.69138 1.94077,2.3482 1.38495,3.01792 -0.71473,0.8612 -2.39211,8.06421 -5.77995,24.82019 -2.22429,11.00114 -2.53973,11.81392 -5.27584,13.59375 -2.40472,1.56428 -2.59747,1.62159 -3.04077,0.90432 z M 121.3388,439.9224 c 0,-4.45587 2.47716,-7.41007 7.64094,-9.11237 2.48046,-0.81771 3.24753,-1.35423 3.09851,-2.1672 -0.12825,-0.69967 0.0623,-0.9196 0.54046,-0.62403 1.09055,0.67399 0.37773,6.32534 -1.03639,8.21678 -1.71918,2.29947 -5.86956,5.12103 -8.21227,5.58296 -1.99581,0.39353 -2.03125,0.36046 -2.03125,-1.89614 z m -6.48208,-1.00299 c -4.50391,-5.3526 -1.49943,-14.29018 5.1619,-15.35537 3.74316,-0.59856 4.16433,-1.03649 3.21079,-3.33855 -0.44487,-1.07402 -0.68374,-2.07789 -0.5308,-2.23082 0.15293,-0.15293 1.62593,1.0904 3.27333,2.76295 3.68354,3.73978 3.55752,5.20051 -0.53765,6.23168 -5.40123,1.36005 -8.13578,5.1229 -7.75173,10.66671 0.25731,3.71435 -0.48444,4.04598 -2.82584,1.2634 z m 287.32729,0.0301 c -0.73827,-0.30197 -1.50221,-0.80779 -1.69766,-1.12403 -0.19545,-0.31624 2.29258,-12.92189 5.52895,-28.01255 3.26422,-15.22052 5.64609,-27.67616 5.3493,-27.97342 -0.47426,-0.475 -2.79051,-0.21023 -12.189,1.39337 -2.27478,0.38813 -2.56384,0.66878 -3.56181,3.45817 -0.59736,1.66967 -1.63008,3.63168 -2.29494,4.36004 -3.73141,4.08777 -5.17178,11.52916 -3.76463,19.44928 0.20545,1.15641 -0.12234,1.25051 -4.37791,1.25681 -4.27131,0.006 -4.76255,-0.13435 -6.875,-1.96882 -2.5949,-2.25342 -2.33522,-3.19558 0.59885,-2.17275 1.1001,0.38347 2.95532,0.69724 4.12273,0.69724 l 2.12255,0 -0.49707,-2.34375 c -0.83331,-3.92914 -0.36483,-9.62729 1.1177,-13.59484 1.92851,-5.16106 7.5488,-10.79759 12.76023,-12.79708 7.52467,-2.88702 17.44256,-2.28089 20.64879,1.26196 1.41967,1.56872 0.93153,2.06217 -1.2278,1.2412 -2.10487,-0.80027 -5.35849,-0.83843 -5.35849,-0.0629 0,1.48289 3.37974,3.17036 6.34976,3.17036 3.82519,0 4.10591,0.59575 4.64496,9.85745 0.34664,5.95559 0.17657,7.75295 -1.52146,16.08005 -2.52555,12.38519 -3.9578,16.82119 -6.90164,21.37588 -2.50526,3.87612 -3.6094,4.98218 -4.29205,4.29953 -0.21299,-0.213 1.82716,-10.78413 4.53368,-23.49142 l 4.92093,-23.10415 -1.48381,-1.57945 c -0.9324,-0.99249 -1.70346,-1.3598 -2.07487,-0.98839 -0.32508,0.32508 -3.04474,12.07099 -6.0437,26.10203 -3.89921,18.24298 -5.70074,25.54633 -6.32348,25.63506 -0.47895,0.0683 -1.47485,-0.12297 -2.21311,-0.42495 z m 142.95015,-1.03343 c -1.74178,-2.21432 -1.65289,-2.52202 0.86506,-2.99439 2.34809,-0.44051 4.71458,-2.88899 4.71458,-4.87793 0,-0.67404 -0.43809,-1.97205 -0.97354,-2.88446 -0.9347,-1.59276 -0.84647,-1.92782 2.21182,-8.39954 1.75194,-3.70733 3.41323,-6.59977 3.69175,-6.42764 0.27852,0.17214 0.68028,2.56776 0.89279,5.32361 0.35189,4.56325 0.24261,5.29691 -1.22396,8.21678 -1.3366,2.66111 -1.4925,3.4648 -0.91711,4.72767 1.68696,3.70245 0.0983,7.71269 -3.05531,7.71269 -0.99147,0 -1.97649,0.28125 -2.18894,0.625 -0.71071,1.14995 -2.70857,0.64179 -4.01714,-1.02179 z m -63.38599,-0.74619 c -0.56891,-0.62863 -1.03437,-1.6057 -1.03437,-2.17127 0,-1.70369 7.58286,-36.96154 8.05778,-37.46609 0.24219,-0.2573 1.52624,0.64423 2.85343,2.0034 1.84911,1.89366 2.25264,2.66453 1.72661,3.29835 -0.37755,0.45493 -2.32083,8.62227 -4.31839,18.14965 -3.35618,16.00731 -3.73134,17.32275 -4.94131,17.32571 -0.72016,0.002 -1.77485,-0.51112 -2.34375,-1.13975 z m -312.51709,-0.43701 c -0.75133,-1.95794 -0.38104,-4.46334 3.17164,-21.45899 2.20353,-10.54148 3.88362,-17.21998 4.3799,-17.41042 1.19571,-0.45883 4.71165,3.54652 4.18341,4.76572 -0.57351,1.32368 -2.32298,9.09093 -5.2218,23.18366 l -2.37836,11.5625 -1.87125,0.1899 c -1.28045,0.12994 -1.99511,-0.13286 -2.26354,-0.83237 z m 24.73272,0.20497 c -0.4125,-0.4125 -0.74803,-1.32656 -0.74563,-2.03125 0.007,-1.99523 7.48038,-36.8285 8.01673,-37.36485 0.26237,-0.26237 1.52311,0.59425 2.80165,1.90359 2.23522,2.28907 2.29099,2.45128 1.45028,4.21782 -0.48089,1.01045 -2.37606,9.07938 -4.21151,17.93094 -3.32182,16.01975 -3.34458,16.09375 -4.94935,16.09375 -0.88669,0 -1.94967,-0.3375 -2.36217,-0.75 z m 50.625,0 c -1.23196,-1.23196 -0.86279,-5.59557 1.1627,-13.7434 2.47656,-9.96233 2.97507,-16.22157 1.61081,-20.22543 -0.56092,-1.64623 -0.89784,-3.11517 -0.7487,-3.26431 0.14913,-0.14914 1.52085,1.01468 3.04825,2.58626 2.53801,2.61143 2.81473,3.20883 3.21423,6.93938 0.492,4.59416 0.52104,4.39276 -2.63927,18.30125 -2.07116,9.11518 -2.44048,10.15625 -3.60287,10.15625 -0.71233,0 -1.63265,-0.3375 -2.04515,-0.75 z m 49.89699,-0.45891 c -0.95087,-1.77672 -0.84772,-2.61061 1.55134,-12.54109 2.94469,-12.18902 3.31447,-16.83177 1.68007,-21.09375 -0.69207,-1.80469 -1.06382,-3.28125 -0.82611,-3.28125 0.23771,0 1.75757,1.3456 3.37745,2.99022 l 2.94526,2.99022 -0.004,5.91603 c -0.004,4.59534 -0.49092,7.93913 -2.18312,14.97853 -1.19819,4.98438 -2.18055,9.55469 -2.18302,10.15625 -0.007,1.58521 -3.49684,1.49297 -4.35749,-0.11516 z m 26.27005,0.0374 c -0.36687,-0.68549 -0.66704,-1.78037 -0.66704,-2.43306 0,-1.08404 6.51746,-32.7613 7.26317,-35.30172 0.46355,-1.57916 1.63307,-1.34936 3.60437,0.70822 1.61351,1.68415 1.67953,1.96001 1.00971,4.21875 -0.39418,1.32923 -2.18866,9.44803 -3.98774,18.04178 -3.2323,15.43993 -3.2905,15.62729 -4.91324,15.81871 -1.13244,0.13358 -1.84926,-0.19319 -2.30923,-1.05267 z m 134.58608,-0.14936 c -0.99887,-1.10809 -1.18091,-2.24049 -1.13035,-7.03125 0.12877,-12.19835 6.8786,-25.39792 12.98769,-25.39792 4.04556,0 4.63756,2.62939 1.13625,5.04677 -4.50787,3.11233 -8.71924,13.47497 -9.31549,22.92198 -0.30791,4.87871 -0.53056,5.78125 -1.42618,5.78125 -0.58372,0 -1.59708,-0.59436 -2.25192,-1.32081 z m 52.37188,0.57083 c -0.4125,-0.4125 -0.75323,-1.60781 -0.75716,-2.65625 -0.01,-2.58394 6.87918,-35.5011 7.58856,-36.26042 0.35364,-0.37854 1.40181,0.23321 2.80668,1.63808 1.81773,1.81774 2.12527,2.4646 1.62438,3.41667 -0.33984,0.64593 -2.08885,8.3463 -3.88671,17.11192 -1.79786,8.76563 -3.36843,16.28906 -3.49018,16.71875 -0.28203,0.99544 -2.90032,1.0165 -3.88557,0.0312 z m -45.125,-2.58753 c 0,-3.40331 4.66634,-16.94246 5.63333,-16.34482 0.66496,0.41097 -2.04197,12.63216 -3.3559,15.1511 -1.08165,2.07365 -2.27743,2.70042 -2.27743,1.19372 z m 81.59601,-13.3455 c 0.13621,-0.62121 0.84943,-4.08259 1.58493,-7.69197 1.46759,-7.20202 1.90473,-8.10066 3.35507,-6.89698 1.47653,1.22541 1.1712,3.38536 -1.28768,9.10906 -2.14284,4.98803 -4.2317,8.12213 -3.65232,5.47989 z m -158.26909,-3.47322 c -2.2218,-2.46801 -2.41821,-3.16028 -0.74894,-2.63975 4.14146,1.29142 4.38023,1.47269 3.67518,2.79009 -0.85981,1.60657 -1.3681,1.58046 -2.92624,-0.15034 z m -129.14295,-3.38821 c -0.20285,-1.31617 -0.56826,-3.09616 -0.81201,-3.95554 -0.44159,-1.55681 -0.43829,-1.55816 0.90492,-0.37188 1.38908,1.22679 1.80824,4.3034 0.80245,5.88992 -0.35777,0.56435 -0.64473,0.0636 -0.89536,-1.5625 z m 50.51799,-0.20554 c -0.25967,-1.54687 -0.7306,-3.30469 -1.04653,-3.90625 -0.75566,-1.43887 0.24199,-1.4074 1.5602,0.0492 1.09389,1.20874 1.27228,3.3453 0.45248,5.41954 -0.39578,1.00138 -0.58794,0.69061 -0.96615,-1.5625 z m -155.37035,-6.40625 c -1.45232,-1.11719 -3.05484,-2.66328 -3.56117,-3.43577 l -0.9206,-1.40451 3.66883,0.35657 c 2.91235,0.28305 4.14706,0.10585 5.98821,-0.85943 1.27566,-0.66881 2.42944,-1.10595 2.56397,-0.97143 0.39819,0.3982 -0.94878,6.71509 -1.61302,7.56457 -1.04712,1.33914 -3.37892,0.86336 -6.12622,-1.25 z m 294.45258,-7.09484 c -0.45392,-2.28365 -1.58818,-5.6645 -2.52058,-7.513 -0.93241,-1.8485 -1.49335,-3.36091 -1.24655,-3.36091 0.95634,0 5.41739,5.46134 6.80846,8.3351 1.45704,3.01003 1.45808,3.02937 0.24952,4.6481 -0.66748,0.89402 -1.49528,1.71938 -1.83957,1.83414 -0.34429,0.11477 -0.99736,-1.65978 -1.45128,-3.94343 z m -219.91521,-1.96766 c 0.26563,-1.37928 1.37719,-1.34925 1.64559,0.0444 0.12314,0.6394 -0.19995,1.04931 -0.82707,1.04931 -0.64373,0 -0.95027,-0.40962 -0.81852,-1.09375 z m 50.50602,0.20833 c 0,-0.54427 0.44531,-0.98958 0.98958,-0.98958 0.54428,0 0.87826,0.33398 0.74219,0.74219 -0.3863,1.15889 -1.73177,1.3511 -1.73177,0.24739 z m -115.06696,-1.77083 c -0.0368,-0.0859 -0.14539,-1.72542 -0.24127,-3.64329 -0.0959,-1.91787 -0.63546,-4.37881 -1.19909,-5.46875 -0.56363,-1.08994 -0.77213,-1.98171 -0.46333,-1.98171 0.94943,0 5.39811,5.19434 6.27992,7.33252 1.15847,2.80902 0.56366,3.91748 -2.10216,3.91748 -1.21391,0 -2.23724,-0.0703 -2.27407,-0.15625 z"
         id="path4155"
         inkscape:connector-curvature="0" />
      <path
         style="fill:#2d79b7"
         d="m 331.47664,485.70991 c -2.74066,-0.47463 -5.16059,-1.87499 -7.26596,-4.20464 l -1.19062,-1.31746 6.22416,0 c 5.43635,0 6.63336,-0.20392 9.4572,-1.61109 1.77817,-0.88611 3.95835,-2.47308 4.84483,-3.5266 3.61328,-4.29414 4.48332,-7.30577 10.88751,-37.68706 3.46743,-16.44938 6.44858,-30.05212 6.62476,-30.22831 0.17619,-0.17618 1.21168,0.571 2.30109,1.6604 l 1.98073,1.98074 -6.39158,30.48721 c -4.4304,21.1325 -6.87219,31.47747 -7.95784,33.7145 -1.71366,3.53103 -5.70731,7.87917 -8.62041,9.3856 -2.48185,1.2834 -7.60347,1.91655 -10.89387,1.34671 z m 186.25,0.0392 c -2.75123,-0.51678 -5.17941,-1.93501 -7.26596,-4.24384 l -1.19062,-1.31745 6.36695,0 c 7.35903,0 9.8136,-0.77767 13.41204,-4.24927 3.22452,-3.11086 5.26015,-7.2941 6.65463,-13.67532 0.63806,-2.9198 1.25292,-5.39841 1.36636,-5.50803 0.11344,-0.10961 2.31769,-1.28993 4.89832,-2.62292 l 4.69206,-2.42363 2.80794,1.89584 c 2.76952,1.86989 2.91911,1.89583 10.93294,1.89583 7.75812,0 8.28931,-0.0833 11.76369,-1.8437 2.00131,-1.01403 4.48106,-2.80309 5.51062,-3.97568 3.90369,-4.446 4.39813,-7.88909 3.33788,-23.24312 -1.36519,-19.76999 -1.41857,-21.25726 -0.77725,-21.65362 0.33412,-0.20652 1.27068,0.292 2.08125,1.10782 1.37762,1.38656 1.51825,2.21699 2.15643,12.7333 0.3755,6.1875 0.91569,14.21654 1.20044,17.8423 0.81181,10.33697 -0.2485,14.59147 -4.76119,19.10416 -3.51187,3.5119 -8.35118,5.47617 -14.20056,5.764 -5.98494,0.2945 -8.83524,-0.4835 -12.2628,-3.34715 -1.43261,-1.19691 -2.8152,-2.04613 -3.07242,-1.88716 -0.25722,0.15897 -1.94627,1.28406 -3.75344,2.50019 -1.80717,1.21614 -3.63578,2.21116 -4.06359,2.21116 -1.50301,0 -2.7003,2.23323 -3.73363,6.96411 -0.57382,2.62713 -1.75603,6.20683 -2.62712,7.95488 -3.66268,7.35005 -11.68965,11.47929 -19.47297,10.0173 z M 321.0263,475.75614 c -1.375,-0.33212 -3.13121,-1.08805 -3.90269,-1.67984 -1.3562,-1.04034 -1.20089,-1.07599 4.6875,-1.07599 5.50779,0 6.36779,-0.16319 8.99306,-1.70649 3.53587,-2.0786 5.89195,-4.7768 7.80579,-8.93922 0.87911,-1.91198 3.92468,-14.90348 7.76543,-33.125 3.47549,-16.48861 6.43703,-30.09759 6.5812,-30.24217 0.46362,-0.46493 3.38221,2.6356 3.38221,3.59305 0,2.41043 -12.65138,60.58177 -13.68264,62.91312 -1.60725,3.63347 -5.48852,7.7932 -8.50486,9.11506 -3.11065,1.36319 -9.80789,1.94871 -13.125,1.14748 z m 188.75,0.40605 c -0.34375,-0.13586 -1.60938,-0.41679 -2.8125,-0.62429 -1.20313,-0.2075 -2.81871,-0.86335 -3.59019,-1.45743 -1.35642,-1.04454 -1.19151,-1.08016 5,-1.08016 7.19166,0 8.57625,-0.49297 12.5587,-4.47141 2.90612,-2.9032 4.9701,-6.84415 6.0051,-11.46609 1.79113,-7.99854 1.78733,-7.99042 4.10164,-8.75421 1.19681,-0.39498 3.54757,-1.66161 5.22392,-2.81473 l 3.04789,-2.09659 1.70533,1.77998 1.70533,1.77998 -2.41011,1.5744 c -1.32556,0.86592 -3.58542,2.0372 -5.0219,2.60285 l -2.61179,1.02846 -1.30946,5.73118 c -2.90979,12.73544 -7.24358,17.23353 -17.52946,18.19406 -1.89063,0.17656 -3.71875,0.20985 -4.0625,0.074 z m -5.71202,-13.78828 c -0.68172,-1.77653 0.41923,-4.02943 2.73964,-5.60619 2.04775,-1.39148 3.90988,-2.03253 3.90988,-1.34599 0,0.98703 -2.10849,5.86316 -2.92583,6.7663 -1.23801,1.368 -3.23188,1.46753 -3.72369,0.18588 z m -378.14787,-0.58578 c -3.11829,-0.97503 -6.39516,-2.92583 -8.05623,-4.79606 l -1.20888,-1.3611 1.875,0.45769 c 3.49048,0.85203 16.36406,1.12029 19.67599,0.41001 4.98738,-1.0696 9.94885,-3.79332 13.66864,-7.50372 2.83481,-2.82765 3.55376,-3.25991 4.39714,-2.64368 3.82597,2.79548 10.35662,3.42295 14.76808,1.41892 1.38042,-0.6271 3.59942,-2.16777 4.93113,-3.42374 2.24318,-2.11558 2.48258,-2.20311 3.25471,-1.18985 1.34546,1.76564 1.64784,3.27763 0.84818,4.24115 -2.62825,3.16685 -9.71636,5.07777 -14.8722,4.00947 -1.60691,-0.33295 -3.6248,-0.75166 -4.48417,-0.93046 -1.28327,-0.26699 -1.87081,0.11644 -3.28771,2.14559 -2.27473,3.25762 -8.34458,7.24723 -13.40317,8.80967 -4.76093,1.4705 -13.96368,1.65149 -18.10651,0.35611 z m 191.40453,-0.0825 c -1.30103,-1.30104 -1.23553,-2.65711 0.24568,-5.0864 1.02493,-1.68095 5.20859,-4.55646 6.62934,-4.55646 1.02225,0 -0.64914,4.77852 -2.64125,7.55139 -2.4175,3.36499 -2.78079,3.54445 -4.23377,2.09147 z m 103.08036,0.56326 c -0.6875,-0.17606 -2.85262,-1.02946 -4.81138,-1.89644 l -3.56138,-1.57633 -1.67916,1.32082 c -1.43879,1.13176 -2.52047,1.32083 -7.55657,1.32083 l -5.87742,0 -2.6283,-2.45166 c -1.44557,-1.34841 -2.39646,-2.68435 -2.1131,-2.96875 0.28337,-0.2844 4.07856,-0.68383 8.43377,-0.88763 6.42196,-0.3005 8.39103,-0.18238 10.41854,0.625 3.83476,1.52706 11.16907,1.2991 14.78897,-0.45965 3.88524,-1.88768 7.91984,-5.52029 10.83953,-9.75956 1.31547,-1.91001 2.55596,-3.46208 2.75664,-3.44903 0.20067,0.0131 1.14385,1.14961 2.09596,2.52569 l 1.7311,2.50197 -1.90661,2.77116 c -2.78499,4.04785 -8.00753,8.97538 -11.25905,10.62305 -2.93636,1.48796 -7.4953,2.31784 -9.67154,1.76053 z m -248.75,-1.81399 c -2.13385,-1.10979 -4.6875,-3.35759 -4.6875,-4.12607 0,-0.28383 2.40183,-0.51606 5.3374,-0.51606 4.10363,0 5.87341,-0.28403 7.65625,-1.22874 3.76196,-1.99344 5.36901,-3.50045 4.93602,-4.62879 -0.33835,-0.88173 0.21143,-1.01828 4.12119,-1.02358 3.44208,-0.004 5.27569,-0.36185 7.73458,-1.50673 3.10239,-1.4445 3.23462,-1.45595 3.53523,-0.30639 0.2855,1.09174 0.9544,1.19423 7.79429,1.19423 5.22547,0 7.6762,-0.23562 8.12596,-0.78125 0.35418,-0.42969 2.12067,-7.8125 3.92553,-16.40625 3.54529,-16.88077 5.21042,-21.63925 8.09399,-23.1304 3.51064,-1.81542 5.64408,1.07142 2.93415,3.97031 -2.72758,2.91776 -3.49931,5.33029 -7.06873,22.09783 -1.92451,9.04049 -3.82294,16.64389 -4.21874,16.89644 -1.15857,0.73926 -13.94698,0.54727 -15.66425,-0.23517 -1.20405,-0.5486 -2.25806,-0.51715 -4.56066,0.13607 -1.64709,0.46726 -5.35332,0.80328 -8.23607,0.74671 l -5.24136,-0.10286 1.76454,1.84178 1.76454,1.84179 -1.79789,1.87659 c -3.93189,4.10402 -11.74279,5.7339 -16.24847,3.39054 z m 25,0.25521 c -1.58667,-0.8754 -4.6875,-3.73903 -4.6875,-4.32894 0,-0.63583 10.45047,-1.16122 22.33967,-1.12311 11.78889,0.0378 10.44618,0.97821 12.37027,-8.66404 0.6345,-3.17969 1.38122,-5.78125 1.65935,-5.78125 0.27814,0 0.50571,0.242 0.50571,0.53778 0,0.29578 0.71909,1.59743 1.59799,2.89255 l 1.59798,2.35476 -1.37231,6.50783 c -1.71424,8.12939 -1.94999,8.33208 -9.69094,8.33208 -4.86301,0 -5.96331,-0.19599 -7.38691,-1.31579 l -1.67275,-1.31579 -3.05865,1.31579 c -3.38249,1.45511 -10.04817,1.77639 -12.20191,0.58813 z m 50.625,-0.31086 c -2.11138,-1.11309 -4.6875,-3.31882 -4.6875,-4.01354 0,-0.50864 8.39144,-0.98061 23.11858,-1.3003 l 9.68108,-0.21014 1.49915,-7.03125 c 0.82454,-3.86719 1.74149,-7.03125 2.03767,-7.03125 0.29619,0 0.53852,0.40029 0.53852,0.88954 0,0.48926 0.72693,1.75346 1.6154,2.80934 l 1.61539,1.91979 -1.56973,6.69691 c -1.00524,4.28863 -1.96625,6.98684 -2.67235,7.50316 -1.69037,1.23603 -11.52685,1.06589 -14.28,-0.247 -2.07119,-0.98768 -2.34624,-0.98768 -4.41742,0 -2.86582,1.36662 -9.89871,1.37492 -12.47879,0.0147 z m 50.54737,0.0602 c -1.07395,-0.53715 -2.74375,-1.80239 -3.71068,-2.81165 l -1.75805,-1.83502 6.0745,0 c 6.49134,0 8.73359,-0.62571 11.97186,-3.34078 1.70534,-1.42981 1.79871,-1.6973 1.03186,-2.95625 -0.74947,-1.23043 -0.72644,-1.33942 0.20737,-0.98109 0.57778,0.22172 1.73063,0.40312 2.56189,0.40312 1.90435,0 1.97704,1.10367 0.10513,1.59618 -1.74771,0.45983 -4.65871,4.91608 -5.32994,8.15922 l -0.50336,2.4321 -4.34898,0.1554 c -2.9624,0.10585 -4.97152,-0.15598 -6.3016,-0.82124 z m 160.625,-0.0134 c -1.07395,-0.52978 -2.74375,-1.78901 -3.71068,-2.79826 l -1.75805,-1.83503 5.70124,0 c 6.18521,0 7.96045,-0.45306 11.60676,-2.96216 1.66823,-1.14793 2.29728,-1.98403 2.08977,-2.77757 -0.26623,-1.01804 0.16496,-1.13669 4.17585,-1.149 5.03753,-0.0154 8.22035,-1.16978 12.32861,-4.47128 l 2.5496,-2.0489 1.18962,1.5482 c 1.62149,2.11027 1.52131,2.8092 -0.62133,4.3349 -3.60293,2.5655 -6.38142,3.32892 -12.06751,3.31563 -3.00781,-0.007 -5.46875,0.14583 -5.46875,0.33967 0,0.19385 0.61331,1.00528 1.3629,1.80318 l 1.3629,1.45075 -1.79386,1.87238 c -2.8461,2.97069 -6.37501,4.37124 -10.97302,4.35497 -2.3332,-0.008 -4.84115,-0.41861 -5.97405,-0.97749 z m 24.2339,-0.8872 c -4.02004,-2.9121 -3.52065,-3.74491 2.24998,-3.75218 3.85198,-0.005 5.4836,-0.31778 7.96875,-1.5283 4.31964,-2.10411 5.49612,-3.15275 5.06369,-4.51345 -0.32355,-1.01811 -0.013,-1.1204 2.91207,-0.95917 5.93972,0.32739 6.00598,0.35579 3.70915,1.5897 -1.13581,0.61019 -2.68269,1.02402 -3.4375,0.91962 -1.00265,-0.13866 -1.32445,0.0983 -1.19442,0.87935 0.0979,0.58802 -0.67553,2.24741 -1.71875,3.68752 -1.0432,1.4401 -1.89674,3.00501 -1.89674,3.47756 0,1.28382 -2.72723,2.07826 -7.13441,2.07826 -3.37445,0 -4.29359,-0.2648 -6.52182,-1.87892 z m -362.06021,-6.88917 c -4.26129,-0.50378 -9.38014,-2.37128 -10.21867,-3.72806 -0.34735,-0.56202 -0.0807,-0.63751 1.01309,-0.28683 3.55222,1.13888 6.17501,1.50408 10.90233,1.51806 13.7669,0.0407 24.95366,-8.06056 27.14144,-19.65538 0.94632,-5.01529 0.46377,-8.66341 -1.89198,-14.30366 -1.61988,-3.87841 -1.66615,-4.17588 -0.48608,-3.125 0.71733,0.6388 2.41388,3.41145 3.77013,6.16145 l 2.46589,5 -0.39404,6.55246 c -0.46581,7.74614 -1.62523,10.58176 -5.99965,14.67352 -6.28081,5.87496 -15.68946,8.44813 -26.30246,7.19344 z m 288.52894,-0.81299 c -1.375,-0.45414 -3.13771,-1.16857 -3.91714,-1.58763 -1.15725,-0.62221 -1.66987,-0.58491 -2.79531,0.20339 -1.97723,1.3849 -14.60616,1.37909 -16.58598,-0.008 -0.76399,-0.53512 -1.38907,-1.23824 -1.38907,-1.5625 0,-0.33346 2.96812,-0.58956 6.83288,-0.58956 6.34498,0 6.86199,-0.0917 7.24054,-1.28441 0.22421,-0.70641 0.59472,-1.18512 0.82337,-1.06378 5.41348,2.873 7.9446,3.69763 11.30022,3.68158 5.08355,-0.0243 8.85255,-1.91833 13.80299,-6.93633 11.96639,-12.12969 18.17741,-38.16447 12.87286,-53.9593 -0.83125,-2.47514 -1.41655,-4.59673 -1.30065,-4.71464 0.1159,-0.11792 1.08332,0.9902 2.14983,2.46247 2.99097,4.12891 4.63432,10.36466 4.67827,17.75191 0.0324,5.43827 -0.18553,6.79021 -1.67766,10.40935 -1.85629,4.50242 -3.59765,11.85589 -3.59765,15.19231 0,5.35988 -8.92568,17.57025 -15.14894,20.72381 -3.71204,1.88104 -9.7186,2.46004 -13.28856,1.28096 z m -168.20018,-0.36003 c -2.08159,-0.35073 -5.86483,-2.11247 -5.86157,-2.72956 4.1e-4,-0.078 2.61476,-0.14184 5.80967,-0.14184 4.61947,0 6.17351,-0.23902 7.5895,-1.16729 1.61955,-1.06173 1.83175,-1.07586 2.34639,-0.15625 0.47149,0.84251 1.79805,1.01104 7.95822,1.01104 5.17878,0 7.57123,-0.23394 7.98958,-0.78125 0.32843,-0.42969 2.0753,-7.8125 3.88191,-16.40625 3.26391,-15.52583 4.81104,-20.58782 6.8588,-22.44102 1.66053,-1.50275 3.80838,-1.49395 4.83694,0.0198 0.81935,1.20589 0.75488,1.50468 -0.69697,3.2301 -2.72454,3.23794 -3.85941,6.79734 -7.21483,22.62859 -1.78501,8.42188 -3.53067,15.66406 -3.87925,16.09375 -0.77506,0.95542 -13.33122,1.09229 -15.75252,0.17172 -0.92228,-0.35065 -2.20045,-0.3862 -3.00944,-0.0837 -2.20805,0.82564 -8.02738,1.2288 -10.85643,0.75213 z m 50.32804,-0.0489 c -2.69212,-0.47218 -5.56536,-1.77126 -5.56536,-2.51626 0,-0.1818 2.07371,-0.22584 4.60823,-0.0978 5.27461,0.26636 8.59703,-0.8583 12.40022,-4.19754 l 2.25744,-1.98206 1.37103,1.92543 c 1.33945,1.88108 1.3443,1.95553 0.2108,3.23258 -2.6279,2.9607 -9.63139,4.62684 -15.28236,3.6357 z m 160.60141,-0.003 c -2.34316,-0.41061 -6.16677,-2.14495 -6.16677,-2.79741 0,-0.0807 2.07088,-0.0139 4.60196,0.14858 5.74015,0.36838 8.26804,-0.43092 12.64951,-3.99968 l 3.38315,-2.75561 1.04193,2.18494 c 0.98362,2.06266 0.97872,2.25477 -0.0874,3.43284 -2.8002,3.09419 -9.70047,4.78816 -15.42237,3.78608 z m 99.66223,-0.0106 c -2.77543,-0.57404 -6.13977,-2.10693 -6.7338,-3.06809 -0.20707,-0.33504 0.63299,-0.30706 1.98448,0.0661 1.28895,0.3559 4.59676,0.52823 7.35068,0.38297 8.05751,-0.42502 14.44451,-3.92446 17.30076,-9.47913 2.00663,-3.90233 2.2905,-7.87354 1.43063,-20.01061 -1.52175,-21.47909 -1.61325,-23.51251 -1.05844,-23.51251 0.30463,0 1.15175,0.63648 1.88256,1.4144 1.18569,1.26209 1.402,2.59126 2.00894,12.34375 0.37413,6.01114 0.93775,14.12064 1.25256,18.02111 0.59632,7.38888 0.15613,11.77738 -1.50318,14.98607 -1.43682,2.77848 -5.52238,6.0939 -9.19369,7.46063 -3.97888,1.48123 -11.06038,2.15229 -14.7215,1.39505 z m -429.76789,-10.3935 c -0.74164,-0.74163 -0.48879,-2.2243 0.85146,-4.99288 1.39325,-2.87807 5.12315,-5.23489 8.28475,-5.23489 1.99214,0 2.15357,1.20681 0.55773,4.16924 -1.14833,2.13169 -5.41623,5.83076 -6.72738,5.83076 -0.44024,0 -1.18969,0.14937 -1.66545,0.33194 -0.47576,0.18256 -1.06126,0.13568 -1.30111,-0.10417 z m 409.93056,-6.32152 c 0.8014,-3.69531 2.78452,-12.97099 4.40693,-20.61262 1.62241,-7.64163 3.17212,-14.251 3.44382,-14.6875 0.36849,-0.59197 0.9084,-0.38053 2.12489,0.83216 l 1.63087,1.6258 -2.26317,10.5617 c -5.61465,26.20238 -5.59165,26.11874 -7.62184,27.71568 -3.08867,2.42955 -3.28957,1.79526 -1.7215,-5.43522 z m -416.99255,3.27223 c -3.52947,-5.38665 -0.0661,-12.94387 6.41481,-13.99731 1.60691,-0.26119 2.59945,-0.84564 3.08289,-1.81533 l 0.71299,-1.43011 1.67095,1.98582 c 1.98743,2.36193 1.84508,3.22741 -0.61499,3.73907 -5.48163,1.14012 -8.58538,4.6331 -8.65667,9.74234 -0.0521,3.72963 -0.93571,4.33078 -2.60998,1.77552 z m 287.38502,-0.14723 c -1.24832,-1.08849 -1.22755,-1.21848 4.31837,-27.03125 3.065,-14.26562 5.711,-26.32074 5.88,-26.78914 0.24965,-0.69192 0.48641,-0.70298 1.26241,-0.059 0.52532,0.43598 2.41987,1.02423 4.21012,1.30723 3.72823,0.58936 4.82748,1.69916 4.84043,4.88691 0.005,1.21905 0.16571,4.24608 0.35724,6.72673 0.24898,3.22486 -0.0308,6.52015 -0.98142,11.5625 -2.82703,14.99421 -5.56023,22.80452 -9.16572,26.19169 -1.3958,1.31129 -1.48049,1.32207 -1.47915,0.18823 6.3e-4,-0.66148 1.97947,-10.34332 4.39706,-21.51519 2.41759,-11.17188 4.54766,-21.01686 4.73349,-21.87775 0.24732,-1.14572 -0.0851,-1.96262 -1.24025,-3.04782 -0.86796,-0.81542 -1.95135,-1.33935 -2.40751,-1.16431 -0.53452,0.20512 -2.68969,9.06592 -6.06187,24.92282 -5.14754,24.20518 -5.81136,26.79206 -6.87509,26.79206 -0.29358,0 -1.09823,-0.49219 -1.78811,-1.09375 z m 143.33012,-0.3077 c -0.95677,-1.36599 -0.91452,-1.42763 1.53913,-2.24551 3.80487,-1.2683 5.2699,-4.6457 3.51479,-8.10283 -0.79517,-1.56627 -0.65272,-2.11494 1.97974,-7.62521 l 2.83656,-5.9375 0.50137,4.50996 c 0.45034,4.05095 0.34921,4.83838 -0.99368,7.73687 -1.41093,3.04536 -1.44029,3.34176 -0.5218,5.26785 1.86422,3.90931 -0.0753,6.64658 -5.2526,7.41307 -2.25113,0.33327 -2.75815,0.19022 -3.60351,-1.0167 z m -63.54108,-1.33006 c -0.54253,-1.19073 0.0604,-4.93948 3.07174,-19.10001 2.06073,-9.69018 3.92592,-17.79765 4.14487,-18.0166 0.21895,-0.21895 1.12478,0.3286 2.01297,1.21679 l 1.61488,1.61488 -3.54342,16.78948 c -1.94888,9.23421 -3.68743,17.28166 -3.86344,17.88322 -0.46513,1.58972 -2.64883,1.3434 -3.4376,-0.38776 z m -312.00651,0.43984 c -0.22917,-0.22916 -0.41667,-1.32097 -0.41667,-2.42624 0,-1.9262 6.74982,-34.69049 7.2583,-35.23247 0.47659,-0.508 3.3667,2.68021 3.3667,3.71397 0,1.38545 -6.76934,33.05981 -7.22194,33.79214 -0.40873,0.66133 -2.37709,0.76191 -2.98639,0.1526 z m 24.26214,-0.8607 c -0.42105,-1.32664 6.27686,-34.74113 7.29014,-36.36896 0.36646,-0.58872 0.90826,-0.37669 2.11737,0.82865 l 1.6249,1.61982 -3.68875,17.44268 c -3.63302,17.17912 -3.71313,17.44559 -5.30196,17.63527 -1.19963,0.14321 -1.72306,-0.15353 -2.0417,-1.15746 z m 50.76422,0.88707 c -0.95833,-0.95834 -0.35114,-6.28506 1.54486,-13.55251 1.57828,-6.04965 1.99683,-8.9396 2.03125,-14.02546 0.0256,-3.77453 0.28869,-6.32418 0.64062,-6.20716 0.3285,0.10923 1.26943,1.44495 2.09096,2.96827 1.36217,2.52578 1.46147,3.26497 1.12773,8.39466 -0.20198,3.10448 -1.31476,9.40578 -2.48338,14.0625 -1.73815,6.92626 -2.33157,8.47021 -3.3132,8.62011 -0.6577,0.10044 -1.39517,-0.0168 -1.63884,-0.26041 z m 50.09844,-1.10594 c -0.5991,-1.31489 -0.31028,-3.2983 1.7127,-11.76143 1.87903,-7.86092 2.42999,-11.4201 2.41867,-15.62451 l -0.0147,-5.44469 1.42187,1.33577 c 3.06869,2.88289 3.38385,8.30042 1.06479,18.3036 -0.87661,3.78125 -1.95207,8.5625 -2.38991,10.625 -0.64878,3.05619 -1.04554,3.78681 -2.14445,3.94892 -0.94578,0.13954 -1.56354,-0.2733 -2.069,-1.38266 z m 25.95602,-0.10277 c -0.44512,-1.77347 6.3373,-35.17306 7.35382,-36.21349 0.40391,-0.4134 1.10499,-0.0545 2.07078,1.06014 1.24831,1.44068 1.38416,2.03004 0.93643,4.0625 -0.28805,1.30755 -1.82163,8.56486 -3.40798,16.12736 -3.77973,18.01898 -3.33398,16.5625 -5.06889,16.5625 -1.06948,0 -1.59471,-0.44574 -1.88416,-1.59901 z m 134.33361,-0.74474 c -1.79898,-4.30188 -0.0557,-14.39725 3.87724,-22.45407 2.72605,-5.58438 5.21007,-7.84108 8.34187,-7.57849 3.23063,0.27087 3.19821,1.77592 -0.10382,4.81962 -4.53813,4.18311 -8.16773,13.47968 -8.98965,23.02544 -0.44923,5.21726 -1.53955,5.98032 -3.12564,2.1875 z m 52.71057,1.92708 c -0.22917,-0.22916 -0.41667,-1.32097 -0.41667,-2.42624 0,-1.9262 6.74982,-34.69049 7.2583,-35.23247 0.47659,-0.508 3.3667,2.68021 3.3667,3.71397 0,1.38545 -6.76934,33.05981 -7.22194,33.79214 -0.40873,0.66133 -2.37709,0.76191 -2.98639,0.1526 z m -44.51154,-5.07036 c 0.50567,-3.70036 3.08147,-11.33336 3.35464,-9.94098 0.34002,1.73312 -1.68153,10.09864 -2.76303,11.43386 -0.88547,1.09323 -0.92975,0.98151 -0.59161,-1.49288 z m 81.66809,-13.26297 c -0.0188,-0.51562 0.46726,-3.1875 1.08017,-5.9375 0.76022,-3.41097 1.39957,-5 2.01174,-5 1.61216,0 1.23446,3.03342 -0.93386,7.5 -1.16811,2.40625 -2.13923,3.95313 -2.15805,3.4375 z m -158.40655,-1.04167 c -0.71915,-0.71914 -0.45515,-1.45833 0.52083,-1.45833 0.51562,0 0.9375,0.42188 0.9375,0.9375 0,0.97598 -0.73919,1.23998 -1.45833,0.52083 z m -129.74233,-4.84375 c -0.0271,-0.65885 0.12058,-1.02799 0.32827,-0.82031 0.20768,0.20768 0.22988,0.74675 0.0493,1.19792 -0.19951,0.49858 -0.34761,0.35048 -0.3776,-0.37761 z m 50.625,0 c -0.0271,-0.65885 0.12058,-1.02799 0.32827,-0.82031 0.20768,0.20768 0.22988,0.74675 0.0493,1.19792 -0.19951,0.49858 -0.34761,0.35048 -0.3776,-0.37761 z m 76.27623,-0.97799 c -2.33143,-0.5649 -5.0751,-1.89498 -5.07642,-2.46095 -4.7e-4,-0.19973 1.58256,-0.2647 3.51784,-0.14439 l 3.51868,0.21875 -0.53889,-3.03125 c -1.68237,-9.4632 1.23543,-17.58197 8.21614,-22.86141 4.03418,-3.051 7.5712,-4.25109 13.77984,-4.67543 5.27633,-0.36061 8.8919,0.36045 10.29706,2.05358 0.66425,0.80037 0.30993,0.86808 -2.69472,0.51494 -4.5982,-0.54043 -17.9814,1.39418 -19.06385,2.75577 -0.42969,0.54049 -0.78125,1.57702 -0.78125,2.30339 0,0.72638 -0.89059,2.71169 -1.97909,4.4118 -3.88759,6.07194 -5.0437,11.56803 -4.13417,19.65361 0.14341,1.2749 -0.11184,1.5819 -1.38674,1.6679 -0.85938,0.058 -2.51286,-0.12487 -3.67443,-0.40631 z m -242.61101,-5.05633 c -2.61944,-3.30732 -4.93099,-8.9826 -4.94972,-12.15251 -0.0169,-2.85982 1.63586,-6.35636 3.63063,-7.68084 1.21867,-0.80917 1.35453,-0.78794 1.35453,0.21161 0,0.61105 -0.70313,2.03284 -1.5625,3.15953 -0.85938,1.1267 -1.5625,2.33425 -1.5625,2.68344 0,0.34919 0.94061,1.35233 2.09024,2.2292 6.16621,4.7032 14.19051,-1.23905 13.37364,-9.9036 -0.16539,-1.75427 -0.52573,-3.75209 -0.80077,-4.43959 -0.50007,-1.25 -0.50007,-1.25 0.94418,0 4.7742,4.13209 4.94952,13.44229 0.32166,17.08256 -2.05549,1.61686 -7.79877,1.84953 -10.30395,0.41744 -0.85938,-0.49126 -1.91406,-0.90317 -2.34375,-0.91535 -1.33943,-0.038 -0.89105,5.02827 0.7586,8.5716 0.84021,1.80469 1.42359,3.28125 1.29641,3.28125 -0.12717,0 -1.13819,-1.14513 -2.2467,-2.54474 z m 12.84794,1.81538 c -1.95479,-1.08116 -4.0625,-3.16123 -4.0625,-4.00924 0,-0.48064 1.23495,-0.86685 3.28125,-1.02616 1.80469,-0.14049 3.77344,-0.47786 4.375,-0.74971 1.30473,-0.58961 1.42864,0.59599 0.43589,4.17072 -0.68785,2.47682 -1.72155,2.89095 -4.02964,1.61439 z m 292.8125,-6.08996 c 0,-0.65687 -0.53301,-2.90687 -1.18446,-5 -1.35842,-4.36461 -0.77535,-4.90525 1.46418,-1.35761 2.01842,3.19739 2.5594,5.45273 1.58854,6.62255 -1.06119,1.27866 -1.86826,1.16421 -1.86826,-0.26494 z m -315.35165,-6.46193 c -3.38306,-4.01211 -4.31673,-8.9359 -2.51306,-13.25271 1.52196,-3.64254 6.47253,-5.66378 9.69035,-3.95641 2.13583,1.13326 2.37643,2.36537 0.4619,2.36537 -2.01448,0 -5.34128,2.80179 -6.43502,5.41949 -1.10764,2.65095 -1.08528,6.56359 0.0531,9.28808 0.49809,1.19209 0.80434,2.16743 0.68056,2.16743 -0.12378,0 -0.9958,-0.91406 -1.93782,-2.03125 z m 30.22226,-2.8125 c -0.13479,-1.97656 -0.16761,-3.70414 -0.0729,-3.83906 0.74567,-1.06274 4.88713,5.8009 4.18535,6.9364 -0.16873,0.27303 -1.10791,0.49641 -2.08706,0.49641 -1.72221,0 -1.78827,-0.11721 -2.02535,-3.59375 z"
         id="path4153"
         inkscape:connector-curvature="0" />
      <path
         style="fill:#1b76c1"
         d="m 329.57856,484.90427 c -1.14001,-0.51756 -2.79513,-1.50924 -3.67804,-2.20374 l -1.6053,-1.26272 4.65835,0 c 6.94946,0 10.68039,-1.33863 14.56903,-5.22728 2.18129,-2.18129 3.67937,-4.39932 4.5587,-6.74956 0.72036,-1.92532 4.02696,-16.40098 7.34801,-32.16812 3.32105,-15.76715 6.15843,-28.79325 6.30531,-28.9469 0.14689,-0.15364 0.92948,0.40886 1.7391,1.25 l 1.47204,1.52936 -6.44805,30.49525 c -3.60293,17.03958 -7.01135,31.65559 -7.72469,33.125 -3.15828,6.50581 -8.44542,10.2641 -15.18111,10.79129 -2.74412,0.21477 -4.56995,0.0227 -6.01335,-0.63258 z m 186.56261,0.0428 c -1.31181,-0.4897 -2.96067,-1.40929 -3.66413,-2.04354 -1.25535,-1.13184 -1.17056,-1.15965 4.58224,-1.50311 4.90396,-0.29278 6.41324,-0.65006 9.24094,-2.1875 5.40849,-2.94064 8.44459,-7.92476 10.41609,-17.09922 l 1.0802,-5.02678 2.75463,-1.05201 c 1.51505,-0.5786 3.43622,-1.58814 4.26928,-2.24342 1.56579,-1.23165 2.04048,-1.08472 5.82567,1.80334 0.49288,0.37606 -2.83153,2.74588 -6.00972,4.28405 -3.57188,1.72871 -4.17265,2.50921 -4.80814,6.24647 -1.41371,8.31401 -5.60946,15.06785 -11.10127,17.86956 -3.21771,1.64156 -9.47158,2.11468 -12.58579,0.95216 z M 320.4013,474.56281 c -0.94986,-0.40817 -0.56439,-0.54769 1.60531,-0.58107 1.57042,-0.0242 4.3619,-0.49134 6.20329,-1.03817 4.3883,-1.30318 9.34108,-6.22426 11.16167,-11.09022 0.69821,-1.86613 3.97292,-16.29336 7.27712,-32.0605 3.30422,-15.76715 6.14403,-29.07065 6.31072,-29.56334 0.24425,-0.72194 0.5415,-0.65737 1.53156,0.33269 1.22131,1.22131 1.19195,1.40167 -5.0288,30.8958 -3.44151,16.31702 -6.72013,31.06455 -7.28581,32.7723 -1.43499,4.33207 -6.38274,9.22426 -10.33568,10.21962 -3.35444,0.84466 -9.59318,0.90623 -11.43938,0.11289 z m 186.25,0.0364 c -0.95577,-0.43854 -0.48317,-0.58388 2.00781,-0.61747 5.01315,-0.0676 9.56535,-2.07002 12.96265,-5.70201 3.44102,-3.67873 4.47451,-5.88402 6.2403,-13.31583 l 1.31545,-5.5364 2.94516,-1.11796 c 1.61983,-0.61488 3.83742,-1.86875 4.92798,-2.7864 l 1.98282,-1.66843 1.30892,1.31919 1.30891,1.31919 -1.5625,1.2119 c -0.85938,0.66655 -2.82813,1.68351 -4.375,2.25992 -1.54688,0.5764 -3.12393,1.35455 -3.50457,1.7292 -0.38064,0.37466 -1.18755,3.04727 -1.79312,5.93913 -1.3123,6.26665 -2.09788,8.25619 -4.6421,11.75635 -2.8248,3.88615 -6.12835,5.35645 -12.56021,5.59014 -2.92188,0.10616 -5.875,-0.0651 -6.5625,-0.38052 z m -1.96202,-12.2253 c -0.67838,-1.76784 0.39754,-3.95793 2.61884,-5.33077 1.22179,-0.7551 2.36374,-1.2306 2.53767,-1.05667 0.44317,0.44317 -1.47175,4.86335 -2.6902,6.20972 -1.2337,1.36323 -1.99046,1.41777 -2.46631,0.17772 z M 128.2138,461.85845 c -3.68126,-0.86102 -8.37386,-3.0564 -9.12263,-4.26792 -0.32571,-0.52703 -0.11298,-0.59634 0.73885,-0.24072 0.65795,0.27468 4.15292,0.6371 7.76659,0.80538 10.63833,0.49538 18.69328,-2.22419 24.87581,-8.39875 3.296,-3.29176 3.33248,-3.30858 4.8241,-2.22399 0.82665,0.60107 1.51184,1.40222 1.52264,1.78034 0.0431,1.50692 -3.77397,5.78242 -7.18175,8.04438 -6.58656,4.37191 -16.13313,6.20646 -23.42361,4.50128 z m 189.53125,-0.20957 c -1.07411,-0.43341 -0.98218,-3.39607 0.15578,-5.02074 0.87508,-1.24934 4.66058,-3.94033 5.54299,-3.94033 1.09775,0 0.16847,3.15357 -1.47011,4.98889 -1.02579,1.14897 -2.02912,2.60588 -2.22962,3.23757 -0.37433,1.17945 -0.64768,1.2799 -1.99904,0.73461 z m 101.71875,0.0326 c -0.51563,-0.19714 -2.41616,-1.08278 -4.22342,-1.96809 l -3.28592,-1.60966 -1.44186,1.35456 c -1.28031,1.20279 -2.14141,1.35456 -7.68523,1.35456 l -6.24336,0 -2.12021,-2.1875 -2.12021,-2.1875 7.27322,0 c 4.15678,0 7.43812,-0.26682 7.65807,-0.62271 0.23976,-0.38794 1.13728,-0.22716 2.38064,0.42646 1.24696,0.65552 4.02493,1.15126 7.40395,1.32126 4.80459,0.24173 5.79634,0.0944 8.88629,-1.32024 4.01772,-1.83938 8.99078,-6.2559 11.47875,-10.19416 0.94973,-1.50335 1.91858,-2.73388 2.15298,-2.73449 0.2344,-6.2e-4 1.03667,0.85622 1.78282,1.90409 l 1.35663,1.9052 -1.78265,2.62605 c -2.58019,3.8009 -8.00287,8.98834 -10.98778,10.51113 -2.53825,1.29492 -8.64671,2.12299 -10.48271,1.42104 z m -246.50567,-1.16909 c -1.34374,-0.47883 -3.02343,-1.45086 -3.73264,-2.16007 l -1.28947,-1.28947 4.12281,0 c 4.51859,0 8.22999,-1.0613 11.07999,-3.16839 l 1.84666,-1.3653 2.03141,1.4465 2.03142,1.44649 -2.60025,2.30752 c -3.88377,3.44655 -8.788,4.4582 -13.48993,2.78272 z m 24.90873,0.2921 c -1.05019,-0.32409 -2.57578,-1.29854 -3.3902,-2.16545 l -1.48075,-1.57619 3.75961,0 c 2.06779,0 5.07029,-0.39446 6.67222,-0.87656 1.65763,-0.49888 3.06282,-0.63353 3.26122,-0.3125 0.44101,0.71357 17.17318,0.72822 18.29673,0.016 0.45891,-0.2909 1.4462,-3.39996 2.19398,-6.90903 l 1.35959,-6.38012 1.4974,2.02534 1.49739,2.02533 -1.11558,5.67451 c -1.68736,8.58302 -1.58139,8.48703 -9.3697,8.48703 -3.64315,0 -6.68043,-0.27382 -6.8954,-0.62164 -0.96568,-1.56251 -2.56893,-1.74683 -5.10029,-0.58636 -3.10414,1.42305 -8.56465,2.00865 -11.18622,1.19964 z m 50.77431,-0.23412 c -1.31181,-0.48877 -2.96067,-1.4076 -3.66413,-2.04185 -1.25608,-1.1325 -1.17412,-1.16168 4.57263,-1.62793 3.2184,-0.26112 10.26198,-0.45244 15.65241,-0.42516 11.44348,0.0579 11.05729,0.28283 12.40539,-7.22508 1.21934,-6.79085 1.32892,-6.95791 3.04307,-4.6394 l 1.45502,1.96802 -1.34048,6.29527 c -0.73726,3.46239 -1.64734,6.66502 -2.02241,7.11693 -1.05415,1.27018 -12.63643,1.12417 -14.85654,-0.18728 -1.57307,-0.92923 -1.86342,-0.92861 -3.67451,0.008 -2.81735,1.45691 -8.66681,1.84039 -11.57045,0.75854 z m 50.56696,-0.058 c -1.34374,-0.47883 -3.02343,-1.45086 -3.73264,-2.16007 l -1.28947,-1.28945 4.67014,-0.0274 c 4.1084,-0.0241 6.20759,-0.46416 10.03985,-2.10452 0.90961,-0.38935 0.90961,-0.1592 0,2.69015 -0.66141,2.07185 -1.41355,3.23049 -2.24471,3.45783 -2.07078,0.56641 -4.85953,0.35416 -7.44317,-0.56649 z m 160.625,0.0373 c -1.34374,-0.49935 -3.02343,-1.48816 -3.73264,-2.19737 l -1.28947,-1.28946 4.76219,0 c 4.25989,0 5.23362,-0.24251 9.23176,-2.29917 l 4.46959,-2.29917 1.68836,1.70042 1.68838,1.70042 -1.5625,1.24501 c -4.72224,3.7627 -10.73667,5.11863 -15.25567,3.43933 z m 24.94317,-0.2765 c -1.375,-0.62548 -2.886,-1.60368 -3.35778,-2.17378 -0.7823,-0.94534 -0.53105,-1.03655 2.85531,-1.03655 4.38996,0 9.35868,-1.35371 11.68489,-3.18351 0.91675,-0.72112 2.07847,-1.15317 2.58157,-0.9601 0.74734,0.28678 0.63457,0.76388 -0.61625,2.60707 -0.84205,1.24083 -1.7,2.78853 -1.90657,3.43934 -0.76448,2.40869 -7.17999,3.15491 -11.24117,1.30753 z m 74.92383,0.27495 c -2.40539,-0.75267 -5.79976,-2.77851 -5.83972,-3.48528 -0.01,-0.17187 3.00488,-0.32726 6.69914,-0.3453 7.97237,-0.0389 12.12556,-1.36895 16.61512,-5.32081 5.19019,-4.56858 6.13775,-9.52163 4.83463,-25.27139 -0.31288,-3.78125 -0.74138,-10.10937 -0.95219,-14.0625 l -0.38337,-7.1875 1.48206,1.63681 c 1.3515,1.49256 1.51706,2.37379 1.87937,10 0.21857,4.59975 0.73113,12.86319 1.13913,18.36319 0.8525,11.49189 0.26225,14.9985 -3.23506,19.21937 -4.80319,5.79697 -14.93813,8.73795 -22.23911,6.45341 z m -441.41639,-9.1609 c -4.18261,-0.82151 -3.67616,-1.00056 1.98903,-0.70321 11.91702,0.62549 22.92362,-5.03202 27.71575,-14.24617 1.66012,-3.19204 1.78778,-3.94404 1.78778,-10.53119 l 0,-7.09368 1.25,2.71869 c 1.84871,4.02083 1.71289,13.51518 -0.24765,17.31206 -1.97664,3.82806 -5.73098,7.70268 -9.39685,9.69789 -5.62393,3.06093 -15.68871,4.30087 -23.09806,2.84561 z m 290.55506,-0.57438 c -1.2125,-0.38831 -0.7925,-0.51573 1.875,-0.56881 14.93465,-0.29719 28.75,-23.5067 28.75,-48.29941 0,-3.92914 -0.37569,-8.55771 -0.83986,-10.34712 -1.08325,-4.17604 -0.25325,-3.65214 1.49865,0.94597 1.00338,2.6335 1.44888,5.4866 1.68258,10.77579 0.301,6.81215 0.21645,7.4921 -1.59319,12.8125 -1.05108,3.09022 -2.33142,8.09792 -2.84519,11.12824 -1.08372,6.39192 -4.19115,12.29672 -9.34172,17.7513 -4.30505,4.55915 -8.3106,6.44359 -13.52773,6.36424 -2.25282,-0.0343 -4.79917,-0.28748 -5.65854,-0.5627 z m -245.3125,-0.5772 c -0.91151,-0.35684 -0.31916,-0.56866 2.1875,-0.78224 4.03956,-0.3442 7.05291,-1.66548 10.47111,-4.59133 l 2.47761,-2.12075 0.7691,1.68799 c 0.70841,1.55479 0.61499,1.81665 -1.18391,3.31844 -1.07416,0.89675 -3.03041,1.95324 -4.34723,2.34776 -2.68923,0.80572 -8.47437,0.88386 -10.37418,0.14013 z m 24.39247,0.008 c -0.86598,-0.33843 -0.0716,-0.58696 2.67121,-0.83566 2.14706,-0.19469 4.99933,-0.89604 6.33838,-1.55854 2.3651,-1.17016 2.46283,-1.17162 3.42253,-0.0507 0.54335,0.63459 0.98791,1.25782 0.98791,1.38495 0,0.12714 -1.24954,0.5458 -2.77676,0.93036 -3.12845,0.78775 -8.78307,0.85663 -10.64327,0.12966 z m 51.54503,-0.005 c -1.17354,-0.33795 -0.54416,-0.53534 2.52824,-0.79295 2.24991,-0.18864 4.9638,-0.79447 6.03088,-1.34627 1.70474,-0.88155 2.03289,-0.89153 2.70454,-0.0822 0.42041,0.50657 1.22215,0.95053 1.78161,0.98657 0.55948,0.0361 -0.10777,0.43631 -1.48277,0.88947 -2.69248,0.88737 -9.02381,1.07652 -11.5625,0.34543 z m 50.3125,-0.0504 c -0.94968,-0.40809 -0.56348,-0.5477 1.60741,-0.58107 3.97943,-0.0612 8.11303,-1.60474 11.06573,-4.13214 l 2.50637,-2.14536 0.98981,1.51066 c 0.94695,1.44522 0.90838,1.57918 -0.89041,3.09277 -1.03412,0.87015 -2.92618,1.87259 -4.20457,2.22763 -2.76598,0.7682 -9.31283,0.78445 -11.07434,0.0275 z m 160.9375,0.0519 c -1.2082,-0.3468 -0.70193,-0.52953 2.23274,-0.80587 4.16418,-0.39212 7.84257,-2.00284 11.09465,-4.85821 l 2.11215,-1.8545 0.7362,1.61578 c 0.95181,2.08898 0.17298,3.0667 -3.98824,5.00674 -3.19132,1.48785 -8.71169,1.89373 -12.1875,0.89606 z m 25,-0.0519 c -1.34704,-0.4314 -1.20991,-0.50899 0.99442,-0.5627 3.93736,-0.0959 8.02493,-1.56977 11.56905,-4.17139 3.0773,-2.25895 3.26436,-2.31383 4.08083,-1.19724 1.19486,1.63407 1.10805,1.91652 -1.06456,3.46356 -3.77038,2.68475 -11.21847,3.8645 -15.57974,2.46777 z m 75,0.0896 c -1.18044,-0.37411 -0.41633,-0.57922 3.125,-0.83887 6.43362,-0.47172 11.42844,-2.4946 15.01481,-6.08099 4.92869,-4.92871 5.72725,-9.53488 4.39606,-25.35722 -0.31812,-3.78125 -0.773,-10.25 -1.01087,-14.375 l -0.4325,-7.5 1.32875,1.19062 c 1.13075,1.01322 1.33094,1.89788 1.34356,5.9375 0.008,2.61078 0.28413,8.12188 0.61325,12.24688 1.42669,17.87923 1.47856,21.16753 0.38613,24.4567 -1.25088,3.76604 -4.53382,7.15372 -8.72494,9.0033 -3.26538,1.44106 -13.09986,2.24863 -16.03925,1.31708 z m -346.55085,-0.69573 c -0.26201,-0.42394 1.58927,-0.64712 5.42021,-0.65342 3.19998,-0.005 6.19148,-0.24626 6.64778,-0.53554 0.48477,-0.30733 2.2391,-7.25305 4.22036,-16.70918 3.40499,-16.2513 5.08333,-21.48657 7.41086,-23.11683 3.14368,-2.20192 5.28087,-0.0167 2.69168,2.75218 -2.87593,3.07549 -3.81472,5.93481 -7.32378,22.30644 l -3.483,16.25 -7.5931,0.1751 c -4.7263,0.10899 -7.74333,-0.068 -7.99101,-0.46875 z m 50.30085,-0.0188 c -0.63949,-0.41327 1.07458,-0.6089 5.39222,-0.61543 4.69361,-0.007 6.51994,-0.23877 7.06562,-0.89628 0.40475,-0.48769 2.27393,-8.15175 4.15373,-17.03125 3.57754,-16.899 5.03544,-21.06744 7.93812,-22.69667 1.50673,-0.84571 1.7705,-0.83304 2.73484,0.13131 1.00638,1.00637 0.96953,1.15788 -0.64581,2.65492 -2.74664,2.5455 -3.951,6.17328 -7.29902,21.98621 -1.73565,8.19758 -3.30045,15.39688 -3.47733,15.99844 -0.28276,0.96164 -1.20356,1.09259 -7.62324,1.08418 -4.01589,-0.005 -7.72351,-0.2822 -8.23913,-0.61543 z m 130.9375,0 c -0.24774,-0.40086 1.87055,-0.625 5.90673,-0.625 5.43386,0 6.43339,-0.16396 7.32127,-1.20092 0.93543,-1.09251 1.15718,-1.11647 2.45617,-0.26534 0.81482,0.53389 1.2812,1.31787 1.08625,1.82593 -0.2711,0.70644 -1.99833,0.89033 -8.3629,0.89033 -4.67332,0 -8.18247,-0.26086 -8.40752,-0.625 z m 115.46146,0.19558 c 0.59756,-0.15644 1.72256,-0.16211 2.5,-0.0126 0.77745,0.14949 0.28854,0.27749 -1.08646,0.28443 -1.375,0.007 -2.01109,-0.11539 -1.41354,-0.27182 z M 122.5888,438.93203 c 0,-1.50881 0.61071,-2.62699 2.42647,-4.44275 1.33456,-1.33456 2.99905,-2.42647 3.69889,-2.42647 0.69982,0 1.71728,-0.17071 2.26102,-0.37937 1.26313,-0.48471 1.30715,1.09022 0.0945,3.37916 -1.10363,2.0831 -4.65965,4.92666 -6.84785,5.47587 -1.50789,0.37845 -1.63299,0.25539 -1.63299,-1.60644 z m 408.77192,-0.46297 c 0.28273,-1.28906 2.24647,-10.5 4.36389,-20.46875 2.1174,-9.96875 3.95876,-18.23539 4.09191,-18.37031 0.54745,-0.55478 2.14721,1.43197 2.14637,2.66559 -0.002,3.14822 -7.58648,36.32786 -8.54642,37.38858 -1.75985,1.94461 -2.63528,1.42718 -2.05575,-1.21511 z M 114.92194,437.2501 c -0.59573,-1.10012 -1.08314,-3.1661 -1.08314,-4.59107 0,-4.64994 2.71726,-7.52667 7.91979,-8.38459 1.56742,-0.25848 2.76925,-0.84757 3.01338,-1.47704 0.36782,-0.94837 0.49028,-0.93271 1.29897,0.16612 1.31753,1.79023 1.14013,2.10953 -1.57872,2.84164 -2.66716,0.71819 -5.85322,3.08085 -7.05447,5.23131 -0.41133,0.73637 -0.90195,2.88572 -1.09028,4.77634 l -0.3424,3.4375 -1.08313,-2.00021 z m 287.13573,0.50895 c -0.68392,-0.43341 0.18896,-5.37164 4.61064,-26.08418 2.99984,-14.05226 5.62948,-25.87917 5.84363,-26.28203 0.28915,-0.54395 0.69413,-0.50921 1.57348,0.13498 1.14594,0.83948 1.00512,1.70428 -4.36842,26.82622 -3.05389,14.27733 -5.83674,25.95446 -6.18412,25.9492 -0.34737,-0.005 -1.01121,-0.25015 -1.47521,-0.54419 z m 143.79479,-0.18258 c -1.15199,-1.15199 -0.92317,-1.76366 0.65977,-1.76366 3.74391,0 6.27768,-4.63269 4.53841,-8.29793 -0.97405,-2.05267 -0.94413,-2.20246 1.46291,-7.32335 l 2.45731,-5.22783 0.43132,3.45222 c 0.37316,2.98669 0.21256,3.88394 -1.19103,6.65378 -1.70524,3.36514 -2.04203,5.40997 -0.99735,6.05561 0.89145,0.55095 0.77437,4.41532 -0.15625,5.15745 -0.42969,0.34266 -1.625,0.75919 -2.65625,0.92564 -1.03125,0.16644 -2.30479,0.48917 -2.83009,0.71718 -0.5253,0.228 -1.29874,0.0709 -1.71875,-0.34911 z m -375.34699,-0.93033 c -0.22917,-0.22916 -0.40863,-1.5651 -0.3988,-2.96875 0.0257,-3.67868 6.49962,-33.68291 7.3271,-33.95874 0.38247,-0.12749 0.99638,0.33059 1.36424,1.01794 0.51938,0.97049 -0.10755,4.92428 -2.80572,17.69423 -1.91101,9.04447 -3.61815,16.93668 -3.79365,17.53824 -0.33141,1.13603 -0.97633,1.39392 -1.69317,0.67708 z m 24.73958,-0.0261 c -0.42969,-0.15756 -0.78317,-1.03646 -0.78551,-1.95313 -0.004,-1.63803 6.80558,-34.5575 7.2478,-35.03698 0.52414,-0.5683 2.13136,1.44283 2.13024,2.66559 -0.002,1.95448 -6.85004,33.75164 -7.36914,34.21571 -0.24318,0.2174 -0.7937,0.26636 -1.22339,0.10881 z m 50.30914,-0.43119 c -1.45528,-1.45528 -1.43675,-1.64886 1.19728,-12.50766 1.6175,-6.66816 2.3041,-10.94098 2.34375,-14.58553 0.0308,-2.83503 0.11917,-5.15534 0.19628,-5.15625 0.0771,-9.4e-4 0.62879,0.9124 1.22596,2.02959 1.77942,3.32893 1.29239,10.40904 -1.4907,21.67074 -2.26595,9.16914 -2.43539,9.58629 -3.47257,8.54911 z m 50.28461,0.12392 c -1.15261,-1.15261 -0.93328,-3.06444 1.52081,-13.25655 1.50265,-6.24071 2.29547,-11.06923 2.34375,-14.27402 0.0401,-2.66368 0.13948,-4.84337 0.2208,-4.84375 0.0813,-3.7e-4 0.59445,1.05401 1.14028,2.34307 1.47471,3.4828 0.92917,10.7618 -1.6159,21.56066 -1.19473,5.0693 -2.32693,9.21773 -2.51599,9.21875 -0.18906,0.001 -0.68125,-0.33566 -1.09375,-0.74816 z m 26.28125,0.30729 c -0.42969,-0.15755 -0.78125,-1.2409 -0.78125,-2.40744 0,-2.27336 6.57707,-33.93526 7.17314,-34.53132 0.19614,-0.19614 0.82182,0.10857 1.3904,0.67715 0.96169,0.96169 0.78155,2.24458 -2.58365,18.40029 -1.98957,9.55159 -3.79741,17.54231 -4.0174,17.75716 -0.22,0.21484 -0.75155,0.26171 -1.18124,0.10416 z m 160.26042,0.0261 c -0.22917,-0.22919 -0.41667,-1.06637 -0.41667,-1.86041 0,-1.50069 6.86002,-34.71542 7.26324,-35.16704 0.126,-0.14112 0.76085,0.22465 1.41078,0.81283 1.30721,1.18301 1.59629,-0.62293 -4.38786,27.41251 -1.82179,8.53505 -2.52864,10.14294 -3.86949,8.80208 z m 26.25,0 c -0.22917,-0.22917 -0.42257,-1.42448 -0.42978,-2.65625 -0.0158,-2.70325 6.25199,-33.23956 6.99678,-34.0878 0.3249,-0.37003 0.90781,-0.21566 1.52819,0.40472 0.92058,0.92058 0.71209,2.38104 -2.53906,17.78571 -1.9481,9.23053 -3.68601,17.27497 -3.86202,17.87653 -0.3324,1.13608 -0.97736,1.39385 -1.69411,0.67709 z m -52.97958,-1.57588 c -1.18616,-2.21635 -0.29568,-11.34112 1.69439,-17.36245 2.78284,-8.41999 7.43398,-13.92259 10.85142,-12.83793 1.73556,0.55084 1.59103,1.84469 -0.30244,2.70741 -4.13817,1.88548 -9.56261,14.55314 -10.15044,23.70426 -0.34056,5.30168 -0.81935,6.16841 -2.09293,3.78871 z m -43.04222,-1.60446 c -0.0199,-0.78555 7.86713,-38.17607 8.52012,-40.39183 0.68748,-2.33281 1.44067,0.45227 1.45044,5.36336 0.0158,7.9521 -3.55756,24.62512 -6.51133,30.3813 -1.82716,3.56066 -3.43212,5.7168 -3.45923,4.64717 z M 547.23741,413.0003 c 0.14194,-0.6875 0.44815,-2.19186 0.68046,-3.34302 0.27757,-1.37542 0.63365,-1.88176 1.03858,-1.47683 0.40493,0.40493 0.17164,1.55111 -0.68045,3.34302 -0.71316,1.49976 -1.18052,2.16433 -1.03859,1.47683 z M 382.9013,410.21498 c -1.04348,-0.42572 -0.88859,-0.54753 0.9375,-0.73732 2.0219,-0.21014 2.1712,-0.36929 1.97215,-2.10235 -0.11844,-1.03125 -0.24642,-4.125 -0.2844,-6.875 -0.0573,-4.15217 0.20546,-5.5956 1.54983,-8.51251 2.26063,-4.90492 5.57874,-8.32162 10.37414,-10.68239 3.58218,-1.7635 4.87214,-2.05044 10.17582,-2.26346 3.67632,-0.14766 6.53274,0.0228 7.23679,0.43195 0.94082,0.54669 0.52751,0.67953 -2.16208,0.6949 -3.10487,0.0178 -12.25401,1.41601 -15.69783,2.3991 -1.06313,0.30349 -1.69253,1.09501 -2.08423,2.6211 -0.30863,1.20247 -1.25786,3.10446 -2.1094,4.22664 -0.85155,1.12219 -2.29919,3.65344 -3.21698,5.625 -1.44519,3.10448 -1.67024,4.40091 -1.68002,9.67799 l -0.0113,6.09332 -1.875,-0.0435 c -1.03125,-0.0239 -2.4375,-0.27299 -3.125,-0.55347 z m -230.33611,-3.75177 -2.16389,-1.8496 2.30306,-0.0254 c 1.26669,-0.014 3.06104,-0.31358 3.98746,-0.6658 1.64593,-0.62579 1.6754,-0.59546 1.29069,1.32812 -0.21654,1.08269 -0.39371,2.21462 -0.39371,2.51541 0,1.21082 -2.99009,0.43543 -5.02361,-1.30273 z m 295.48874,-4.81469 c -0.16552,-0.28777 -0.48011,-1.64821 -0.69906,-3.02321 l -0.39811,-2.5 1.30577,2.4165 c 0.84428,1.56243 1.09134,2.63092 0.69906,3.02321 -0.33368,0.33369 -0.74213,0.37126 -0.90766,0.0835 z M 138.65697,399.7501 c -0.66194,-1.23953 -1.0406,-3.25988 -0.99567,-5.3125 0.0399,-1.82176 0.20858,-2.74979 0.37489,-2.06229 0.16632,0.6875 0.80354,1.8125 1.41605,2.5 0.88153,0.98946 1.02603,1.83622 0.69328,4.0625 l -0.42036,2.8125 -1.06819,-2.00021 z m 7.05683,-1.97952 c -1.48578,-0.45749 -1.45053,-0.50283 0.71784,-0.92337 4.87149,-0.94478 7.58953,-4.7703 7.66915,-10.79395 0.0471,-3.56591 0.11286,-3.73345 0.9809,-2.5 0.54076,0.76841 1.02567,3.18541 1.15793,5.7716 0.21326,4.17004 0.11555,4.57282 -1.55538,6.41181 -1.36713,1.50461 -2.43887,2.02671 -4.59544,2.23863 -1.54688,0.15201 -3.51563,0.0599 -4.375,-0.20472 z m 17.1875,-4.77027 c 0,-1.54687 0.0379,-2.8125 0.0844,-2.8125 0.28702,0 1.99719,3.04722 2.36767,4.21875 0.37369,1.18171 0.21343,1.40625 -1.00367,1.40625 -1.29992,0 -1.44837,-0.28827 -1.44837,-2.8125 z m -33.10895,-0.90646 c -1.22331,-2.36562 -1.22621,-7.69085 -0.006,-10.0515 1.09813,-2.12354 3.85302,-3.73371 6.36464,-3.71997 3.27049,0.0179 3.46824,0.91558 0.51749,2.34916 -3.53656,1.7182 -5.53311,5.27938 -5.59768,9.98441 -0.0247,1.80435 -0.10811,3.28091 -0.18523,3.28125 -0.0771,3.4e-4 -0.5693,-0.82917 -1.09375,-1.84335 z m 8.44224,-1.63033 c -0.0304,-0.96899 1.68737,-3.15089 2.13123,-2.70702 0.20858,0.20858 -0.18094,1.05189 -0.8656,1.87402 -0.68466,0.82213 -1.25419,1.19698 -1.26563,0.833 z m 283.10421,-0.94535 c 0,-0.36831 -0.43527,-1.10491 -0.96726,-1.63691 -1.13938,-1.13937 -0.88041,-1.63357 0.5653,-1.07879 0.89788,0.34455 1.53963,3.38534 0.71446,3.38534 -0.17188,0 -0.3125,-0.30134 -0.3125,-0.66964 z"
         id="path4151"
         inkscape:connector-curvature="0" />
    </g>
  </g>
</svg>
